font.ufo
<glyph name="numbersign" format="2">
	<unicode hex="0023"/>
	<advance width="600"/>
	<outline>
		<contour>
			<point x="61" y="0" type="line"/>
			<point x="141" y="0" type="line"/>
			<point x="344" y="650" type="line"/>
			<point x="266" y="650" type="line"/>
		</contour>
		<contour>
			<point x="256" y="0" type="line"/>
			<point x="336" y="0" type="line"/>
			<point x="534" y="650" type="line"/>
			<point x="455" y="650" type="line"/>
		</contour>
		<contour>
			<point x="104" y="402" type="line"/>
			<point x="542" y="402" type="line"/>
			<point x="564" y="482" type="line"/>
			<point x="125" y="482" type="line"/>
		</contour>
		<contour>
			<point x="47" y="189" type="line"/>
			<point x="485" y="189" type="line"/>
			<point x="506" y="269" type="line"/>
			<point x="68" y="269" type="line"/>
		</contour>
	</outline>
</glyph>
<glyph name="dollar" format="1">
	<unicode hex="0024"/>
	<advance width="600"/>
	<outline>
		<contour>
			<point x="269" y="34" type="curve" smooth="yes"/>
			<point x="396" y="34"/>
			<point x="499" y="90"/>
			<point x="499" y="212" type="curve" smooth="yes"/>
			<point x="499" y="301"/>
			<point x="431" y="340"/>
			<point x="349" y="378" type="curve" smooth="yes"/>
			<point x="288" y="406"/>
			<point x="251" y="426"/>
			<point x="251" y="460" type="curve" smooth="yes"/>
			<point x="251" y="493"/>
			<point x="281" y="509"/>
			<point x="323" y="509" type="curve" smooth="yes"/>
			<point x="376" y="509"/>
			<point x="418" y="487"/>
			<point x="456" y="445" type="curve"/>
			<point x="536" y="520" type="line"/>
			<point x="503" y="564"/>
			<point x="432" y="618"/>
			<point x="335" y="618" type="curve" smooth="yes"/>
			<point x="209" y="618"/>
			<point x="120" y="562"/>
			<point x="120" y="446" type="curve" smooth="yes"/>
			<point x="120" y="356"/>
			<point x="187" y="313"/>
			<point x="266" y="276" type="curve" smooth="yes"/>
			<point x="328" y="247"/>
			<point x="366" y="228"/>
			<point x="366" y="197" type="curve" smooth="yes"/>
			<point x="366" y="162"/>
			<point x="334" y="143"/>
			<point x="278" y="143" type="curve" smooth="yes"/>
			<point x="208" y="143"/>
			<point x="164" y="178"/>
			<point x="126" y="223" type="curve"/>
			<point x="44" y="140" type="line"/>
			<point x="87" y="87"/>
			<point x="162" y="34"/>
		</contour>
		<contour>
			<point x="302" y="575" type="line"/>
			<point x="392" y="575" type="line"/>
			<point x="424" y="746" type="line"/>
			<point x="334" y="746" type="line"/>
		</contour>
		<contour>
			<point x="173" y="-110" type="line"/>
			<point x="264" y="-110" type="line"/>
			<point x="303" y="88" type="line"/>
			<point x="213" y="88" type="line"/>
		</contour>
	</outline>
</glyph>
<glyph name="quotesingle" format="1">
	<unicode hex="0027"/>
	<advance width="600"/>
	<outline>
		<contour>
			<point x="266" y="312" type="line"/>
			<point x="349" y="312" type="line"/>
			<point x="430" y="547" type="line"/>
			<point x="462" y="685" type="line"/>
			<point x="304" y="685" type="line"/>
			<point x="280" y="547" type="line"/>
		</contour>
	</outline>
</glyph>
<glyph name="parenright" format="2">
	<unicode hex="0029"/>
	<advance width="600"/>
	<outline>
		<contour>
			<point x="103" y="-188" type="line"/>
			<point x="297" y="-62"/>
			<point x="413" y="125"/>
			<point x="413" y="366" type="curve" smooth="yes"/>
			<point x="413" y="514"/>
			<point x="361" y="644"/>
			<point x="278" y="731" type="curve"/>
			<point x="190" y="670" type="line"/>
			<point x="261" y="587"/>
			<point x="299" y="484"/>
			<point x="299" y="366" type="curve" smooth="yes"/>
			<point x="299" y="183"/>
			<point x="225" y="25"/>
			<point x="37" y="-111" type="curve"/>
		</contour>
	</outline>
</glyph>
<glyph name="period" format="1">
	<unicode hex="002E"/>
	<advance width="600"/>
	<outline>
		<contour>
			<point x="241" y="-12" type="curve" smooth="yes"/>
			<point x="314" y="-12"/>
			<point x="366" y="46"/>
			<point x="366" y="115" type="curve" smooth="yes"/>
			<point x="366" y="170"/>
			<point x="330" y="211"/>
			<point x="276" y="211" type="curve" smooth="yes"/>
			<point x="203" y="211"/>
			<point x="152" y="153"/>
			<point x="152" y="83" type="curve" smooth="yes"/>
			<point x="152" y="29"/>
			<point x="187" y="-12"/>
		</contour>
	</outline>
</glyph>
<glyph name="four" format="1">
	<unicode hex="0034"/>
	<advance width="600"/>
	<outline>
		<contour>
			<point x="292" y="0" type="line"/>
			<point x="416" y="0" type="line"/>
			<point x="542" y="635" type="line"/>
			<point x="378" y="635" type="line"/>
			<point x="26" y="250" type="line"/>
			<point x="7" y="155" type="line"/>
			<point x="527" y="155" type="line"/>
			<point x="548" y="260" type="line"/>
			<point x="168" y="260" type="line"/>
			<point x="308" y="413" type="line" smooth="yes"/>
			<point x="337" y="447"/>
			<point x="366" y="486"/>
			<point x="394" y="522" type="curve"/>
			<point x="397" y="522" type="line"/>
			<point x="388" y="484"/>
			<point x="376" y="431"/>
			<point x="367" y="384" type="curve" smooth="yes"/>
		</contour>
	</outline>
</glyph>
<glyph name="five" format="2">
	<unicode hex="0035"/>
	<advance width="600"/>
	<outline>
		<contour>
			<point x="234" y="-12" type="curve" smooth="yes"/>
			<point x="372" y="-12"/>
			<point x="506" y="82"/>
			<point x="506" y="240" type="curve" smooth="yes"/>
			<point x="506" y="352"/>
			<point x="425" y="408"/>
			<point x="322" y="408" type="curve" smooth="yes"/>
			<point x="289" y="408"/>
			<point x="262" y="403"/>
			<point x="233" y="392" type="curve"/>
			<point x="267" y="520" type="line"/>
			<point x="522" y="520" type="line"/>
			<point x="544" y="635" type="line"/>
			<point x="171" y="635" type="line"/>
			<point x="93" y="317" type="line"/>
			<point x="145" y="274" type="line"/>
			<point x="197" y="300"/>
			<point x="222" y="306"/>
			<point x="266" y="306" type="curve" smooth="yes"/>
			<point x="330" y="306"/>
			<point x="367" y="276"/>
			<point x="367" y="217" type="curve" smooth="yes"/>
			<point x="367" y="140"/>
			<point x="304" y="98"/>
			<point x="236" y="98" type="curve" smooth="yes"/>
			<point x="178" y="98"/>
			<point x="128" y="125"/>
			<point x="93" y="173" type="curve"/>
			<point x="6" y="102" type="line"/>
			<point x="64" y="21"/>
			<point x="147" y="-12"/>
		</contour>
	</outline>
</glyph>
<glyph name="six" format="2">
	<unicode hex="0036"/>
	<advance width="600"/>
	<outline>
		<contour>
			<point x="275" y="-12" type="curve" smooth="yes"/>
			<point x="419" y="-12"/>
			<point x="521" y="106"/>
			<point x="521" y="232" type="curve" smooth="yes"/>
			<point x="521" y="349"/>
			<point x="441" y="399"/>
			<point x="345" y="399" type="curve" smooth="yes"/>
			<point x="296" y="399"/>
			<point x="226" y="372"/>
			<point x="187" y="327" type="curve"/>
			<point x="175" y="229" type="line"/>
			<point x="220" y="287"/>
			<point x="266" y="305"/>
			<point x="309" y="305" type="curve" smooth="yes"/>
			<point x="362" y="305"/>
			<point x="396" y="276"/>
			<point x="396" y="220" type="curve" smooth="yes"/>
			<point x="396" y="162"/>
			<point x="358" y="90"/>
			<point x="282" y="90" type="curve" smooth="yes"/>
			<point x="224" y="90"/>
			<point x="181" y="130"/>
			<point x="181" y="206" type="curve" smooth="yes"/>
			<point x="181" y="436"/>
			<point x="280" y="537"/>
			<point x="386" y="537" type="curve" smooth="yes"/>
			<point x="431" y="537"/>
			<point x="463" y="521"/>
			<point x="487" y="486" type="curve"/>
			<point x="574" y="558" type="line"/>
			<point x="543" y="601"/>
			<point x="483" y="647"/>
			<point x="394" y="647" type="curve" smooth="yes"/>
			<point x="201" y="647"/>
			<point x="54" y="485"/>
			<point x="54" y="218" type="curve" smooth="yes"/>
			<point x="54" y="80"/>
			<point x="142" y="-12"/>
		</contour>
	</outline>
</glyph>
<glyph name="eight" format="1">
	<unicode hex="0038"/>
	<advance width="600"/>
	<outline>
		<contour>
			<point x="254" y="-12" type="curve" smooth="yes"/>
			<point x="404" y="-12"/>
			<point x="500" y="67"/>
			<point x="500" y="184" type="curve" smooth="yes"/>
			<point x="500" y="257"/>
			<point x="458" y="299"/>
			<point x="416" y="328" type="curve"/>
			<point x="416" y="332" type="line"/>
			<point x="490" y="368"/>
			<point x="536" y="423"/>
			<point x="536" y="503" type="curve" smooth="yes"/>
			<point x="536" y="598"/>
			<point x="450" y="647"/>
			<point x="346" y="647" type="curve" smooth="yes"/>
			<point x="218" y="647"/>
			<point x="124" y="578"/>
			<point x="124" y="466" type="curve" smooth="yes"/>
			<point x="124" y="412"/>
			<point x="151" y="371"/>
			<point x="190" y="332" type="curve"/>
			<point x="190" y="328" type="line"/>
			<point x="88" y="285"/>
			<point x="43" y="228"/>
			<point x="43" y="142" type="curve" smooth="yes"/>
			<point x="43" y="47"/>
			<point x="122" y="-12"/>
		</contour>
		<contour>
			<point x="348" y="366" type="curve"/>
			<point x="291" y="394"/>
			<point x="244" y="428"/>
			<point x="244" y="474" type="curve" smooth="yes"/>
			<point x="244" y="521"/>
			<point x="285" y="550"/>
			<point x="336" y="550" type="curve" smooth="yes"/>
			<point x="386" y="550"/>
			<point x="419" y="524"/>
			<point x="419" y="479" type="curve" smooth="yes"/>
			<point x="419" y="436"/>
			<point x="395" y="395"/>
		</contour>
		<contour>
			<point x="264" y="85" type="curve" smooth="yes"/>
			<point x="211" y="85"/>
			<point x="165" y="113"/>
			<point x="165" y="169" type="curve" smooth="yes"/>
			<point x="165" y="216"/>
			<point x="198" y="255"/>
			<point x="248" y="286" type="curve"/>
			<point x="324" y="245"/>
			<point x="374" y="219"/>
			<point x="374" y="168" type="curve" smooth="yes"/>
			<point x="374" y="112"/>
			<point x="321" y="85"/>
		</contour>
	</outline>
</glyph>
<glyph name="nine" format="1">
	<unicode hex="0039"/>
	<advance width="600"/>
	<outline>
		<contour>
			<point x="206" y="-12" type="curve" smooth="yes"/>
			<point x="399" y="-12"/>
			<point x="546" y="150"/>
			<point x="546" y="417" type="curve" smooth="yes"/>
			<point x="546" y="555"/>
			<point x="459" y="647"/>
			<point x="325" y="647" type="curve" smooth="yes"/>
			<point x="181" y="647"/>
			<point x="79" y="529"/>
			<point x="79" y="403" type="curve" smooth="yes"/>
			<point x="79" y="286"/>
			<point x="159" y="236"/>
			<point x="255" y="236" type="curve" smooth="yes"/>
			<point x="305" y="236"/>
			<point x="374" y="263"/>
			<point x="413" y="308" type="curve"/>
			<point x="425" y="406" type="line"/>
			<point x="381" y="348"/>
			<point x="334" y="330"/>
			<point x="292" y="330" type="curve" smooth="yes"/>
			<point x="238" y="330"/>
			<point x="205" y="359"/>
			<point x="205" y="415" type="curve" smooth="yes"/>
			<point x="205" y="473"/>
			<point x="242" y="545"/>
			<point x="318" y="545" type="curve" smooth="yes"/>
			<point x="377" y="545"/>
			<point x="419" y="506"/>
			<point x="419" y="429" type="curve" smooth="yes"/>
			<point x="419" y="199"/>
			<point x="320" y="98"/>
			<point x="215" y="98" type="curve" smooth="yes"/>
			<point x="169" y="98"/>
			<point x="138" y="114"/>
			<point x="113" y="149" type="curve"/>
			<point x="27" y="77" type="line"/>
			<point x="57" y="34"/>
			<point x="117" y="-12"/>
		</contour>
	</outline>
</glyph>
<glyph name="greater" format="2">
	<unicode hex="003E"/>
	<advance width="600"/>
	<outline>
		<contour>
			<point x="99" y="33" type="line"/>
			<point x="483" y="284" type="line"/>
			<point x="483" y="380" type="line"/>
			<point x="99" y="631" type="line"/>
			<point x="99" y="505" type="line"/>
			<point x="370" y="334" type="line"/>
			<point x="370" y="330" type="line"/>
			<point x="99" y="159" type="line"/>
		</contour>
	</outline>
</glyph>
<glyph name="at" format="1">
	<unicode hex="0040"/>
	<advance width="600"/>
	<outline>
		<contour>
			<point x="280" y="-147" type="curve" smooth="yes"/>
			<point x="348" y="-147"/>
			<point x="406" y="-128"/>
			<point x="453" y="-92" type="curve"/>
			<point x="413" y="-21" type="line"/>
			<point x="377" y="-48"/>
			<point x="342" y="-63"/>
			<point x="296" y="-63" type="curve" smooth="yes"/>
			<point x="197" y="-63"/>
			<point x="112" y="14"/>
			<point x="112" y="164" type="curve" smooth="yes"/>
			<point x="112" y="419"/>
			<point x="254" y="562"/>
			<point x="378" y="562" type="curve" smooth="yes"/>
			<point x="466" y="562"/>
			<point x="492" y="513"/>
			<point x="492" y="446" type="curve" smooth="yes"/>
			<point x="492" y="432"/>
			<point x="490" y="416"/>
			<point x="484" y="393" type="curve"/>
			<point x="287" y="371"/>
			<point x="199" y="311"/>
			<point x="199" y="195" type="curve" smooth="yes"/>
			<point x="199" y="128"/>
			<point x="249" y="88"/>
			<point x="308" y="88" type="curve" smooth="yes"/>
			<point x="364" y="88"/>
			<point x="402" y="112"/>
			<point x="437" y="151" type="curve"/>
			<point x="441" y="151" type="line"/>
			<point x="440" y="100" type="line"/>
			<point x="513" y="100" type="line"/>
			<point x="571" y="392" type="line" smooth="yes"/>
			<point x="575" y="415"/>
			<point x="579" y="437"/>
			<point x="579" y="458" type="curve" smooth="yes"/>
			<point x="579" y="571"/>
			<point x="520" y="643"/>
			<point x="389" y="643" type="curve" smooth="yes"/>
			<point x="193" y="643"/>
			<point x="13" y="466"/>
			<point x="13" y="153" type="curve" smooth="yes"/>
			<point x="13" y="-46"/>
			<point x="133" y="-147"/>
		</contour>
		<contour>
			<point x="349" y="173" type="curve" smooth="yes"/>
			<point x="321" y="173"/>
			<point x="301" y="189"/>
			<point x="301" y="218" type="curve" smooth="yes"/>
			<point x="301" y="268"/>
			<point x="339" y="302"/>
			<point x="461" y="320" type="curve"/>
			<point x="439" y="213" type="line"/>
			<point x="408" y="187"/>
			<point x="378" y="173"/>
		</contour>
	</outline>
</glyph>
<glyph name="D" format="2">
	<unicode hex="0044"/>
	<advance width="600"/>
	<outline>
		<contour>
			<point x="12" y="0" type="line"/>
			<point x="216" y="0" type="line" smooth="yes"/>
			<point x="418" y="0"/>
			<point x="565" y="139"/>
			<point x="565" y="396" type="curve" smooth="yes"/>
			<point x="565" y="568"/>
			<point x="462" y="652"/>
			<point x="288" y="652" type="curve" smooth="yes"/>
			<point x="142" y="652" type="line"/>
		</contour>
		<contour>
			<point x="171" y="110" type="line"/>
			<point x="257" y="542" type="line"/>
			<point x="285" y="542" type="line" smooth="yes"/>
			<point x="368" y="542"/>
			<point x="424" y="496"/>
			<point x="424" y="387" type="curve" smooth="yes"/>
			<point x="424" y="195"/>
			<point x="331" y="110"/>
			<point x="213" y="110" type="curve" smooth="yes"/>
		</contour>
	</outline>
	<anchor name="aboveUC" x="368" y="672"/>
	<anchor name="baseLC" x="228" y="0"/>
	<anchor name="belowLC" x="230" y="-20"/>
</glyph>
<glyph name="E" format="2">
	<unicode hex="0045"/>
	<advance width="600"/>
	<outline>
		<contour>
			<point x="38" y="0" type="line"/>
			<point x="474" y="0" type="line"/>
			<point x="496" y="115" type="line"/>
			<point x="198" y="115" type="line"/>
			<point x="232" y="280" type="line"/>
			<point x="474" y="280" type="line"/>
			<point x="496" y="395" type="line"/>
			<point x="254" y="395" type="line"/>
			<point x="282" y="537" type="line"/>
			<point x="572" y="537" type="line"/>
			<point x="594" y="652" type="line"/>
			<point x="169" y="652" type="line"/>
		</contour>
	</outline>
	<anchor name="aboveUC" x="392" y="672"/>
	<anchor name="baseLC" x="275" y="0"/>
	<anchor name="belowLC" x="265" y="-20"/>
	<anchor name="ogonekLC" x="269" y="0"/>
	<anchor name="ogonekUC" x="375" y="0"/>
</glyph>
<glyph name="F" format="2">
	<unicode hex="0046"/>
	<advance width="600"/>
	<outline>
		<contour>
			<point x="55" y="0" type="line"/>
			<point x="192" y="0" type="line"/>
			<point x="245" y="262" type="line"/>
			<point x="482" y="262" type="line"/>
			<point x="505" y="377" type="line"/>
			<point x="267" y="377" type="line"/>
			<point x="298" y="537" type="line"/>
			<point x="584" y="537" type="line"/>
			<point x="607" y="652" type="line"/>
			<point x="186" y="652" type="line"/>
		</contour>
	</outline>
	<anchor name="aboveUC" x="402" y="672"/>
	<anchor name="baseLC" x="127" y="0"/>
	<anchor name="belowLC" x="128" y="-20"/>
</glyph>
<glyph name="H" format="2">
	<unicode hex="0048"/>
	<advance width="600"/>
	<outline>
		<contour>
			<point x="4" y="0" type="line"/>
			<point x="141" y="0" type="line"/>
			<point x="196" y="279" type="line"/>
			<point x="390" y="279" type="line"/>
			<point x="334" y="0" type="line"/>
			<point x="471" y="0" type="line"/>
			<point x="601" y="652" type="line"/>
			<point x="464" y="652" type="line"/>
			<point x="414" y="399" type="line"/>
			<point x="219" y="399" type="line"/>
			<point x="271" y="652" type="line"/>
			<point x="134" y="652" type="line"/>
		</contour>
	</outline>
	<anchor name="aboveUC" x="371" y="672"/>
	<anchor name="baseLC" x="77" y="0"/>
	<anchor name="belowLC" x="234" y="-20"/>
</glyph>
<glyph name="I" format="2">
	<unicode hex="0049"/>
	<advance width="600"/>
	<outline>
		<contour>
			<point x="15" y="0" type="line"/>
			<point x="459" y="0" type="line"/>
			<point x="483" y="115" type="line"/>
			<point x="329" y="115" type="line"/>
			<point x="414" y="537" type="line"/>
			<point x="567" y="537" type="line"/>
			<point x="591" y="652" type="line"/>
			<point x="147" y="652" type="line"/>
			<point x="123" y="537" type="line"/>
			<point x="277" y="537" type="line"/>
			<point x="191" y="115" type="line"/>
			<point x="40" y="115" type="line"/>
		</contour>
	</outline>
	<anchor name="aboveUC" x="371" y="672"/>
	<anchor name="baseLC" x="238" y="0"/>
	<anchor name="belowLC" x="234" y="-20"/>
	<anchor name="ogonekUC" x="238" y="0"/>
</glyph>
<glyph name="J" format="1">
	<unicode hex="004A"/>
	<advance width="600"/>
	<outline>
		<contour>
			<point x="223" y="-12" type="curve" smooth="yes"/>
			<point x="374" y="-12"/>
			<point x="455" y="78"/>
			<point x="482" y="212" type="curve" smooth="yes"/>
			<point x="570" y="652" type="line"/>
			<point x="178" y="652" type="line"/>
			<point x="155" y="537" type="line"/>
			<point x="412" y="537" type="line"/>
			<point x="353" y="242" type="line" smooth="yes"/>
			<point x="334" y="146"/>
			<point x="298" y="106"/>
			<point x="223" y="106" type="curve" smooth="yes"/>
			<point x="165" y="106"/>
			<point x="126" y="140"/>
			<point x="96" y="182" type="curve"/>
			<point x="8" y="100" type="line"/>
			<point x="51" y="39"/>
			<point x="115" y="-12"/>
		</contour>
		<contour>
			<point name="aboveUC" x="385" y="672" type="move"/>
		</contour>
		<contour>
			<point name="belowLC" x="240" y="-20" type="move"/>
		</contour>
	</outline>
</glyph>
<glyph name="L" format="2">
	<unicode hex="004C"/>
	<advance width="600"/>
	<outline>
		<contour>
			<point x="65" y="0" type="line"/>
			<point x="495" y="0" type="line"/>
			<point x="517" y="115" type="line"/>
			<point x="225" y="115" type="line"/>
			<point x="332" y="652" type="line"/>
			<point x="195" y="652" type="line"/>
		</contour>
	</outline>
	<anchor name="aboveUC" x="268" y="672"/>
	<anchor name="baseLC" x="297" y="0"/>
	<anchor name="belowLC" x="287" y="-20"/>
	<anchor name="center" x="200" y="346"/>
</glyph>
<glyph name="M" format="2">
	<unicode hex="004D"/>
	<advance width="600"/>
	<outline>
		<contour>
			<point x="0" y="0" type="line"/>
			<point x="115" y="0" type="line"/>
			<point x="169" y="263" type="line" smooth="yes"/>
			<point x="180" y="317"/>
			<point x="192" y="435"/>
			<point x="200" y="516" type="curve"/>
			<point x="204" y="516" type="line"/>
			<point x="207" y="474"/>
			<point x="211" y="379"/>
			<point x="215" y="335" type="curve" smooth="yes"/>
			<point x="231" y="175" type="line"/>
			<point x="313" y="175" type="line"/>
			<point x="399" y="348" type="line" smooth="yes"/>
			<point x="417" y="386"/>
			<point x="458" y="477"/>
			<point x="477" y="516" type="curve"/>
			<point x="481" y="516" type="line"/>
			<point x="461" y="449"/>
			<point x="419" y="308"/>
			<point x="406" y="243" type="curve" smooth="yes"/>
			<point x="357" y="0" type="line"/>
			<point x="476" y="0" type="line"/>
			<point x="606" y="652" type="line"/>
			<point x="461" y="652" type="line"/>
			<point x="339" y="413" type="line"/>
			<point x="301" y="317" type="line"/>
			<point x="297" y="317" type="line"/>
			<point x="294" y="416" type="line"/>
			<point x="275" y="652" type="line"/>
			<point x="130" y="652" type="line"/>
		</contour>
	</outline>
	<anchor name="aboveUC" x="371" y="672"/>
	<anchor name="baseLC" x="419" y="0"/>
	<anchor name="belowLC" x="234" y="-20"/>
</glyph>
<glyph name="O" format="2">
	<unicode hex="004F"/>
	<advance width="600"/>
	<outline>
		<contour>
			<point x="251" y="-12" type="curve" smooth="yes"/>
			<point x="444" y="-12"/>
			<point x="576" y="174"/>
			<point x="576" y="398" type="curve" smooth="yes"/>
			<point x="576" y="563"/>
			<point x="492" y="664"/>
			<point x="357" y="664" type="curve" smooth="yes"/>
			<point x="164" y="664"/>
			<point x="30" y="478"/>
			<point x="30" y="254" type="curve" smooth="yes"/>
			<point x="30" y="89"/>
			<point x="116" y="-12"/>
		</contour>
		<contour>
			<point x="265" y="106" type="curve" smooth="yes"/>
			<point x="201" y="106"/>
			<point x="171" y="151"/>
			<point x="171" y="241" type="curve" smooth="yes"/>
			<point x="171" y="407"/>
			<point x="242" y="545"/>
			<point x="344" y="545" type="curve" smooth="yes"/>
			<point x="407" y="545"/>
			<point x="436" y="501"/>
			<point x="436" y="411" type="curve" smooth="yes"/>
			<point x="436" y="245"/>
			<point x="366" y="106"/>
		</contour>
	</outline>
	<anchor name="aboveUC" x="371" y="672"/>
	<anchor name="baseLC" x="238" y="0"/>
	<anchor name="belowLC" x="231" y="-20"/>
	<anchor name="hornLC" x="366" y="642"/>
	<anchor name="ogonekUC" x="238" y="0"/>
</glyph>
<glyph name="Q" format="1">
	<unicode hex="0051"/>
	<advance width="600"/>
	<outline>
		<contour>
			<point x="251" y="-12" type="curve" smooth="yes"/>
			<point x="444" y="-12"/>
			<point x="576" y="174"/>
			<point x="576" y="398" type="curve" smooth="yes"/>
			<point x="576" y="563"/>
			<point x="492" y="664"/>
			<point x="357" y="664" type="curve" smooth="yes"/>
			<point x="164" y="664"/>
			<point x="30" y="478"/>
			<point x="30" y="254" type="curve" smooth="yes"/>
			<point x="30" y="89"/>
			<point x="116" y="-12"/>
		</contour>
		<contour>
			<point x="266" y="99" type="curve" smooth="yes"/>
			<point x="201" y="99"/>
			<point x="171" y="144"/>
			<point x="171" y="241" type="curve" smooth="yes"/>
			<point x="171" y="407"/>
			<point x="242" y="545"/>
			<point x="344" y="545" type="curve" smooth="yes"/>
			<point x="407" y="545"/>
			<point x="436" y="501"/>
			<point x="436" y="411" type="curve" smooth="yes"/>
			<point x="436" y="236"/>
			<point x="366" y="99"/>
		</contour>
		<contour>
			<point x="407" y="-181" type="curve" smooth="yes"/>
			<point x="458" y="-181"/>
			<point x="500" y="-172"/>
			<point x="522" y="-162" type="curve"/>
			<point x="501" y="-58" type="line"/>
			<point x="482" y="-64"/>
			<point x="457" y="-71"/>
			<point x="423" y="-71" type="curve" smooth="yes"/>
			<point x="365" y="-71"/>
			<point x="321" y="-40"/>
			<point x="308" y="26" type="curve"/>
			<point x="172" y="27" type="line"/>
			<point x="207" y="-115"/>
			<point x="294" y="-181"/>
		</contour>
		<contour>
			<point name="aboveUC" x="371" y="672" type="move"/>
		</contour>
	</outline>
</glyph>
<glyph name="R" format="1">
	<unicode hex="0052"/>
	<advance width="600"/>
	<outline>
		<contour>
			<point x="15" y="0" type="line"/>
			<point x="153" y="0" type="line"/>
			<point x="200" y="239" type="line"/>
			<point x="284" y="239" type="line" smooth="yes"/>
			<point x="428" y="239"/>
			<point x="572" y="314"/>
			<point x="572" y="479" type="curve" smooth="yes"/>
			<point x="572" y="606"/>
			<point x="473" y="652"/>
			<point x="345" y="652" type="curve" smooth="yes"/>
			<point x="146" y="652" type="line"/>
		</contour>
		<contour>
			<point x="222" y="348" type="line"/>
			<point x="260" y="543" type="line"/>
			<point x="326" y="543" type="line" smooth="yes"/>
			<point x="397" y="543"/>
			<point x="434" y="520"/>
			<point x="434" y="465" type="curve" smooth="yes"/>
			<point x="434" y="394"/>
			<point x="379" y="348"/>
			<point x="282" y="348" type="curve" smooth="yes"/>
		</contour>
		<contour>
			<point x="263" y="263" type="line"/>
			<point x="358" y="0" type="line"/>
			<point x="510" y="0" type="line"/>
			<point x="378" y="320" type="line"/>
		</contour>
		<contour>
			<point name="aboveUC" x="370" y="672" type="move"/>
		</contour>
		<contour>
			<point name="baseLC" x="89" y="0" type="move"/>
		</contour>
		<contour>
			<point name="belowLC" x="260" y="-20" type="move"/>
		</contour>
	</outline>
</glyph>
<glyph name="T" format="2">
	<unicode hex="0054"/>
	<advance width="600"/>
	<outline>
		<contour>
			<point x="169" y="0" type="line"/>
			<point x="306" y="0" type="line"/>
			<point x="413" y="536" type="line"/>
			<point x="610" y="536" type="line"/>
			<point x="633" y="652" type="line"/>
			<point x="100" y="652" type="line"/>
			<point x="78" y="536" type="line"/>
			<point x="275" y="536" type="line"/>
		</contour>
	</outline>
	<anchor name="aboveUC" x="371" y="672"/>
	<anchor name="baseLC" x="240" y="0"/>
	<anchor name="belowLC" x="236" y="-20"/>
</glyph>
<glyph name="U" format="2">
	<unicode hex="0055"/>
	<advance width="600"/>
	<outline>
		<contour>
			<point x="249" y="-12" type="curve" smooth="yes"/>
			<point x="393" y="-12"/>
			<point x="482" y="57"/>
			<point x="523" y="261" type="curve" smooth="yes"/>
			<point x="601" y="652" type="line"/>
			<point x="467" y="652" type="line"/>
			<point x="391" y="269" type="line" smooth="yes"/>
			<point x="366" y="142"/>
			<point x="329" y="106"/>
			<point x="267" y="106" type="curve" smooth="yes"/>
			<point x="214" y="106"/>
			<point x="186" y="141"/>
			<point x="186" y="204" type="curve" smooth="yes"/>
			<point x="186" y="230"/>
			<point x="193" y="257"/>
			<point x="198" y="285" type="curve" smooth="yes"/>
			<point x="271" y="652" type="line"/>
			<point x="134" y="652" type="line"/>
			<point x="64" y="300" type="line" smooth="yes"/>
			<point x="56" y="263"/>
			<point x="53" y="231"/>
			<point x="53" y="193" type="curve" smooth="yes"/>
			<point x="53" y="71"/>
			<point x="118" y="-12"/>
		</contour>
	</outline>
	<anchor name="aboveUC" x="371" y="672"/>
	<anchor name="baseLC" x="238" y="0"/>
	<anchor name="belowLC" x="231" y="-20"/>
	<anchor name="hornLC" x="456" y="662"/>
	<anchor name="ogonekUC" x="238" y="0"/>
</glyph>
<glyph name="Z" format="2">
	<unicode hex="005A"/>
	<advance width="600"/>
	<outline>
		<contour>
			<point x="181" y="78" type="line"/>
			<point x="581" y="571" type="line"/>
			<point x="597" y="653" type="line"/>
			<point x="136" y="653" type="line"/>
			<point x="112" y="539" type="line"/>
			<point x="483" y="539" type="line"/>
			<point x="433" y="586" type="line"/>
			<point x="24" y="81" type="line"/>
			<point x="8" y="0" type="line"/>
			<point x="489" y="0" type="line"/>
			<point x="512" y="113" type="line"/>
			<point x="146" y="113" type="line"/>
		</contour>
	</outline>
	<anchor name="aboveUC" x="360" y="672"/>
	<anchor name="baseLC" x="274" y="0"/>
	<anchor name="belowLC" x="262" y="-20"/>
</glyph>
<glyph name="backslash" format="2">
	<unicode hex="005C"/>
	<advance width="600"/>
	<outline>
		<contour>
			<point x="323" y="-160" type="line"/>
			<point x="431" y="-160" type="line"/>
			<point x="276" y="710" type="line"/>
			<point x="168" y="710" type="line"/>
		</contour>
	</outline>
</glyph>
<glyph name="underscore" format="2">
	<unicode hex="005F"/>
	<advance width="600"/>
	<outline>
		<contour>
			<point x="-32" y="-159" type="line"/>
			<point x="448" y="-159" type="line"/>
			<point x="469" y="-56" type="line"/>
			<point x="-11" y="-56" type="line"/>
		</contour>
	</outline>
</glyph>
<glyph name="a" format="1">
	<unicode hex="0061"/>
	<advance width="600"/>
	<outline>
		<contour>
			<point x="197" y="-12" type="curve" smooth="yes"/>
			<point x="253" y="-12"/>
			<point x="313" y="18"/>
			<point x="360" y="68" type="curve"/>
			<point x="364" y="68" type="line"/>
			<point x="362" y="0" type="line"/>
			<point x="473" y="0" type="line"/>
			<point x="573" y="496" type="line"/>
			<point x="463" y="496" type="line"/>
			<point x="442" y="443" type="line"/>
			<point x="438" y="443" type="line"/>
			<point x="414" y="483"/>
			<point x="366" y="508"/>
			<point x="301" y="508" type="curve" smooth="yes"/>
			<point x="160" y="508"/>
			<point x="35" y="361"/>
			<point x="35" y="180" type="curve" smooth="yes"/>
			<point x="35" y="57"/>
			<point x="98" y="-12"/>
		</contour>
		<contour>
			<point x="248" y="100" type="curve" smooth="yes"/>
			<point x="204" y="100"/>
			<point x="176" y="129"/>
			<point x="176" y="197" type="curve" smooth="yes"/>
			<point x="176" y="310"/>
			<point x="245" y="396"/>
			<point x="325" y="396" type="curve" smooth="yes"/>
			<point x="353" y="396"/>
			<point x="389" y="382"/>
			<point x="408" y="349" type="curve"/>
			<point x="372" y="176" type="line"/>
			<point x="333" y="123"/>
			<point x="286" y="100"/>
		</contour>
		<contour>
			<point name="ogonekCXT-ATH" x="229" y="0" type="move"/>
		</contour>
		<contour>
			<point name="ogonekLC" x="385" y="0" type="move"/>
		</contour>
		<contour>
			<point name="aboveLC" x="348" y="516" type="move"/>
		</contour>
		<contour>
			<point name="baseLC" x="416" y="0" type="move"/>
		</contour>
		<contour>
			<point name="belowLC" x="250" y="-20" type="move"/>
		</contour>
	</outline>
</glyph>
<glyph name="b" format="1">
	<unicode hex="0062"/>
	<advance width="600"/>
	<outline>
		<contour>
			<point x="287" y="-12" type="curve" smooth="yes"/>
			<point x="429" y="-12"/>
			<point x="554" y="133"/>
			<point x="554" y="314" type="curve" smooth="yes"/>
			<point x="554" y="438"/>
			<point x="494" y="508"/>
			<point x="390" y="508" type="curve" smooth="yes"/>
			<point x="338" y="508"/>
			<point x="279" y="480"/>
			<point x="234" y="436" type="curve"/>
			<point x="232" y="436" type="line"/>
			<point x="261" y="542" type="line"/>
			<point x="293" y="701" type="line"/>
			<point x="156" y="701" type="line"/>
			<point x="16" y="0" type="line"/>
			<point x="129" y="0" type="line"/>
			<point x="150" y="53" type="line"/>
			<point x="152" y="53" type="line"/>
			<point x="178" y="14"/>
			<point x="230" y="-12"/>
		</contour>
		<contour>
			<point x="268" y="100" type="curve" smooth="yes"/>
			<point x="235" y="100"/>
			<point x="202" y="113"/>
			<point x="182" y="146" type="curve"/>
			<point x="216" y="316" type="line"/>
			<point x="255" y="372"/>
			<point x="300" y="396"/>
			<point x="337" y="396" type="curve" smooth="yes"/>
			<point x="381" y="396"/>
			<point x="412" y="366"/>
			<point x="412" y="297" type="curve" smooth="yes"/>
			<point x="412" y="184"/>
			<point x="344" y="100"/>
		</contour>
		<contour>
			<point name="aboveUC" x="231" y="732" type="move"/>
		</contour>
		<contour>
			<point name="belowLC" x="244" y="-20" type="move"/>
		</contour>
	</outline>
</glyph>
<glyph name="e" format="2">
	<unicode hex="0065"/>
	<advance width="600"/>
	<outline>
		<contour>
			<point x="267" y="-12" type="curve" smooth="yes"/>
			<point x="356" y="-12"/>
			<point x="435" y="13"/>
			<point x="493" y="54" type="curve"/>
			<point x="447" y="145" type="line"/>
			<point x="402" y="115"/>
			<point x="355" y="93"/>
			<point x="299" y="93" type="curve" smooth="yes"/>
			<point x="235" y="93"/>
			<point x="183" y="124"/>
			<point x="183" y="214" type="curve" smooth="yes"/>
			<point x="183" y="341"/>
			<point x="267" y="403"/>
			<point x="330" y="403" type="curve" smooth="yes"/>
			<point x="379" y="403"/>
			<point x="410" y="373"/>
			<point x="410" y="316" type="curve" smooth="yes"/>
			<point x="410" y="303"/>
			<point x="408" y="289"/>
			<point x="404" y="278" type="curve"/>
			<point x="444" y="298" type="line"/>
			<point x="164" y="298" type="line"/>
			<point x="149" y="210" type="line"/>
			<point x="519" y="210" type="line"/>
			<point x="525" y="226"/>
			<point x="536" y="272"/>
			<point x="536" y="313" type="curve" smooth="yes"/>
			<point x="536" y="428"/>
			<point x="463" y="508"/>
			<point x="334" y="508" type="curve" smooth="yes"/>
			<point x="182" y="508"/>
			<point x="46" y="387"/>
			<point x="46" y="208" type="curve" smooth="yes"/>
			<point x="46" y="58"/>
			<point x="140" y="-12"/>
		</contour>
	</outline>
	<anchor name="aboveLC" x="342" y="516"/>
	<anchor name="baseLC" x="262" y="0"/>
	<anchor name="belowLC" x="258" y="-20"/>
	<anchor name="ogonekCXT-ATH" x="262" y="0"/>
	<anchor name="ogonekLC" x="350" y="0"/>
</glyph>
<glyph name="k" format="1">
	<unicode hex="006B"/>
	<advance width="600"/>
	<outline>
		<contour>
			<point x="21" y="0" type="line"/>
			<point x="158" y="0" type="line"/>
			<point x="181" y="118" type="line"/>
			<point x="342" y="253" type="line"/>
			<point x="609" y="496" type="line"/>
			<point x="450" y="496" type="line"/>
			<point x="219" y="291" type="line"/>
			<point x="215" y="291" type="line"/>
			<point x="298" y="701" type="line"/>
			<point x="162" y="701" type="line"/>
		</contour>
		<contour>
			<point x="281" y="229" type="line"/>
			<point x="385" y="0" type="line"/>
			<point x="524" y="0" type="line"/>
			<point x="370" y="322" type="line"/>
		</contour>
		<contour>
			<point name="aboveUC" x="230" y="724" type="move"/>
		</contour>
		<contour>
			<point name="belowLC" x="272" y="-20" type="move"/>
		</contour>
	</outline>
</glyph>
<glyph name="q" format="2">
	<unicode hex="0071"/>
	<advance width="600"/>
	<outline>
		<contour>
			<point x="301" y="-184" type="line"/>
			<point x="436" y="-184" type="line"/>
			<point x="573" y="496" type="line"/>
			<point x="465" y="496" type="line"/>
			<point x="442" y="443" type="line"/>
			<point x="438" y="443" type="line"/>
			<point x="414" y="483"/>
			<point x="366" y="508"/>
			<point x="301" y="508" type="curve" smooth="yes"/>
			<point x="160" y="508"/>
			<point x="35" y="361"/>
			<point x="35" y="180" type="curve" smooth="yes"/>
			<point x="35" y="57"/>
			<point x="98" y="-12"/>
			<point x="196" y="-12" type="curve" smooth="yes"/>
			<point x="251" y="-12"/>
			<point x="313" y="18"/>
			<point x="360" y="68" type="curve"/>
			<point x="364" y="68" type="line"/>
			<point x="345" y="20"/>
			<point x="335" y="-23"/>
			<point x="329" y="-47" type="curve" smooth="yes"/>
		</contour>
		<contour>
			<point x="248" y="100" type="curve" smooth="yes"/>
			<point x="204" y="100"/>
			<point x="176" y="130"/>
			<point x="176" y="197" type="curve" smooth="yes"/>
			<point x="176" y="310"/>
			<point x="245" y="396"/>
			<point x="325" y="396" type="curve" smooth="yes"/>
			<point x="353" y="396"/>
			<point x="388" y="382"/>
			<point x="408" y="349" type="curve"/>
			<point x="372" y="176" type="line"/>
			<point x="333" y="123"/>
			<point x="286" y="100"/>
		</contour>
	</outline>
	<anchor name="aboveLC" x="351" y="516"/>
	<anchor name="belowLC" x="364" y="-205"/>
</glyph>
<glyph name="u" format="1">
	<unicode hex="0075"/>
	<advance width="600"/>
	<outline>
		<contour>
			<point x="167" y="-12" type="curve" smooth="yes"/>
			<point x="238" y="-12"/>
			<point x="308" y="36"/>
			<point x="357" y="85" type="curve"/>
			<point x="361" y="85" type="line"/>
			<point x="355" y="0" type="line"/>
			<point x="466" y="0" type="line"/>
			<point x="564" y="496" type="line"/>
			<point x="427" y="496" type="line"/>
			<point x="368" y="194" type="line"/>
			<point x="321" y="136"/>
			<point x="273" y="105"/>
			<point x="231" y="105" type="curve" smooth="yes"/>
			<point x="198" y="105"/>
			<point x="179" y="122"/>
			<point x="179" y="156" type="curve" smooth="yes"/>
			<point x="179" y="171"/>
			<point x="183" y="186"/>
			<point x="187" y="206" type="curve" smooth="yes"/>
			<point x="245" y="496" type="line"/>
			<point x="108" y="496" type="line"/>
			<point x="47" y="190" type="line" smooth="yes"/>
			<point x="42" y="165"/>
			<point x="39" y="139"/>
			<point x="39" y="116" type="curve" smooth="yes"/>
			<point x="39" y="33"/>
			<point x="84" y="-12"/>
		</contour>
		<contour>
			<point name="ogonekLC" x="377" y="0" type="move"/>
		</contour>
		<contour>
			<point name="aboveLC" x="335" y="516" type="move"/>
		</contour>
		<contour>
			<point name="baseLC" x="413" y="0" type="move"/>
		</contour>
		<contour>
			<point name="belowLC" x="247" y="-20" type="move"/>
		</contour>
	</outline>
</glyph>
<glyph name="w" format="2">
	<unicode hex="0077"/>
	<advance width="600"/>
	<outline>
		<contour>
			<point x="31" y="0" type="line"/>
			<point x="192" y="0" type="line"/>
			<point x="258" y="179" type="line" smooth="yes"/>
			<point x="278" y="237"/>
			<point x="286" y="269"/>
			<point x="301" y="322" type="curve"/>
			<point x="305" y="322" type="line"/>
			<point x="302" y="269"/>
			<point x="297" y="227"/>
			<point x="296" y="181" type="curve" smooth="yes"/>
			<point x="292" y="0" type="line"/>
			<point x="447" y="0" type="line"/>
			<point x="625" y="496" type="line"/>
			<point x="499" y="496" type="line"/>
			<point x="423" y="255" type="line" smooth="yes"/>
			<point x="408" y="206"/>
			<point x="395" y="159"/>
			<point x="378" y="109" type="curve"/>
			<point x="374" y="109" type="line"/>
			<point x="377" y="159"/>
			<point x="378" y="206"/>
			<point x="378" y="256" type="curve" smooth="yes"/>
			<point x="376" y="435" type="line"/>
			<point x="276" y="435" type="line"/>
			<point x="205" y="256" type="line" smooth="yes"/>
			<point x="185" y="208"/>
			<point x="169" y="159"/>
			<point x="153" y="109" type="curve"/>
			<point x="149" y="109" type="line"/>
			<point x="152" y="159"/>
			<point x="157" y="206"/>
			<point x="161" y="255" type="curve" smooth="yes"/>
			<point x="178" y="496" type="line"/>
			<point x="47" y="496" type="line"/>
		</contour>
	</outline>
	<anchor name="aboveLC" x="330" y="519"/>
	<anchor name="belowLC" x="240" y="-20"/>
</glyph>
<glyph name="x" format="1">
	<unicode hex="0078"/>
	<advance width="600"/>
	<outline>
		<contour>
			<point x="-14" y="0" type="line"/>
			<point x="139" y="0" type="line"/>
			<point x="209" y="89" type="line"/>
			<point x="223" y="108"/>
			<point x="251" y="145"/>
			<point x="268" y="168" type="curve"/>
			<point x="274" y="168" type="line"/>
			<point x="284" y="145"/>
			<point x="301" y="108"/>
			<point x="310" y="89" type="curve"/>
			<point x="353" y="0" type="line"/>
			<point x="494" y="0" type="line"/>
			<point x="366" y="247" type="line"/>
			<point x="583" y="496" type="line"/>
			<point x="430" y="496" type="line"/>
			<point x="364" y="409" type="line"/>
			<point x="353" y="393"/>
			<point x="320" y="343"/>
			<point x="310" y="326" type="curve"/>
			<point x="306" y="326" type="line"/>
			<point x="300" y="345"/>
			<point x="281" y="390"/>
			<point x="273" y="409" type="curve"/>
			<point x="232" y="496" type="line"/>
			<point x="95" y="496" type="line"/>
			<point x="211" y="257" type="line"/>
		</contour>
		<contour>
			<point name="aboveLC" x="330" y="516" type="move"/>
		</contour>
		<contour>
			<point name="baseLC" x="422" y="0" type="move"/>
		</contour>
		<contour>
			<point name="belowLC" x="245" y="-20" type="move"/>
		</contour>
	</outline>
</glyph>
<glyph name="y" format="1">
	<unicode hex="0079"/>
	<advance width="600"/>
	<outline>
		<contour>
			<point x="44" y="-194" type="curve" smooth="yes"/>
			<point x="159" y="-194"/>
			<point x="235" y="-138"/>
			<point x="307" y="-14" type="curve" smooth="yes"/>
			<point x="604" y="496" type="line"/>
			<point x="465" y="496" type="line"/>
			<point x="347" y="280" type="line" smooth="yes"/>
			<point x="322" y="232"/>
			<point x="289" y="166"/>
			<point x="269" y="124" type="curve"/>
			<point x="265" y="124" type="line"/>
			<point x="260" y="166"/>
			<point x="251" y="232"/>
			<point x="243" y="280" type="curve" smooth="yes"/>
			<point x="202" y="496" type="line"/>
			<point x="70" y="496" type="line"/>
			<point x="183" y="2" type="line"/>
			<point x="165" y="-27" type="line" smooth="yes"/>
			<point x="138" y="-72"/>
			<point x="105" y="-92"/>
			<point x="52" y="-92" type="curve" smooth="yes"/>
			<point x="32" y="-92"/>
			<point x="6" y="-85"/>
			<point x="-10" y="-77" type="curve"/>
			<point x="-48" y="-170" type="line"/>
			<point x="-28" y="-183"/>
			<point x="8" y="-194"/>
		</contour>
		<contour>
			<point name="ogonekLC" x="96" y="-166" type="move"/>
		</contour>
		<contour>
			<point name="aboveLC" x="330" y="516" type="move"/>
		</contour>
		<contour>
			<point name="belowLC" x="195" y="-205" type="move"/>
		</contour>
	</outline>
</glyph>
<glyph name="z" format="2">
	<unicode hex="007A"/>
	<advance width="600"/>
	<outline>
		<contour>
			<point x="23" y="0" type="line"/>
			<point x="470" y="0" type="line"/>
			<point x="490" y="107" type="line"/>
			<point x="222" y="107" type="line"/>
			<point x="538" y="416" type="line"/>
			<point x="553" y="496" type="line"/>
			<point x="122" y="496" type="line"/>
			<point x="99" y="391" type="line"/>
			<point x="356" y="391" type="line"/>
			<point x="38" y="81" type="line"/>
		</contour>
	</outline>
	<anchor name="aboveLC" x="338" y="516"/>
	<anchor name="baseLC" x="274" y="0"/>
	<anchor name="belowLC" x="260" y="-20"/>
</glyph>
<glyph name="sterling" format="2">
	<unicode hex="00A3"/>
	<advance width="600"/>
	<outline>
		<contour>
			<point x="15" y="0" type="line"/>
			<point x="457" y="0" type="line"/>
			<point x="478" y="115" type="line"/>
			<point x="220" y="115" type="line"/>
			<point x="222" y="119" type="line"/>
			<point x="278" y="169"/>
			<point x="303" y="218"/>
			<point x="303" y="297" type="curve" smooth="yes"/>
			<point x="303" y="330"/>
			<point x="295" y="373"/>
			<point x="295" y="405" type="curve" smooth="yes"/>
			<point x="295" y="504"/>
			<point x="337" y="537"/>
			<point x="394" y="537" type="curve" smooth="yes"/>
			<point x="430" y="537"/>
			<point x="461" y="518"/>
			<point x="484" y="487" type="curve"/>
			<point x="571" y="559" type="line"/>
			<point x="533" y="612"/>
			<point x="468" y="647"/>
			<point x="394" y="647" type="curve" smooth="yes"/>
			<point x="262" y="647"/>
			<point x="169" y="564"/>
			<point x="169" y="424" type="curve" smooth="yes"/>
			<point x="169" y="382"/>
			<point x="179" y="323"/>
			<point x="179" y="281" type="curve" smooth="yes"/>
			<point x="179" y="192"/>
			<point x="122" y="122"/>
			<point x="32" y="84" type="curve"/>
		</contour>
		<contour>
			<point x="67" y="275" type="line"/>
			<point x="449" y="275" type="line"/>
			<point x="465" y="357" type="line"/>
			<point x="174" y="357" type="line"/>
			<point x="83" y="351" type="line"/>
		</contour>
	</outline>
</glyph>
<glyph name="registered" format="1">
	<unicode hex="00AE"/>
	<advance width="600"/>
	<outline>
		<contour>
			<point x="308" y="313" type="curve" smooth="yes"/>
			<point x="450" y="313"/>
			<point x="549" y="414"/>
			<point x="549" y="549" type="curve" smooth="yes"/>
			<point x="549" y="647"/>
			<point x="482" y="715"/>
			<point x="388" y="715" type="curve" smooth="yes"/>
			<point x="249" y="715"/>
			<point x="147" y="613"/>
			<point x="147" y="478" type="curve" smooth="yes"/>
			<point x="147" y="381"/>
			<point x="213" y="313"/>
		</contour>
		<contour>
			<point x="317" y="358" type="curve" smooth="yes"/>
			<point x="245" y="358"/>
			<point x="199" y="407"/>
			<point x="199" y="482" type="curve" smooth="yes"/>
			<point x="199" y="591"/>
			<point x="280" y="671"/>
			<point x="379" y="671" type="curve" smooth="yes"/>
			<point x="450" y="671"/>
			<point x="496" y="621"/>
			<point x="496" y="545" type="curve" smooth="yes"/>
			<point x="496" y="436"/>
			<point x="417" y="358"/>
		</contour>
		<contour>
			<point x="249" y="416" type="line"/>
			<point x="304" y="416" type="line"/>
			<point x="336" y="579" type="line"/>
			<point x="325" y="574" type="line"/>
			<point x="357" y="574" type="line" smooth="yes"/>
			<point x="376" y="574"/>
			<point x="385" y="564"/>
			<point x="385" y="550" type="curve" smooth="yes"/>
			<point x="385" y="532"/>
			<point x="370" y="516"/>
			<point x="345" y="516" type="curve" smooth="yes"/>
			<point x="309" y="516" type="line"/>
			<point x="304" y="478" type="line"/>
			<point x="339" y="478" type="line" smooth="yes"/>
			<point x="403" y="478"/>
			<point x="444" y="510"/>
			<point x="444" y="557" type="curve" smooth="yes"/>
			<point x="444" y="598"/>
			<point x="415" y="614"/>
			<point x="375" y="614" type="curve" smooth="yes"/>
			<point x="289" y="614" type="line"/>
		</contour>
		<contour>
			<point x="337" y="483" type="line"/>
			<point x="366" y="416" type="line"/>
			<point x="423" y="416" type="line"/>
			<point x="388" y="494" type="line"/>
		</contour>
	</outline>
</glyph>
<glyph name="degree" format="1">
	<unicode hex="00B0"/>
	<advance width="600"/>
	<outline>
		<contour>
			<point x="317" y="404" type="curve" smooth="yes"/>
			<point x="414" y="404"/>
			<point x="489" y="471"/>
			<point x="489" y="570" type="curve" smooth="yes"/>
			<point x="489" y="638"/>
			<point x="445" y="686"/>
			<point x="371" y="686" type="curve" smooth="yes"/>
			<point x="277" y="686"/>
			<point x="201" y="619"/>
			<point x="201" y="520" type="curve" smooth="yes"/>
			<point x="201" y="451"/>
			<point x="250" y="404"/>
		</contour>
		<contour>
			<point x="330" y="468" type="curve" smooth="yes"/>
			<point x="295" y="468"/>
			<point x="274" y="493"/>
			<point x="274" y="530" type="curve" smooth="yes"/>
			<point x="274" y="580"/>
			<point x="312" y="624"/>
			<point x="361" y="624" type="curve" smooth="yes"/>
			<point x="397" y="624"/>
			<point x="416" y="599"/>
			<point x="416" y="561" type="curve" smooth="yes"/>
			<point x="416" y="510"/>
			<point x="379" y="468"/>
		</contour>
	</outline>
</glyph>
<glyph name="Eth" format="2">
	<unicode hex="00D0"/>
	<advance width="600"/>
	<outline>
		<contour>
			<point x="327" y="304" type="line"/>
			<point x="343" y="374" type="line"/>
			<point x="93" y="374" type="line"/>
			<point x="19" y="369" type="line"/>
			<point x="5" y="304" type="line"/>
		</contour>
		<component base="D" xOffset="4"/>
	</outline>
	<anchor name="aboveUC" x="368" y="672"/>
	<anchor name="belowLC" x="228" y="-20"/>
</glyph>
<glyph name="multiply" format="1">
	<unicode hex="00D7"/>
	<advance width="600"/>
	<outline>
		<contour>
			<point x="156" y="114" type="line"/>
			<point x="300" y="260" type="line"/>
			<point x="444" y="114" type="line"/>
			<point x="513" y="184" type="line"/>
			<point x="369" y="329" type="line"/>
			<point x="513" y="475" type="line"/>
			<point x="444" y="545" type="line"/>
			<point x="300" y="398" type="line"/>
			<point x="156" y="545" type="line"/>
			<point x="87" y="475" type="line"/>
			<point x="231" y="329" type="line"/>
			<point x="87" y="184" type="line"/>
		</contour>
	</outline>
</glyph>
<glyph name="Oslash" format="2">
	<unicode hex="00D8"/>
	<advance width="600"/>
	<outline>
		<contour>
			<point x="251" y="-12" type="curve" smooth="yes"/>
			<point x="444" y="-12"/>
			<point x="576" y="174"/>
			<point x="576" y="398" type="curve" smooth="yes"/>
			<point x="576" y="563"/>
			<point x="492" y="664"/>
			<point x="357" y="664" type="curve" smooth="yes"/>
			<point x="164" y="664"/>
			<point x="30" y="478"/>
			<point x="30" y="253" type="curve" smooth="yes"/>
			<point x="30" y="89"/>
			<point x="116" y="-12"/>
		</contour>
		<contour>
			<point x="265" y="106" type="curve" smooth="yes"/>
			<point x="201" y="106"/>
			<point x="166" y="151"/>
			<point x="166" y="263" type="curve" smooth="yes"/>
			<point x="166" y="404"/>
			<point x="242" y="545"/>
			<point x="344" y="545" type="curve" smooth="yes"/>
			<point x="407" y="545"/>
			<point x="441" y="501"/>
			<point x="441" y="389" type="curve" smooth="yes"/>
			<point x="441" y="248"/>
			<point x="366" y="106"/>
		</contour>
		<contour>
			<point x="41" y="-41" type="line"/>
			<point x="633" y="643" type="line"/>
			<point x="567" y="693" type="line"/>
			<point x="-24" y="9" type="line"/>
		</contour>
	</outline>
	<anchor name="aboveUC" x="370" y="672"/>
	<anchor name="baseLC" x="238" y="0"/>
</glyph>
<glyph name="Thorn" format="2">
	<unicode hex="00DE"/>
	<advance width="600"/>
	<outline>
		<contour>
			<point x="18" y="0" type="line"/>
			<point x="155" y="0" type="line"/>
			<point x="179" y="126" type="line"/>
			<point x="261" y="126" type="line" smooth="yes"/>
			<point x="425" y="126"/>
			<point x="564" y="196"/>
			<point x="564" y="378" type="curve" smooth="yes"/>
			<point x="564" y="503"/>
			<point x="473" y="551"/>
			<point x="355" y="551" type="curve" smooth="yes"/>
			<point x="265" y="551" type="line"/>
			<point x="286" y="652" type="line"/>
			<point x="148" y="652" type="line"/>
		</contour>
		<contour>
			<point x="202" y="234" type="line"/>
			<point x="242" y="442" type="line"/>
			<point x="326" y="442" type="line" smooth="yes"/>
			<point x="391" y="442"/>
			<point x="428" y="416"/>
			<point x="428" y="358" type="curve" smooth="yes"/>
			<point x="428" y="276"/>
			<point x="373" y="234"/>
			<point x="275" y="234" type="curve" smooth="yes"/>
		</contour>
	</outline>
</glyph>
<glyph name="germandbls" format="1">
	<unicode hex="00DF"/>
	<advance width="600"/>
	<outline>
		<contour>
			<point x="354" y="-12" type="curve" smooth="yes"/>
			<point x="470" y="-12"/>
			<point x="544" y="64"/>
			<point x="544" y="162" type="curve"/>
			<point x="544" y="279"/>
			<point x="422" y="309"/>
			<point x="422" y="365" type="curve" smooth="yes"/>
			<point x="422" y="425"/>
			<point x="526" y="451"/>
			<point x="526" y="563" type="curve" smooth="yes"/>
			<point x="526" y="667"/>
			<point x="443" y="713"/>
			<point x="347" y="713" type="curve" smooth="yes"/>
			<point x="214" y="713"/>
			<point x="131" y="625"/>
			<point x="107" y="504" type="curve" smooth="yes"/>
			<point x="6" y="0" type="line"/>
			<point x="143" y="0" type="line"/>
			<point x="237" y="477" type="line" smooth="yes"/>
			<point x="253" y="558"/>
			<point x="288" y="604"/>
			<point x="341" y="604" type="curve" smooth="yes"/>
			<point x="379" y="604"/>
			<point x="394" y="582"/>
			<point x="394" y="545" type="curve" smooth="yes"/>
			<point x="394" y="458"/>
			<point x="288" y="431"/>
			<point x="288" y="339" type="curve"/>
			<point x="288" y="239"/>
			<point x="417" y="215"/>
			<point x="417" y="148" type="curve"/>
			<point x="417" y="113"/>
			<point x="388" y="90"/>
			<point x="350" y="90" type="curve" smooth="yes"/>
			<point x="312" y="90"/>
			<point x="288" y="105"/>
			<point x="261" y="128" type="curve"/>
			<point x="205" y="36" type="line"/>
			<point x="250" y="1"/>
			<point x="302" y="-12"/>
		</contour>
	</outline>
</glyph>
<glyph name="ae" format="2">
	<unicode hex="00E6"/>
	<advance width="600"/>
	<outline>
		<contour>
			<point x="101" y="-12" type="curve" smooth="yes"/>
			<point x="165" y="-12"/>
			<point x="219" y="20"/>
			<point x="273" y="81" type="curve"/>
			<point x="238" y="145" type="line"/>
			<point x="212" y="116"/>
			<point x="174" y="92"/>
			<point x="144" y="92" type="curve" smooth="yes"/>
			<point x="120" y="92"/>
			<point x="105" y="106"/>
			<point x="105" y="134" type="curve" smooth="yes"/>
			<point x="105" y="184"/>
			<point x="146" y="219"/>
			<point x="254" y="236" type="curve"/>
			<point x="263" y="318" type="line"/>
			<point x="68" y="290"/>
			<point x="-19" y="227"/>
			<point x="-19" y="105" type="curve" smooth="yes"/>
			<point x="-19" y="38"/>
			<point x="21" y="-12"/>
		</contour>
		<contour>
			<point x="313" y="210" type="line"/>
			<point x="570" y="210" type="line"/>
			<point x="580" y="232"/>
			<point x="596" y="280"/>
			<point x="596" y="347" type="curve" smooth="yes"/>
			<point x="596" y="432"/>
			<point x="560" y="508"/>
			<point x="476" y="508" type="curve" smooth="yes"/>
			<point x="420" y="508"/>
			<point x="365" y="481"/>
			<point x="322" y="421" type="curve"/>
			<point x="341" y="414" type="line"/>
			<point x="332" y="469"/>
			<point x="292" y="508"/>
			<point x="232" y="508" type="curve" smooth="yes"/>
			<point x="158" y="508"/>
			<point x="96" y="481"/>
			<point x="47" y="444" type="curve"/>
			<point x="93" y="365" type="line"/>
			<point x="128" y="387"/>
			<point x="161" y="401"/>
			<point x="198" y="401" type="curve" smooth="yes"/>
			<point x="243" y="401"/>
			<point x="259" y="362"/>
			<point x="248" y="311" type="curve" smooth="yes"/>
			<point x="237" y="266"/>
			<point x="226" y="226"/>
			<point x="226" y="159" type="curve" smooth="yes"/>
			<point x="226" y="66"/>
			<point x="283" y="-12"/>
			<point x="395" y="-12" type="curve" smooth="yes"/>
			<point x="441" y="-12"/>
			<point x="499" y="7"/>
			<point x="539" y="39" type="curve"/>
			<point x="501" y="124" type="line"/>
			<point x="468" y="101"/>
			<point x="440" y="93"/>
			<point x="407" y="93" type="curve" smooth="yes"/>
			<point x="360" y="93"/>
			<point x="334" y="125"/>
			<point x="334" y="180" type="curve" smooth="yes"/>
			<point x="334" y="303"/>
			<point x="386" y="403"/>
			<point x="448" y="403" type="curve" smooth="yes"/>
			<point x="478" y="403"/>
			<point x="491" y="379"/>
			<point x="491" y="342" type="curve" smooth="yes"/>
			<point x="491" y="323"/>
			<point x="488" y="302"/>
			<point x="483" y="281" type="curve"/>
			<point x="504" y="298" type="line"/>
			<point x="314" y="298" type="line"/>
		</contour>
	</outline>
	<anchor name="aboveLC" x="340" y="516"/>
	<anchor name="baseLC" x="384" y="0"/>
	<anchor name="belowLC" x="252" y="-20"/>
</glyph>
<glyph name="eth" format="1">
	<unicode hex="00F0"/>
	<advance width="600"/>
	<outline>
		<contour>
			<point x="241" y="-12" type="curve" smooth="yes"/>
			<point x="425" y="-12"/>
			<point x="554" y="114"/>
			<point x="554" y="339" type="curve" smooth="yes"/>
			<point x="554" y="537"/>
			<point x="439" y="679"/>
			<point x="276" y="749" type="curve"/>
			<point x="218" y="653" type="line"/>
			<point x="354" y="583"/>
			<point x="423" y="495"/>
			<point x="423" y="343" type="curve" smooth="yes"/>
			<point x="423" y="180"/>
			<point x="350" y="98"/>
			<point x="254" y="98" type="curve" smooth="yes"/>
			<point x="194" y="98"/>
			<point x="158" y="135"/>
			<point x="158" y="203" type="curve" smooth="yes"/>
			<point x="158" y="284"/>
			<point x="214" y="353"/>
			<point x="304" y="353" type="curve" smooth="yes"/>
			<point x="359" y="353"/>
			<point x="399" y="332"/>
			<point x="429" y="285" type="curve"/>
			<point x="440" y="359" type="line"/>
			<point x="420" y="407"/>
			<point x="371" y="452"/>
			<point x="279" y="452" type="curve" smooth="yes"/>
			<point x="147" y="452"/>
			<point x="26" y="354"/>
			<point x="26" y="194" type="curve" smooth="yes"/>
			<point x="26" y="58"/>
			<point x="122" y="-12"/>
		</contour>
		<contour>
			<point x="216" y="486" type="line"/>
			<point x="591" y="661" type="line"/>
			<point x="565" y="726" type="line"/>
			<point x="189" y="550" type="line"/>
		</contour>
		<contour>
			<point name="aboveUC" x="423" y="732" type="move"/>
		</contour>
		<contour>
			<point name="belowLC" x="256" y="-20" type="move"/>
		</contour>
	</outline>
</glyph>
<glyph name="divide" format="1">
	<unicode hex="00F7"/>
	<advance width="600"/>
	<outline>
		<contour>
			<point x="300" y="436" type="curve" smooth="yes"/>
			<point x="343" y="436"/>
			<point x="377" y="467"/>
			<point x="377" y="510" type="curve" smooth="yes"/>
			<point x="377" y="553"/>
			<point x="343" y="583"/>
			<point x="300" y="583" type="curve" smooth="yes"/>
			<point x="257" y="583"/>
			<point x="223" y="553"/>
			<point x="223" y="510" type="curve" smooth="yes"/>
			<point x="223" y="467"/>
			<point x="257" y="436"/>
		</contour>
		<contour>
			<point x="300" y="76" type="curve" smooth="yes"/>
			<point x="343" y="76"/>
			<point x="377" y="107"/>
			<point x="377" y="150" type="curve" smooth="yes"/>
			<point x="377" y="193"/>
			<point x="343" y="223"/>
			<point x="300" y="223" type="curve" smooth="yes"/>
			<point x="257" y="223"/>
			<point x="223" y="193"/>
			<point x="223" y="150" type="curve" smooth="yes"/>
			<point x="223" y="107"/>
			<point x="257" y="76"/>
		</contour>
		<contour>
			<point x="73" y="282" type="line"/>
			<point x="527" y="282" type="line"/>
			<point x="527" y="378" type="line"/>
			<point x="73" y="378" type="line"/>
		</contour>
	</outline>
</glyph>
<glyph name="dcroat" format="2">
	<unicode hex="0111"/>
	<advance width="600"/>
	<outline>
		<contour>
			<point x="187" y="-12" type="curve" smooth="yes"/>
			<point x="243" y="-12"/>
			<point x="303" y="18"/>
			<point x="350" y="68" type="curve"/>
			<point x="354" y="68" type="line"/>
			<point x="352" y="0" type="line"/>
			<point x="464" y="0" type="line"/>
			<point x="604" y="700" type="line"/>
			<point x="468" y="700" type="line"/>
			<point x="433" y="522" type="line"/>
			<point x="421" y="428" type="line"/>
			<point x="419" y="428" type="line"/>
			<point x="394" y="464"/>
			<point x="353" y="488"/>
			<point x="288" y="488" type="curve" smooth="yes"/>
			<point x="141" y="488"/>
			<point x="25" y="350"/>
			<point x="25" y="180" type="curve" smooth="yes"/>
			<point x="25" y="57"/>
			<point x="88" y="-12"/>
		</contour>
		<contour>
			<point x="238" y="100" type="curve" smooth="yes"/>
			<point x="195" y="100"/>
			<point x="166" y="130"/>
			<point x="166" y="198" type="curve" smooth="yes"/>
			<point x="166" y="299"/>
			<point x="226" y="376"/>
			<point x="312" y="376" type="curve" smooth="yes"/>
			<point x="340" y="376"/>
			<point x="374" y="362"/>
			<point x="394" y="329" type="curve"/>
			<point x="362" y="176" type="line"/>
			<point x="323" y="123"/>
			<point x="276" y="100"/>
		</contour>
		<contour>
			<point x="283" y="557" type="line"/>
			<point x="568" y="557" type="line"/>
			<point x="644" y="563" type="line"/>
			<point x="657" y="627" type="line"/>
			<point x="296" y="627" type="line"/>
		</contour>
	</outline>
</glyph>
<glyph name="eogonek" format="2">
	<unicode hex="0119"/>
	<advance width="600"/>
	<outline>
		<contour>
			<point x="329" y="-227" type="curve" smooth="yes"/>
			<point x="374" y="-227"/>
			<point x="414" y="-212"/>
			<point x="444" y="-189" type="curve"/>
			<point x="420" y="-133" type="line"/>
			<point x="404" y="-142"/>
			<point x="393" y="-145"/>
			<point x="378" y="-145" type="curve" smooth="yes"/>
			<point x="352" y="-145"/>
			<point x="329" y="-131"/>
			<point x="329" y="-103" type="curve" smooth="yes"/>
			<point x="329" y="-57"/>
			<point x="387" y="-9"/>
			<point x="493" y="54" type="curve"/>
			<point x="447" y="145" type="line"/>
			<point x="402" y="115"/>
			<point x="355" y="93"/>
			<point x="299" y="93" type="curve" smooth="yes"/>
			<point x="235" y="93"/>
			<point x="183" y="124"/>
			<point x="183" y="214" type="curve" smooth="yes"/>
			<point x="183" y="341"/>
			<point x="267" y="403"/>
			<point x="330" y="403" type="curve" smooth="yes"/>
			<point x="379" y="403"/>
			<point x="410" y="373"/>
			<point x="410" y="316" type="curve" smooth="yes"/>
			<point x="410" y="303"/>
			<point x="408" y="289"/>
			<point x="404" y="278" type="curve"/>
			<point x="444" y="298" type="line"/>
			<point x="164" y="298" type="line"/>
			<point x="149" y="210" type="line"/>
			<point x="519" y="210" type="line"/>
			<point x="525" y="226"/>
			<point x="536" y="272"/>
			<point x="536" y="313" type="curve" smooth="yes"/>
			<point x="536" y="428"/>
			<point x="463" y="508"/>
			<point x="334" y="508" type="curve" smooth="yes"/>
			<point x="182" y="508"/>
			<point x="46" y="387"/>
			<point x="46" y="208" type="curve" smooth="yes"/>
			<point x="46" y="58"/>
			<point x="140" y="-12"/>
			<point x="267" y="-12" type="curve" smooth="yes"/>
			<point x="282" y="-12"/>
			<point x="304" y="-9"/>
			<point x="318" y="-6" type="curve"/>
			<point x="276" y="-38"/>
			<point x="230" y="-82"/>
			<point x="230" y="-142" type="curve" smooth="yes"/>
			<point x="230" y="-199"/>
			<point x="272" y="-227"/>
		</contour>
	</outline>
</glyph>
<glyph name="Hbar" format="1">
	<unicode hex="0126"/>
	<advance width="600"/>
	<outline>
		<contour>
			<point x="39" y="485" type="line"/>
			<point x="629" y="485" type="line"/>
			<point x="645" y="556" type="line"/>
			<point x="118" y="556" type="line"/>
			<point x="51" y="550" type="line"/>
		</contour>
		<component base="H"/>
	</outline>
</glyph>
<glyph name="hbar" format="1">
	<unicode hex="0127"/>
	<advance width="600"/>
	<outline>
		<contour>
			<point x="18" y="0" type="line"/>
			<point x="154" y="0" type="line"/>
			<point x="210" y="281" type="line"/>
			<point x="256" y="339"/>
			<point x="308" y="370"/>
			<point x="350" y="370" type="curve" smooth="yes"/>
			<point x="383" y="370"/>
			<point x="401" y="353"/>
			<point x="401" y="319" type="curve" smooth="yes"/>
			<point x="401" y="305"/>
			<point x="398" y="288"/>
			<point x="394" y="268" type="curve" smooth="yes"/>
			<point x="340" y="0" type="line"/>
			<point x="476" y="0" type="line"/>
			<point x="534" y="285" type="line" smooth="yes"/>
			<point x="539" y="309"/>
			<point x="542" y="335"/>
			<point x="542" y="359" type="curve" smooth="yes"/>
			<point x="542" y="442"/>
			<point x="496" y="486"/>
			<point x="414" y="486" type="curve" smooth="yes"/>
			<point x="346" y="486"/>
			<point x="279" y="445"/>
			<point x="230" y="393" type="curve"/>
			<point x="226" y="393" type="line"/>
			<point x="249" y="473" type="line"/>
			<point x="295" y="700" type="line"/>
			<point x="158" y="700" type="line"/>
		</contour>
		<contour>
			<point x="60" y="557" type="line"/>
			<point x="452" y="557" type="line"/>
			<point x="465" y="627" type="line"/>
			<point x="151" y="627" type="line"/>
			<point x="72" y="621" type="line"/>
		</contour>
	</outline>
</glyph>
<glyph name="ij" format="1">
	<unicode hex="0133"/>
	<advance width="600"/>
	<outline>
		<contour>
			<point x="21" y="0" type="line"/>
			<point x="158" y="0" type="line"/>
			<point x="257" y="496" type="line"/>
			<point x="121" y="496" type="line"/>
		</contour>
		<contour>
			<point x="216" y="570" type="curve" smooth="yes"/>
			<point x="271" y="570"/>
			<point x="316" y="611"/>
			<point x="316" y="665" type="curve" smooth="yes"/>
			<point x="316" y="716"/>
			<point x="279" y="743"/>
			<point x="229" y="743" type="curve" smooth="yes"/>
			<point x="173" y="743"/>
			<point x="129" y="699"/>
			<point x="129" y="648" type="curve" smooth="yes"/>
			<point x="129" y="596"/>
			<point x="171" y="570"/>
		</contour>
		<contour>
			<point x="265" y="-196" type="curve" smooth="yes"/>
			<point x="378" y="-196"/>
			<point x="428" y="-116"/>
			<point x="449" y="-16" type="curve" smooth="yes"/>
			<point x="552" y="496" type="line"/>
			<point x="416" y="496" type="line"/>
			<point x="314" y="-10" type="line" smooth="yes"/>
			<point x="302" y="-64"/>
			<point x="287" y="-88"/>
			<point x="254" y="-88" type="curve" smooth="yes"/>
			<point x="238" y="-88"/>
			<point x="224" y="-83"/>
			<point x="211" y="-75" type="curve"/>
			<point x="169" y="-174" type="line"/>
			<point x="201" y="-190"/>
			<point x="230" y="-196"/>
		</contour>
		<contour>
			<point x="509" y="570" type="curve" smooth="yes"/>
			<point x="565" y="570"/>
			<point x="610" y="611"/>
			<point x="610" y="665" type="curve" smooth="yes"/>
			<point x="610" y="716"/>
			<point x="573" y="743"/>
			<point x="522" y="743" type="curve" smooth="yes"/>
			<point x="467" y="743"/>
			<point x="422" y="699"/>
			<point x="422" y="648" type="curve" smooth="yes"/>
			<point x="422" y="596"/>
			<point x="465" y="570"/>
		</contour>
	</outline>
</glyph>
<glyph name="kgreenlandic" format="2">
	<unicode hex="0138"/>
	<advance width="600"/>
	<outline>
		<contour>
			<point x="21" y="0" type="line"/>
			<point x="158" y="0" type="line"/>
			<point x="181" y="118" type="line"/>
			<point x="342" y="253" type="line"/>
			<point x="609" y="496" type="line"/>
			<point x="450" y="496" type="line"/>
			<point x="219" y="291" type="line"/>
			<point x="215" y="291" type="line"/>
			<point x="255" y="496" type="line"/>
			<point x="119" y="496" type="line"/>
		</contour>
		<contour>
			<point x="283" y="229" type="line"/>
			<point x="387" y="0" type="line"/>
			<point x="524" y="0" type="line"/>
			<point x="370" y="322" type="line"/>
		</contour>
	</outline>
</glyph>
<glyph name="Lslash" format="1">
	<unicode hex="0141"/>
	<advance width="600"/>
	<outline>
		<contour>
			<point x="41" y="174" type="line"/>
			<point x="142" y="223" type="line"/>
			<point x="241" y="269" type="line"/>
			<point x="507" y="400" type="line"/>
			<point x="474" y="488" type="line"/>
			<point x="264" y="383" type="line"/>
			<point x="164" y="337" type="line"/>
			<point x="8" y="262" type="line"/>
		</contour>
		<component base="L"/>
		<contour>
			<point name="aboveUC" x="268" y="672" type="move"/>
		</contour>
		<contour>
			<point name="belowLC" x="287" y="-20" type="move"/>
		</contour>
	</outline>
</glyph>
<glyph name="lslash" format="1">
	<unicode hex="0142"/>
	<advance width="600"/>
	<outline>
		<contour>
			<point x="107" y="237" type="line"/>
			<point x="215" y="291" type="line"/>
			<point x="335" y="342" type="line"/>
			<point x="549" y="449" type="line"/>
			<point x="516" y="530" type="line"/>
			<point x="358" y="450" type="line"/>
			<point x="238" y="399" type="line"/>
			<point x="75" y="318" type="line"/>
		</contour>
		<component base="l"/>
		<contour>
			<point name="aboveUC" x="357" y="732" type="move"/>
		</contour>
		<contour>
			<point name="belowLC" x="314" y="-20" type="move"/>
		</contour>
	</outline>
</glyph>
<glyph name="eng" format="1">
	<unicode hex="014B"/>
	<advance width="600"/>
	<outline>
		<contour>
			<point x="288" y="-187" type="curve" smooth="yes"/>
			<point x="402" y="-187"/>
			<point x="452" y="-110"/>
			<point x="473" y="-8" type="curve" smooth="yes"/>
			<point x="536" y="306" type="line" smooth="yes"/>
			<point x="541" y="331"/>
			<point x="544" y="357"/>
			<point x="544" y="381" type="curve" smooth="yes"/>
			<point x="544" y="463"/>
			<point x="499" y="508"/>
			<point x="416" y="508" type="curve" smooth="yes"/>
			<point x="345" y="508"/>
			<point x="272" y="460"/>
			<point x="222" y="411" type="curve"/>
			<point x="218" y="411" type="line"/>
			<point x="224" y="496" type="line"/>
			<point x="113" y="496" type="line"/>
			<point x="16" y="0" type="line"/>
			<point x="153" y="0" type="line"/>
			<point x="212" y="303" type="line"/>
			<point x="258" y="361"/>
			<point x="310" y="391"/>
			<point x="352" y="391" type="curve" smooth="yes"/>
			<point x="385" y="391"/>
			<point x="403" y="375"/>
			<point x="403" y="341" type="curve" smooth="yes"/>
			<point x="403" y="326"/>
			<point x="400" y="310"/>
			<point x="396" y="290" type="curve" smooth="yes"/>
			<point x="338" y="-2" type="line" smooth="yes"/>
			<point x="325" y="-57"/>
			<point x="311" y="-78"/>
			<point x="277" y="-78" type="curve" smooth="yes"/>
			<point x="261" y="-78"/>
			<point x="248" y="-74"/>
			<point x="234" y="-66" type="curve"/>
			<point x="193" y="-164" type="line"/>
			<point x="225" y="-180"/>
			<point x="254" y="-187"/>
		</contour>
		<contour>
			<point name="aboveLC" x="353" y="516" type="move"/>
		</contour>
	</outline>
</glyph>
<glyph name="Tbar" format="2">
	<unicode hex="0166"/>
	<advance width="600"/>
	<outline>
		<contour>
			<point x="95" y="293" type="line"/>
			<point x="497" y="293" type="line"/>
			<point x="512" y="363" type="line"/>
			<point x="181" y="363" type="line"/>
			<point x="108" y="357" type="line"/>
		</contour>
		<component base="T"/>
	</outline>
	<anchor name="aboveUC" x="371" y="672"/>
	<anchor name="belowLC" x="236" y="-20"/>
</glyph>
<glyph name="tbar" format="2">
	<unicode hex="0167"/>
	<advance width="600"/>
	<outline>
		<contour>
			<point x="31" y="220" type="line"/>
			<point x="497" y="220" type="line"/>
			<point x="512" y="291" type="line"/>
			<point x="171" y="291" type="line"/>
			<point x="44" y="286" type="line"/>
		</contour>
		<component base="t"/>
	</outline>
</glyph>
<glyph name="bstroke" format="1">
	<unicode hex="0180"/>
	<advance width="600"/>
	<outline>
		<contour>
			<point x="287" y="-12" type="curve" smooth="yes"/>
			<point x="427" y="-12"/>
			<point x="552" y="126"/>
			<point x="552" y="303" type="curve" smooth="yes"/>
			<point x="552" y="422"/>
			<point x="492" y="488"/>
			<point x="387" y="488" type="curve" smooth="yes"/>
			<point x="334" y="488"/>
			<point x="275" y="460"/>
			<point x="230" y="416" type="curve"/>
			<point x="228" y="416" type="line"/>
			<point x="257" y="522" type="line"/>
			<point x="293" y="700" type="line"/>
			<point x="156" y="700" type="line"/>
			<point x="16" y="0" type="line"/>
			<point x="129" y="0" type="line"/>
			<point x="150" y="53" type="line"/>
			<point x="152" y="53" type="line"/>
			<point x="178" y="14"/>
			<point x="231" y="-12"/>
		</contour>
		<contour>
			<point x="268" y="100" type="curve" smooth="yes"/>
			<point x="234" y="100"/>
			<point x="202" y="114"/>
			<point x="182" y="147" type="curve"/>
			<point x="212" y="295" type="line"/>
			<point x="251" y="352"/>
			<point x="297" y="376"/>
			<point x="334" y="376" type="curve" smooth="yes"/>
			<point x="379" y="376"/>
			<point x="410" y="348"/>
			<point x="410" y="285" type="curve" smooth="yes"/>
			<point x="410" y="179"/>
			<point x="343" y="100"/>
		</contour>
		<contour>
			<point x="60" y="557" type="line"/>
			<point x="451" y="557" type="line"/>
			<point x="464" y="627" type="line"/>
			<point x="150" y="627" type="line"/>
			<point x="73" y="621" type="line"/>
		</contour>
	</outline>
</glyph>
<glyph name="Dhook" format="2">
	<unicode hex="018A"/>
	<advance width="600"/>
	<outline>
		<contour>
			<point x="115" y="0" type="line"/>
			<point x="216" y="0" type="line" smooth="yes"/>
			<point x="439" y="0"/>
			<point x="600" y="165"/>
			<point x="600" y="429" type="curve" smooth="yes"/>
			<point x="600" y="588"/>
			<point x="498" y="665"/>
			<point x="331" y="665" type="curve" smooth="yes"/>
			<point x="117" y="665"/>
			<point x="11" y="531"/>
			<point x="11" y="393" type="curve" smooth="yes"/>
			<point x="11" y="327"/>
			<point x="39" y="284"/>
			<point x="88" y="257" type="curve"/>
			<point x="156" y="341" type="line"/>
			<point x="130" y="358"/>
			<point x="117" y="381"/>
			<point x="117" y="413" type="curve" smooth="yes"/>
			<point x="117" y="487"/>
			<point x="166" y="554"/>
			<point x="275" y="554" type="curve" smooth="yes"/>
			<point x="340" y="554" type="line" smooth="yes"/>
			<point x="425" y="554"/>
			<point x="460" y="512"/>
			<point x="460" y="420" type="curve" smooth="yes"/>
			<point x="460" y="220"/>
			<point x="344" y="110"/>
			<point x="265" y="110" type="curve" smooth="yes"/>
			<point x="259" y="110" type="line"/>
			<point x="355" y="590" type="line"/>
			<point x="231" y="590" type="line"/>
		</contour>
	</outline>
</glyph>
<glyph name="Schwa" format="1">
	<unicode hex="018F"/>
	<advance width="600"/>
	<outline>
		<contour>
			<point x="236" y="-12" type="curve" smooth="yes"/>
			<point x="427" y="-12"/>
			<point x="568" y="165"/>
			<point x="568" y="418" type="curve" smooth="yes"/>
			<point x="568" y="573"/>
			<point x="496" y="665"/>
			<point x="361" y="665" type="curve" smooth="yes"/>
			<point x="269" y="665"/>
			<point x="189" y="631"/>
			<point x="137" y="593" type="curve"/>
			<point x="192" y="500" type="line"/>
			<point x="229" y="525"/>
			<point x="276" y="550"/>
			<point x="332" y="550" type="curve" smooth="yes"/>
			<point x="399" y="550"/>
			<point x="433" y="498"/>
			<point x="433" y="407" type="curve" smooth="yes"/>
			<point x="433" y="223"/>
			<point x="353" y="100"/>
			<point x="256" y="100" type="curve" smooth="yes"/>
			<point x="196" y="100"/>
			<point x="165" y="157"/>
			<point x="180" y="267" type="curve"/>
			<point x="445" y="267" type="line"/>
			<point x="465" y="367" type="line"/>
			<point x="66" y="367" type="line"/>
			<point x="57" y="335"/>
			<point x="44" y="285"/>
			<point x="44" y="223" type="curve" smooth="yes"/>
			<point x="44" y="75"/>
			<point x="117" y="-12"/>
		</contour>
		<contour>
			<point name="aboveUC" x="363" y="672" type="move"/>
		</contour>
		<contour>
			<point name="ogonekUC" x="257" y="0" type="move"/>
		</contour>
		<contour>
			<point name="baseLC" x="257" y="0" type="move"/>
		</contour>
		<contour>
			<point name="belowLC" x="249" y="-20" type="move"/>
		</contour>
	</outline>
</glyph>
<glyph name="Ohorn" format="1">
	<unicode hex="01A0"/>
	<advance width="600"/>
	<outline>
		<contour>
			<point x="510" y="584" type="line"/>
			<point x="617" y="601"/>
			<point x="670" y="652"/>
			<point x="670" y="745" type="curve" smooth="yes"/>
			<point x="670" y="769"/>
			<point x="665" y="797"/>
			<point x="654" y="823" type="curve"/>
			<point x="551" y="791" type="line"/>
			<point x="558" y="774"/>
			<point x="562" y="749"/>
			<point x="562" y="734" type="curve" smooth="yes"/>
			<point x="562" y="676"/>
			<point x="529" y="641"/>
			<point x="463" y="635" type="curve"/>
		</contour>
		<component base="O"/>
		<contour>
			<point name="aboveUC" x="371" y="672" type="move"/>
		</contour>
		<contour>
			<point name="belowLC" x="231" y="-20" type="move"/>
		</contour>
	</outline>
</glyph>
<glyph name="ohorn" format="1">
	<unicode hex="01A1"/>
	<advance width="600"/>
	<outline>
		<contour>
			<point x="482" y="435" type="line"/>
			<point x="579" y="459"/>
			<point x="632" y="507"/>
			<point x="632" y="609" type="curve" smooth="yes"/>
			<point x="632" y="638"/>
			<point x="628" y="658"/>
			<point x="617" y="689" type="curve"/>
			<point x="515" y="657" type="line"/>
			<point x="521" y="638"/>
			<point x="524" y="621"/>
			<point x="524" y="602" type="curve" smooth="yes"/>
			<point x="524" y="532"/>
			<point x="487" y="493"/>
			<point x="426" y="485" type="curve"/>
		</contour>
		<component base="o"/>
		<contour>
			<point name="aboveLC" x="340" y="516" type="move"/>
		</contour>
		<contour>
			<point name="belowLC" x="234" y="-20" type="move"/>
		</contour>
	</outline>
</glyph>
<glyph name="Uhorn" format="2">
	<unicode hex="01AF"/>
	<advance width="600"/>
	<outline>
		<contour>
			<point x="584" y="600" type="line"/>
			<point x="682" y="616"/>
			<point x="734" y="663"/>
			<point x="734" y="748" type="curve" smooth="yes"/>
			<point x="734" y="772"/>
			<point x="728" y="800"/>
			<point x="717" y="826" type="curve"/>
			<point x="615" y="794" type="line"/>
			<point x="622" y="777"/>
			<point x="626" y="752"/>
			<point x="626" y="737" type="curve" smooth="yes"/>
			<point x="626" y="687"/>
			<point x="596" y="656"/>
			<point x="538" y="651" type="curve"/>
		</contour>
		<component base="U"/>
	</outline>
	<anchor name="aboveUC" x="371" y="672"/>
	<anchor name="belowLC" x="231" y="-20"/>
</glyph>
<glyph name="uhorn" format="1">
	<unicode hex="01B0"/>
	<advance width="600"/>
	<outline>
		<contour>
			<point x="545" y="445" type="line"/>
			<point x="625" y="467"/>
			<point x="675" y="530"/>
			<point x="675" y="612" type="curve" smooth="yes"/>
			<point x="675" y="641"/>
			<point x="671" y="661"/>
			<point x="660" y="692" type="curve"/>
			<point x="558" y="660" type="line"/>
			<point x="564" y="641"/>
			<point x="568" y="624"/>
			<point x="568" y="605" type="curve" smooth="yes"/>
			<point x="568" y="547"/>
			<point x="535" y="502"/>
			<point x="490" y="496" type="curve"/>
		</contour>
		<component base="u"/>
		<contour>
			<point name="aboveLC" x="335" y="516" type="move"/>
		</contour>
		<contour>
			<point name="belowLC" x="247" y="-20" type="move"/>
		</contour>
	</outline>
</glyph>
<glyph name="clickalveolar" format="1">
	<unicode hex="01C2"/>
	<advance width="600"/>
	<outline>
		<contour>
			<point x="127" y="-184" type="line"/>
			<point x="261" y="-184" type="line"/>
			<point x="457" y="700" type="line"/>
			<point x="324" y="700" type="line"/>
		</contour>
		<contour>
			<point x="84" y="329" type="line"/>
			<point x="516" y="329" type="line"/>
			<point x="531" y="403" type="line"/>
			<point x="260" y="403" type="line"/>
			<point x="97" y="398" type="line"/>
		</contour>
		<contour>
			<point x="46" y="132" type="line"/>
			<point x="477" y="132" type="line"/>
			<point x="492" y="207" type="line"/>
			<point x="221" y="207" type="line"/>
			<point x="58" y="201" type="line"/>
		</contour>
	</outline>
</glyph>
<glyph name="oogonek" format="1">
	<unicode hex="01EB"/>
	<advance width="600"/>
	<outline>
		<contour>
			<point x="215" y="-227" type="curve" smooth="yes"/>
			<point x="260" y="-227"/>
			<point x="301" y="-212"/>
			<point x="330" y="-189" type="curve"/>
			<point x="307" y="-134" type="line"/>
			<point x="291" y="-142"/>
			<point x="280" y="-145"/>
			<point x="264" y="-145" type="curve" smooth="yes"/>
			<point x="238" y="-145"/>
			<point x="215" y="-131"/>
			<point x="215" y="-103" type="curve" smooth="yes"/>
			<point x="215" y="-73"/>
			<point x="242" y="-29"/>
			<point x="323" y="-6" type="curve" smooth="yes"/>
			<point x="440" y="28"/>
			<point x="543" y="128"/>
			<point x="543" y="287" type="curve" smooth="yes"/>
			<point x="543" y="420"/>
			<point x="460" y="508"/>
			<point x="323" y="508" type="curve" smooth="yes"/>
			<point x="173" y="508"/>
			<point x="35" y="388"/>
			<point x="35" y="209" type="curve" smooth="yes"/>
			<point x="35" y="90"/>
			<point x="102" y="9"/>
			<point x="203" y="-7" type="curve"/>
			<point x="165" y="-33"/>
			<point x="116" y="-83"/>
			<point x="116" y="-142" type="curve" smooth="yes"/>
			<point x="116" y="-199"/>
			<point x="158" y="-227"/>
		</contour>
		<contour>
			<point x="264" y="96" type="curve" smooth="yes"/>
			<point x="208" y="96"/>
			<point x="173" y="137"/>
			<point x="173" y="213" type="curve" smooth="yes"/>
			<point x="173" y="321"/>
			<point x="241" y="396"/>
			<point x="313" y="396" type="curve" smooth="yes"/>
			<point x="369" y="396"/>
			<point x="404" y="355"/>
			<point x="404" y="283" type="curve" smooth="yes"/>
			<point x="404" y="174"/>
			<point x="336" y="96"/>
		</contour>
		<contour>
			<point name="aboveLC" x="340" y="516" type="move"/>
		</contour>
	</outline>
</glyph>
<glyph name="Aringacute" format="1">
	<unicode hex="01FA"/>
	<advance width="600"/>
	<outline>
		<contour>
			<point x="389" y="840" type="line"/>
			<point x="554" y="934" type="line"/>
			<point x="492" y="1008" type="line"/>
			<point x="330" y="869" type="line"/>
		</contour>
		<component base="Aring"/>
	</outline>
</glyph>
<glyph name="aringacute" format="1">
	<unicode hex="01FB"/>
	<advance width="600"/>
	<outline>
		<contour>
			<point x="348" y="717" type="line"/>
			<point x="521" y="822" type="line"/>
			<point x="461" y="881" type="line"/>
			<point x="308" y="748" type="line"/>
		</contour>
		<component base="aring"/>
	</outline>
</glyph>
<glyph name="alphalatinturned" format="2">
	<unicode hex="0252"/>
	<advance width="600"/>
	<outline>
		<contour>
			<point x="287" y="-12" type="curve" smooth="yes"/>
			<point x="429" y="-12"/>
			<point x="554" y="133"/>
			<point x="554" y="314" type="curve" smooth="yes"/>
			<point x="554" y="438"/>
			<point x="490" y="508"/>
			<point x="391" y="508" type="curve" smooth="yes"/>
			<point x="335" y="508"/>
			<point x="275" y="477"/>
			<point x="226" y="428" type="curve"/>
			<point x="224" y="428" type="line"/>
			<point x="226" y="496" type="line"/>
			<point x="115" y="496" type="line"/>
			<point x="16" y="0" type="line"/>
			<point x="125" y="0" type="line"/>
			<point x="146" y="53" type="line"/>
			<point x="149" y="53" type="line"/>
			<point x="174" y="14"/>
			<point x="231" y="-12"/>
		</contour>
		<contour>
			<point x="263" y="100" type="curve" smooth="yes"/>
			<point x="235" y="100"/>
			<point x="200" y="113"/>
			<point x="181" y="146" type="curve"/>
			<point x="216" y="320" type="line"/>
			<point x="255" y="372"/>
			<point x="304" y="396"/>
			<point x="340" y="396" type="curve" smooth="yes"/>
			<point x="384" y="396"/>
			<point x="412" y="366"/>
			<point x="412" y="297" type="curve" smooth="yes"/>
			<point x="412" y="184"/>
			<point x="344" y="100"/>
		</contour>
	</outline>
	<anchor name="aboveLC" x="359" y="516"/>
	<anchor name="belowLC" x="244" y="-20"/>
</glyph>
<glyph name="ccurl" format="1">
	<unicode hex="0255"/>
	<advance width="600"/>
	<outline>
		<contour>
			<point x="118" y="-96" type="line"/>
			<point x="203" y="77"/>
			<point x="299" y="176"/>
			<point x="384" y="176" type="curve" smooth="yes"/>
			<point x="414" y="176"/>
			<point x="425" y="163"/>
			<point x="425" y="149" type="curve" smooth="yes"/>
			<point x="425" y="122"/>
			<point x="390" y="93"/>
			<point x="334" y="93" type="curve" smooth="yes"/>
			<point x="259" y="93"/>
			<point x="192" y="132"/>
			<point x="192" y="218" type="curve" smooth="yes"/>
			<point x="192" y="320"/>
			<point x="276" y="403"/>
			<point x="355" y="403" type="curve" smooth="yes"/>
			<point x="400" y="403"/>
			<point x="441" y="384"/>
			<point x="474" y="347" type="curve"/>
			<point x="554" y="418" type="line"/>
			<point x="518" y="464"/>
			<point x="452" y="508"/>
			<point x="363" y="508" type="curve" smooth="yes"/>
			<point x="202" y="508"/>
			<point x="60" y="387"/>
			<point x="60" y="205" type="curve" smooth="yes"/>
			<point x="60" y="65"/>
			<point x="187" y="-12"/>
			<point x="312" y="-12" type="curve" smooth="yes"/>
			<point x="450" y="-12"/>
			<point x="532" y="69"/>
			<point x="532" y="167" type="curve" smooth="yes"/>
			<point x="532" y="231"/>
			<point x="488" y="272"/>
			<point x="406" y="272" type="curve" smooth="yes"/>
			<point x="276" y="272"/>
			<point x="137" y="168"/>
			<point x="18" y="-46" type="curve"/>
		</contour>
		<contour>
			<point name="aboveLC" x="389" y="516" type="move"/>
		</contour>
		<contour>
			<point name="belowLC" x="310" y="-20" type="move"/>
		</contour>
	</outline>
</glyph>
<glyph name="dhook" format="2">
	<unicode hex="0257"/>
	<advance width="600"/>
	<outline>
		<contour>
			<point x="196" y="-12" type="curve" smooth="yes"/>
			<point x="253" y="-12"/>
			<point x="313" y="18"/>
			<point x="360" y="68" type="curve"/>
			<point x="364" y="68" type="line"/>
			<point x="362" y="0" type="line"/>
			<point x="473" y="0" type="line"/>
			<point x="579" y="527" type="line" smooth="yes"/>
			<point x="589" y="577"/>
			<point x="606" y="597"/>
			<point x="642" y="597" type="curve" smooth="yes"/>
			<point x="649" y="597"/>
			<point x="653" y="597"/>
			<point x="662" y="594" type="curve"/>
			<point x="708" y="702" type="line"/>
			<point x="693" y="709"/>
			<point x="674" y="713"/>
			<point x="643" y="713" type="curve" smooth="yes"/>
			<point x="529" y="713"/>
			<point x="469" y="642"/>
			<point x="452" y="560" type="curve" smooth="yes"/>
			<point x="435" y="448" type="line"/>
			<point x="433" y="448" type="line"/>
			<point x="408" y="485"/>
			<point x="366" y="508"/>
			<point x="301" y="508" type="curve" smooth="yes"/>
			<point x="160" y="508"/>
			<point x="35" y="361"/>
			<point x="35" y="180" type="curve" smooth="yes"/>
			<point x="35" y="57"/>
			<point x="98" y="-12"/>
		</contour>
		<contour>
			<point x="248" y="100" type="curve" smooth="yes"/>
			<point x="204" y="100"/>
			<point x="176" y="130"/>
			<point x="176" y="197" type="curve" smooth="yes"/>
			<point x="176" y="310"/>
			<point x="245" y="396"/>
			<point x="325" y="396" type="curve" smooth="yes"/>
			<point x="353" y="396"/>
			<point x="388" y="382"/>
			<point x="408" y="349" type="curve"/>
			<point x="372" y="177" type="line"/>
			<point x="333" y="123"/>
			<point x="286" y="100"/>
		</contour>
	</outline>
	<anchor name="aboveUC" x="498" y="732"/>
	<anchor name="belowLC" x="250" y="-20"/>
</glyph>
<glyph name="ereversed" format="1">
	<unicode hex="0258"/>
	<advance width="600"/>
	<outline>
		<contour>
			<point x="235" y="-12" type="curve" smooth="yes"/>
			<point x="407" y="-12"/>
			<point x="540" y="96"/>
			<point x="540" y="294" type="curve" smooth="yes"/>
			<point x="540" y="435"/>
			<point x="446" y="508"/>
			<point x="330" y="508" type="curve" smooth="yes"/>
			<point x="132" y="508"/>
			<point x="60" y="351"/>
			<point x="60" y="258" type="curve" smooth="yes"/>
			<point x="60" y="234"/>
			<point x="61" y="221"/>
			<point x="63" y="210" type="curve"/>
			<point x="452" y="210" type="line"/>
			<point x="449" y="298" type="line"/>
			<point x="162" y="298" type="line"/>
			<point x="181" y="275" type="line"/>
			<point x="188" y="348"/>
			<point x="243" y="403"/>
			<point x="308" y="403" type="curve" smooth="yes"/>
			<point x="357" y="403"/>
			<point x="403" y="372"/>
			<point x="403" y="291" type="curve" smooth="yes"/>
			<point x="403" y="156"/>
			<point x="327" y="93"/>
			<point x="244" y="93" type="curve" smooth="yes"/>
			<point x="189" y="93"/>
			<point x="150" y="112"/>
			<point x="112" y="144" type="curve"/>
			<point x="43" y="60" type="line"/>
			<point x="84" y="15"/>
			<point x="161" y="-12"/>
		</contour>
		<contour>
			<point name="aboveLC" x="338" y="516" type="move"/>
		</contour>
		<contour>
			<point name="belowLC" x="252" y="-20" type="move"/>
		</contour>
	</outline>
</glyph>
<glyph name="schwa" format="1">
	<unicode hex="0259"/>
	<advance width="600"/>
	<outline>
		<contour>
			<point x="254" y="-12" type="curve" smooth="yes"/>
			<point x="408" y="-12"/>
			<point x="537" y="109"/>
			<point x="537" y="289" type="curve" smooth="yes"/>
			<point x="537" y="440"/>
			<point x="451" y="508"/>
			<point x="327" y="508" type="curve" smooth="yes"/>
			<point x="241" y="508"/>
			<point x="166" y="485"/>
			<point x="109" y="445" type="curve"/>
			<point x="154" y="354" type="line"/>
			<point x="200" y="383"/>
			<point x="241" y="403"/>
			<point x="295" y="403" type="curve" smooth="yes"/>
			<point x="355" y="403"/>
			<point x="401" y="373"/>
			<point x="401" y="285" type="curve" smooth="yes"/>
			<point x="401" y="156"/>
			<point x="326" y="93"/>
			<point x="258" y="93" type="curve" smooth="yes"/>
			<point x="205" y="93"/>
			<point x="169" y="122"/>
			<point x="169" y="180" type="curve" smooth="yes"/>
			<point x="169" y="194"/>
			<point x="171" y="208"/>
			<point x="175" y="221" type="curve"/>
			<point x="138" y="200" type="line"/>
			<point x="422" y="200" type="line"/>
			<point x="436" y="289" type="line"/>
			<point x="61" y="289" type="line"/>
			<point x="55" y="272"/>
			<point x="44" y="226"/>
			<point x="44" y="183" type="curve" smooth="yes"/>
			<point x="44" y="65"/>
			<point x="123" y="-12"/>
		</contour>
		<contour>
			<point name="ogonekLC" x="240" y="0" type="move"/>
		</contour>
		<contour>
			<point name="aboveLC" x="352" y="516" type="move"/>
		</contour>
		<contour>
			<point name="baseLC" x="240" y="0" type="move"/>
		</contour>
		<contour>
			<point name="belowLC" x="236" y="-20" type="move"/>
		</contour>
	</outline>
</glyph>
<glyph name="eopen" format="2">
	<unicode hex="025B"/>
	<advance width="600"/>
	<outline>
		<contour>
			<point x="257" y="-12" type="curve" smooth="yes"/>
			<point x="337" y="-12"/>
			<point x="404" y="-4"/>
			<point x="490" y="46" type="curve"/>
			<point x="451" y="140" type="line"/>
			<point x="391" y="107"/>
			<point x="339" y="93"/>
			<point x="294" y="93" type="curve" smooth="yes"/>
			<point x="229" y="93"/>
			<point x="188" y="117"/>
			<point x="188" y="152" type="curve" smooth="yes"/>
			<point x="188" y="193"/>
			<point x="228" y="210"/>
			<point x="296" y="210" type="curve"/>
			<point x="395" y="210" type="line"/>
			<point x="412" y="298" type="line"/>
			<point x="327" y="298" type="line"/>
			<point x="273" y="298"/>
			<point x="254" y="314"/>
			<point x="254" y="342" type="curve" smooth="yes"/>
			<point x="254" y="375"/>
			<point x="290" y="403"/>
			<point x="347" y="403" type="curve" smooth="yes"/>
			<point x="404" y="403"/>
			<point x="445" y="382"/>
			<point x="491" y="350" type="curve"/>
			<point x="563" y="444" type="line"/>
			<point x="505" y="487"/>
			<point x="436" y="508"/>
			<point x="356" y="508" type="curve" smooth="yes"/>
			<point x="226" y="508"/>
			<point x="112" y="452"/>
			<point x="112" y="358" type="curve" smooth="yes"/>
			<point x="112" y="319"/>
			<point x="134" y="284"/>
			<point x="192" y="265" type="curve"/>
			<point x="191" y="261" type="line"/>
			<point x="103" y="246"/>
			<point x="47" y="198"/>
			<point x="47" y="127" type="curve" smooth="yes"/>
			<point x="47" y="36"/>
			<point x="146" y="-12"/>
		</contour>
	</outline>
	<anchor name="aboveLC" x="368" y="516"/>
	<anchor name="baseLC" x="255" y="0"/>
	<anchor name="belowLC" x="248" y="-20"/>
</glyph>
<glyph name="eopenreversedclosed" format="1">
	<unicode hex="025E"/>
	<advance width="600"/>
	<outline>
		<contour>
			<point x="269" y="-12" type="curve" smooth="yes"/>
			<point x="403" y="-12"/>
			<point x="517" y="51"/>
			<point x="517" y="151" type="curve" smooth="yes"/>
			<point x="517" y="197"/>
			<point x="492" y="243"/>
			<point x="434" y="260" type="curve"/>
			<point x="435" y="264" type="line"/>
			<point x="500" y="278"/>
			<point x="540" y="321"/>
			<point x="540" y="382" type="curve" smooth="yes"/>
			<point x="540" y="465"/>
			<point x="443" y="508"/>
			<point x="337" y="508" type="curve" smooth="yes"/>
			<point x="176" y="508"/>
			<point x="34" y="388"/>
			<point x="34" y="209" type="curve" smooth="yes"/>
			<point x="34" y="76"/>
			<point x="125" y="-12"/>
		</contour>
		<contour>
			<point x="288" y="95" type="curve" smooth="yes"/>
			<point x="220" y="95"/>
			<point x="173" y="141"/>
			<point x="173" y="213" type="curve" smooth="yes"/>
			<point x="173" y="320"/>
			<point x="244" y="403"/>
			<point x="331" y="403" type="curve" smooth="yes"/>
			<point x="371" y="403"/>
			<point x="398" y="382"/>
			<point x="398" y="351" type="curve" smooth="yes"/>
			<point x="398" y="316"/>
			<point x="364" y="298"/>
			<point x="310" y="298" type="curve" smooth="yes"/>
			<point x="287" y="298" type="line"/>
			<point x="270" y="210" type="line"/>
			<point x="283" y="210" type="line" smooth="yes"/>
			<point x="350" y="210"/>
			<point x="376" y="192"/>
			<point x="376" y="158" type="curve" smooth="yes"/>
			<point x="376" y="126"/>
			<point x="343" y="95"/>
		</contour>
		<contour>
			<point name="aboveLC" x="340" y="516" type="move"/>
		</contour>
		<contour>
			<point name="belowLC" x="252" y="-20" type="move"/>
		</contour>
	</outline>
</glyph>
<glyph name="dotlessjstroke" format="1">
	<unicode hex="025F"/>
	<advance width="600"/>
	<outline>
		<contour>
			<point x="100" y="192" type="line"/>
			<point x="534" y="192" type="line"/>
			<point x="549" y="263" type="line"/>
			<point x="296" y="263" type="line"/>
			<point x="113" y="257" type="line"/>
		</contour>
		<component base="dotlessj"/>
		<contour>
			<point name="aboveLC" x="397" y="516" type="move"/>
		</contour>
		<contour>
			<point name="belowLC" x="163" y="-205" type="move"/>
		</contour>
	</outline>
</glyph>
<glyph name="ghook" format="2">
	<unicode hex="0260"/>
	<advance width="600"/>
	<outline>
		<contour>
			<point x="207" y="-196" type="curve" smooth="yes"/>
			<point x="332" y="-196"/>
			<point x="444" y="-147"/>
			<point x="475" y="9" type="curve" smooth="yes"/>
			<point x="568" y="468" type="line" smooth="yes"/>
			<point x="578" y="518"/>
			<point x="595" y="538"/>
			<point x="630" y="538" type="curve" smooth="yes"/>
			<point x="638" y="538"/>
			<point x="642" y="538"/>
			<point x="651" y="535" type="curve"/>
			<point x="697" y="643" type="line"/>
			<point x="682" y="650"/>
			<point x="662" y="654"/>
			<point x="632" y="654" type="curve" smooth="yes"/>
			<point x="518" y="654"/>
			<point x="457" y="583"/>
			<point x="441" y="500" type="curve" smooth="yes"/>
			<point x="435" y="449" type="line"/>
			<point x="433" y="449" type="line"/>
			<point x="408" y="485"/>
			<point x="366" y="509"/>
			<point x="301" y="509" type="curve" smooth="yes"/>
			<point x="167" y="509"/>
			<point x="41" y="378"/>
			<point x="41" y="200" type="curve" smooth="yes"/>
			<point x="41" y="87"/>
			<point x="105" y="15"/>
			<point x="210" y="15" type="curve" smooth="yes"/>
			<point x="264" y="15"/>
			<point x="323" y="42"/>
			<point x="362" y="79" type="curve"/>
			<point x="366" y="79" type="line"/>
			<point x="345" y="4" type="line" smooth="yes"/>
			<point x="323" y="-72"/>
			<point x="264" y="-88"/>
			<point x="204" y="-88" type="curve" smooth="yes"/>
			<point x="153" y="-88"/>
			<point x="100" y="-68"/>
			<point x="62" y="-36" type="curve"/>
			<point x="3" y="-131" type="line"/>
			<point x="52" y="-169"/>
			<point x="117" y="-196"/>
		</contour>
		<contour>
			<point x="258" y="127" type="curve" smooth="yes"/>
			<point x="209" y="127"/>
			<point x="183" y="156"/>
			<point x="183" y="221" type="curve" smooth="yes"/>
			<point x="183" y="327"/>
			<point x="257" y="396"/>
			<point x="323" y="396" type="curve" smooth="yes"/>
			<point x="357" y="396"/>
			<point x="385" y="380"/>
			<point x="408" y="347" type="curve"/>
			<point x="374" y="187" type="line"/>
			<point x="338" y="148"/>
			<point x="297" y="127"/>
		</contour>
	</outline>
	<anchor name="aboveLC" x="335" y="582"/>
	<anchor name="belowLC" x="286" y="-205"/>
</glyph>
<glyph name="gscript" format="1">
	<unicode hex="0261"/>
	<advance width="600"/>
	<outline>
		<component base="g"/>
		<contour>
			<point name="aboveLC" x="348" y="516" type="move"/>
		</contour>
		<contour>
			<point name="belowLC" x="217" y="-205" type="move"/>
		</contour>
	</outline>
</glyph>
<glyph name="gsmall" format="2">
	<unicode hex="0262"/>
	<advance width="600"/>
	<outline>
		<contour>
			<point x="288" y="-12" type="curve" smooth="yes"/>
			<point x="370" y="-12"/>
			<point x="437" y="12"/>
			<point x="480" y="46" type="curve"/>
			<point x="530" y="292" type="line"/>
			<point x="322" y="292" type="line"/>
			<point x="305" y="205" type="line"/>
			<point x="391" y="205" type="line"/>
			<point x="374" y="109" type="line"/>
			<point x="357" y="99"/>
			<point x="330" y="93"/>
			<point x="305" y="93" type="curve" smooth="yes"/>
			<point x="247" y="93"/>
			<point x="189" y="124"/>
			<point x="189" y="215" type="curve" smooth="yes"/>
			<point x="189" y="312"/>
			<point x="257" y="403"/>
			<point x="350" y="403" type="curve" smooth="yes"/>
			<point x="400" y="403"/>
			<point x="441" y="378"/>
			<point x="468" y="350" type="curve"/>
			<point x="546" y="434" type="line"/>
			<point x="509" y="474"/>
			<point x="449" y="508"/>
			<point x="363" y="508" type="curve" smooth="yes"/>
			<point x="166" y="508"/>
			<point x="51" y="364"/>
			<point x="51" y="203" type="curve" smooth="yes"/>
			<point x="50" y="62"/>
			<point x="171" y="-12"/>
		</contour>
	</outline>
	<anchor name="aboveLC" x="350" y="516"/>
	<anchor name="baseLC" x="278" y="0"/>
	<anchor name="belowLC" x="271" y="-20"/>
</glyph>
<glyph name="hturned" format="1">
	<unicode hex="0265"/>
	<advance width="600"/>
	<outline>
		<contour>
			<point x="294" y="-184" type="line"/>
			<point x="431" y="-184" type="line"/>
			<point x="567" y="496" type="line"/>
			<point x="431" y="496" type="line"/>
			<point x="371" y="194" type="line"/>
			<point x="325" y="136"/>
			<point x="273" y="105"/>
			<point x="231" y="105" type="curve" smooth="yes"/>
			<point x="198" y="105"/>
			<point x="180" y="121"/>
			<point x="180" y="155" type="curve" smooth="yes"/>
			<point x="180" y="170"/>
			<point x="183" y="186"/>
			<point x="187" y="206" type="curve" smooth="yes"/>
			<point x="245" y="496" type="line"/>
			<point x="108" y="496" type="line"/>
			<point x="47" y="190" type="line" smooth="yes"/>
			<point x="42" y="165"/>
			<point x="39" y="139"/>
			<point x="39" y="116" type="curve" smooth="yes"/>
			<point x="39" y="33"/>
			<point x="84" y="-12"/>
			<point x="167" y="-12" type="curve" smooth="yes"/>
			<point x="235" y="-12"/>
			<point x="301" y="30"/>
			<point x="351" y="82" type="curve"/>
			<point x="355" y="82" type="line"/>
			<point x="332" y="1" type="line"/>
		</contour>
		<contour>
			<point name="aboveLC" x="335" y="516" type="move"/>
		</contour>
		<contour>
			<point name="belowLC" x="236" y="-20" type="move"/>
		</contour>
	</outline>
</glyph>
<glyph name="henghook" format="1">
	<unicode hex="0267"/>
	<advance width="600"/>
	<outline>
		<contour>
			<point x="288" y="-187" type="curve" smooth="yes"/>
			<point x="402" y="-187"/>
			<point x="452" y="-110"/>
			<point x="473" y="-8" type="curve" smooth="yes"/>
			<point x="533" y="290" type="line" smooth="yes"/>
			<point x="538" y="315"/>
			<point x="541" y="340"/>
			<point x="541" y="364" type="curve" smooth="yes"/>
			<point x="541" y="447"/>
			<point x="496" y="492"/>
			<point x="412" y="492" type="curve" smooth="yes"/>
			<point x="345" y="492"/>
			<point x="278" y="450"/>
			<point x="229" y="398" type="curve"/>
			<point x="225" y="398" type="line"/>
			<point x="253" y="503" type="line"/>
			<point x="272" y="575"/>
			<point x="307" y="598"/>
			<point x="362" y="598" type="curve" smooth="yes"/>
			<point x="385" y="598"/>
			<point x="406" y="593"/>
			<point x="427" y="582" type="curve"/>
			<point x="474" y="690" type="line"/>
			<point x="447" y="703"/>
			<point x="412" y="713"/>
			<point x="364" y="713" type="curve" smooth="yes"/>
			<point x="211" y="713"/>
			<point x="141" y="620"/>
			<point x="116" y="499" type="curve"/>
			<point x="16" y="0" type="line"/>
			<point x="153" y="0" type="line"/>
			<point x="209" y="286" type="line"/>
			<point x="255" y="344"/>
			<point x="307" y="375"/>
			<point x="349" y="375" type="curve" smooth="yes"/>
			<point x="382" y="375"/>
			<point x="400" y="358"/>
			<point x="400" y="325" type="curve" smooth="yes"/>
			<point x="400" y="310"/>
			<point x="396" y="293"/>
			<point x="393" y="273" type="curve" smooth="yes"/>
			<point x="338" y="-2" type="line" smooth="yes"/>
			<point x="327" y="-57"/>
			<point x="311" y="-78"/>
			<point x="277" y="-78" type="curve" smooth="yes"/>
			<point x="261" y="-78"/>
			<point x="248" y="-74"/>
			<point x="234" y="-66" type="curve"/>
			<point x="193" y="-164" type="line"/>
			<point x="225" y="-180"/>
			<point x="254" y="-187"/>
		</contour>
		<contour>
			<point name="aboveUC" x="341" y="732" type="move"/>
		</contour>
	</outline>
</glyph>
<glyph name="lbelt" format="2">
	<unicode hex="026C"/>
	<advance width="600"/>
	<outline>
		<contour>
			<point x="187" y="274" type="curve" smooth="yes"/>
			<point x="466" y="274" type="line"/>
			<point x="482" y="349" type="line"/>
			<point x="183" y="349" type="line" smooth="yes"/>
			<point x="147" y="349"/>
			<point x="130" y="363"/>
			<point x="130" y="381" type="curve" smooth="yes"/>
			<point x="130" y="398"/>
			<point x="142" y="411"/>
			<point x="162" y="411" type="curve" smooth="yes"/>
			<point x="203" y="411"/>
			<point x="220" y="377"/>
			<point x="213" y="349" type="curve"/>
			<point x="260" y="331" type="line"/>
			<point x="261" y="407"/>
			<point x="236" y="482"/>
			<point x="153" y="482" type="curve" smooth="yes"/>
			<point x="96" y="482"/>
			<point x="53" y="440"/>
			<point x="53" y="381" type="curve" smooth="yes"/>
			<point x="53" y="320"/>
			<point x="99" y="274"/>
		</contour>
		<component base="l" yOffset="1"/>
	</outline>
</glyph>
<glyph name="lretroflex" format="1">
	<unicode hex="026D"/>
	<advance width="600"/>
	<outline>
		<contour>
			<point x="288" y="-187" type="curve" smooth="yes"/>
			<point x="344" y="-187"/>
			<point x="390" y="-178"/>
			<point x="441" y="-155" type="curve"/>
			<point x="413" y="-53" type="line"/>
			<point x="380" y="-68"/>
			<point x="360" y="-75"/>
			<point x="330" y="-75" type="curve" smooth="yes"/>
			<point x="298" y="-75"/>
			<point x="272" y="-59"/>
			<point x="272" y="-22" type="curve" smooth="yes"/>
			<point x="272" y="-6"/>
			<point x="274" y="5"/>
			<point x="277" y="15" type="curve" smooth="yes"/>
			<point x="426" y="701" type="line"/>
			<point x="150" y="701" type="line"/>
			<point x="127" y="594" type="line"/>
			<point x="269" y="594" type="line"/>
			<point x="144" y="32" type="line" smooth="yes"/>
			<point x="140" y="9"/>
			<point x="137" y="-12"/>
			<point x="137" y="-31" type="curve" smooth="yes"/>
			<point x="137" y="-130"/>
			<point x="200" y="-187"/>
		</contour>
		<contour>
			<point name="aboveUC" x="357" y="732" type="move"/>
		</contour>
		<contour>
			<point name="belowLC" x="272" y="-196" type="move"/>
		</contour>
	</outline>
</glyph>
<glyph name="mturned" format="1">
	<unicode hex="026F"/>
	<advance width="600"/>
	<outline>
		<component base="m" xScale="-1" yScale="-1" xOffset="580" yOffset="496"/>
		<contour>
			<point name="aboveLC" x="338" y="516" type="move"/>
		</contour>
		<contour>
			<point name="belowLC" x="242" y="-20" type="move"/>
		</contour>
	</outline>
</glyph>
<glyph name="mlonglegturned" format="1">
	<unicode hex="0270"/>
	<advance width="600"/>
	<outline>
		<contour>
			<point x="338" y="-184" type="line"/>
			<point x="463" y="-184" type="line"/>
			<point x="600" y="496" type="line"/>
			<point x="472" y="496" type="line"/>
			<point x="406" y="157" type="line"/>
			<point x="384" y="120"/>
			<point x="363" y="105"/>
			<point x="340" y="105" type="curve" smooth="yes"/>
			<point x="326" y="105"/>
			<point x="317" y="111"/>
			<point x="317" y="130" type="curve" smooth="yes"/>
			<point x="317" y="136"/>
			<point x="318" y="142"/>
			<point x="320" y="154" type="curve" smooth="yes"/>
			<point x="391" y="496" type="line"/>
			<point x="281" y="496" type="line"/>
			<point x="211" y="156" type="line"/>
			<point x="190" y="121"/>
			<point x="172" y="105"/>
			<point x="149" y="105" type="curve" smooth="yes"/>
			<point x="135" y="105"/>
			<point x="128" y="111"/>
			<point x="128" y="130" type="curve" smooth="yes"/>
			<point x="128" y="136"/>
			<point x="128" y="142"/>
			<point x="130" y="154" type="curve" smooth="yes"/>
			<point x="200" y="496" type="line"/>
			<point x="74" y="496" type="line"/>
			<point x="-1" y="128" type="line" smooth="yes"/>
			<point x="-5" y="108"/>
			<point x="-7" y="94"/>
			<point x="-7" y="77" type="curve" smooth="yes"/>
			<point x="-7" y="19"/>
			<point x="23" y="-12"/>
			<point x="70" y="-12" type="curve" smooth="yes"/>
			<point x="126" y="-12"/>
			<point x="174" y="16"/>
			<point x="211" y="75" type="curve"/>
			<point x="200" y="67" type="line"/>
			<point x="203" y="13"/>
			<point x="226" y="-12"/>
			<point x="269" y="-12" type="curve" smooth="yes"/>
			<point x="327" y="-12"/>
			<point x="371" y="22"/>
			<point x="401" y="65" type="curve"/>
			<point x="405" y="65" type="line"/>
			<point x="386" y="14"/>
			<point x="373" y="-22"/>
			<point x="367" y="-47" type="curve" smooth="yes"/>
		</contour>
		<contour>
			<point name="aboveLC" x="338" y="516" type="move"/>
		</contour>
		<contour>
			<point name="belowLC" x="392" y="-205" type="move"/>
		</contour>
	</outline>
</glyph>
<glyph name="mhook" format="1">
	<unicode hex="0271"/>
	<advance width="600"/>
	<outline>
		<contour>
			<point x="342" y="-187" type="curve" smooth="yes"/>
			<point x="442" y="-187"/>
			<point x="483" y="-114"/>
			<point x="505" y="-4" type="curve" smooth="yes"/>
			<point x="581" y="368" type="line" smooth="yes"/>
			<point x="585" y="388"/>
			<point x="587" y="402"/>
			<point x="587" y="419" type="curve" smooth="yes"/>
			<point x="587" y="477"/>
			<point x="557" y="508"/>
			<point x="509" y="508" type="curve" smooth="yes"/>
			<point x="454" y="508"/>
			<point x="406" y="480"/>
			<point x="369" y="421" type="curve"/>
			<point x="380" y="429" type="line"/>
			<point x="376" y="483"/>
			<point x="353" y="508"/>
			<point x="310" y="508" type="curve" smooth="yes"/>
			<point x="252" y="508"/>
			<point x="208" y="473"/>
			<point x="178" y="432" type="curve"/>
			<point x="174" y="432" type="line"/>
			<point x="176" y="496" type="line"/>
			<point x="78" y="496" type="line"/>
			<point x="-20" y="0" type="line"/>
			<point x="108" y="0" type="line"/>
			<point x="173" y="339" type="line"/>
			<point x="196" y="376"/>
			<point x="216" y="392"/>
			<point x="240" y="392" type="curve" smooth="yes"/>
			<point x="253" y="392"/>
			<point x="262" y="385"/>
			<point x="262" y="366" type="curve" smooth="yes"/>
			<point x="262" y="360"/>
			<point x="262" y="354"/>
			<point x="260" y="342" type="curve" smooth="yes"/>
			<point x="189" y="0" type="line"/>
			<point x="299" y="0" type="line"/>
			<point x="368" y="340" type="line"/>
			<point x="390" y="375"/>
			<point x="408" y="392"/>
			<point x="431" y="392" type="curve" smooth="yes"/>
			<point x="444" y="392"/>
			<point x="452" y="385"/>
			<point x="452" y="366" type="curve" smooth="yes"/>
			<point x="452" y="360"/>
			<point x="452" y="354"/>
			<point x="449" y="342" type="curve" smooth="yes"/>
			<point x="381" y="6" type="line" smooth="yes"/>
			<point x="369" y="-54"/>
			<point x="357" y="-78"/>
			<point x="328" y="-78" type="curve" smooth="yes"/>
			<point x="316" y="-78"/>
			<point x="306" y="-76"/>
			<point x="295" y="-69" type="curve"/>
			<point x="254" y="-167" type="line"/>
			<point x="282" y="-182"/>
			<point x="310" y="-187"/>
		</contour>
		<contour>
			<point name="aboveLC" x="350" y="516" type="move"/>
		</contour>
	</outline>
</glyph>
<glyph name="oesmall" format="2">
	<unicode hex="0276"/>
	<advance width="600"/>
	<outline>
		<contour>
			<point x="189" y="-12" type="curve" smooth="yes"/>
			<point x="222" y="-12"/>
			<point x="249" y="-8"/>
			<point x="280" y="0" type="curve"/>
			<point x="531" y="0" type="line"/>
			<point x="550" y="98" type="line"/>
			<point x="378" y="98" type="line"/>
			<point x="400" y="210" type="line"/>
			<point x="533" y="210" type="line"/>
			<point x="549" y="298" type="line"/>
			<point x="418" y="298" type="line"/>
			<point x="437" y="398" type="line"/>
			<point x="600" y="398" type="line"/>
			<point x="620" y="496" type="line"/>
			<point x="379" y="496" type="line"/>
			<point x="340" y="504"/>
			<point x="308" y="508"/>
			<point x="271" y="508" type="curve" smooth="yes"/>
			<point x="125" y="508"/>
			<point x="1" y="372"/>
			<point x="1" y="185" type="curve" smooth="yes"/>
			<point x="1" y="51"/>
			<point x="89" y="-12"/>
		</contour>
		<contour>
			<point x="212" y="100" type="curve" smooth="yes"/>
			<point x="171" y="100"/>
			<point x="139" y="123"/>
			<point x="139" y="194" type="curve" smooth="yes"/>
			<point x="139" y="301"/>
			<point x="198" y="396"/>
			<point x="269" y="396" type="curve" smooth="yes"/>
			<point x="283" y="396"/>
			<point x="296" y="394"/>
			<point x="306" y="391" type="curve"/>
			<point x="251" y="107" type="line"/>
			<point x="237" y="102"/>
			<point x="225" y="100"/>
		</contour>
	</outline>
	<anchor name="aboveLC" x="372" y="516"/>
	<anchor name="belowLC" x="294" y="-20"/>
</glyph>
<glyph name="philatin" format="1">
	<unicode hex="0278"/>
	<advance width="600"/>
	<outline>
		<contour>
			<point x="218" y="-8" type="curve"/>
			<point x="222" y="93" type="line"/>
			<point x="177" y="94"/>
			<point x="141" y="134"/>
			<point x="141" y="214" type="curve" smooth="yes"/>
			<point x="141" y="315"/>
			<point x="199" y="398"/>
			<point x="266" y="401" type="curve"/>
			<point x="293" y="503" type="line"/>
			<point x="147" y="501"/>
			<point x="9" y="393"/>
			<point x="9" y="203" type="curve" smooth="yes"/>
			<point x="9" y="59"/>
			<point x="110" y="-7"/>
		</contour>
		<contour>
			<point x="288" y="-8" type="line"/>
			<point x="434" y="-6"/>
			<point x="572" y="102"/>
			<point x="572" y="291" type="curve" smooth="yes"/>
			<point x="572" y="436"/>
			<point x="471" y="501"/>
			<point x="363" y="503" type="curve"/>
			<point x="359" y="401" type="line"/>
			<point x="404" y="401"/>
			<point x="440" y="360"/>
			<point x="440" y="280" type="curve" smooth="yes"/>
			<point x="440" y="180"/>
			<point x="382" y="97"/>
			<point x="315" y="93" type="curve"/>
		</contour>
		<contour>
			<point x="133" y="-184" type="line"/>
			<point x="259" y="-184" type="line"/>
			<point x="454" y="700" type="line"/>
			<point x="328" y="700" type="line"/>
		</contour>
		<contour>
			<point name="aboveUC" x="398" y="732" type="move"/>
		</contour>
		<contour>
			<point name="belowLC" x="190" y="-205" type="move"/>
		</contour>
	</outline>
</glyph>
<glyph name="rhookturned" format="1">
	<unicode hex="027B"/>
	<advance width="600"/>
	<outline>
		<contour>
			<point x="353" y="-187" type="curve" smooth="yes"/>
			<point x="390" y="-187"/>
			<point x="416" y="-178"/>
			<point x="436" y="-169" type="curve"/>
			<point x="440" y="-66" type="line"/>
			<point x="428" y="-72"/>
			<point x="417" y="-77"/>
			<point x="404" y="-77" type="curve" smooth="yes"/>
			<point x="379" y="-77"/>
			<point x="360" y="-65"/>
			<point x="360" y="-38" type="curve" smooth="yes"/>
			<point x="360" y="-25"/>
			<point x="362" y="-13"/>
			<point x="365" y="-1" type="curve" smooth="yes"/>
			<point x="464" y="496" type="line"/>
			<point x="327" y="496" type="line"/>
			<point x="270" y="209" type="line"/>
			<point x="230" y="128"/>
			<point x="183" y="110"/>
			<point x="144" y="110" type="curve" smooth="yes"/>
			<point x="122" y="110"/>
			<point x="95" y="113"/>
			<point x="67" y="127" type="curve"/>
			<point x="18" y="9" type="line"/>
			<point x="49" y="-6"/>
			<point x="76" y="-12"/>
			<point x="103" y="-12" type="curve" smooth="yes"/>
			<point x="169" y="-12"/>
			<point x="211" y="19"/>
			<point x="258" y="87" type="curve"/>
			<point x="262" y="87" type="line"/>
			<point x="241" y="-18" type="line" smooth="yes"/>
			<point x="237" y="-37"/>
			<point x="235" y="-56"/>
			<point x="235" y="-73" type="curve" smooth="yes"/>
			<point x="235" y="-138"/>
			<point x="265" y="-187"/>
		</contour>
		<contour>
			<point name="aboveLC" x="343" y="516" type="move"/>
		</contour>
		<contour>
			<point name="belowLC" x="114" y="-20" type="move"/>
		</contour>
	</outline>
</glyph>
<glyph name="rtail" format="2">
	<unicode hex="027D"/>
	<advance width="600"/>
	<outline>
		<contour>
			<point x="237" y="-187" type="curve" smooth="yes"/>
			<point x="311" y="-187"/>
			<point x="382" y="-164"/>
			<point x="425" y="-135" type="curve"/>
			<point x="383" y="-39" type="line"/>
			<point x="354" y="-57"/>
			<point x="317" y="-75"/>
			<point x="278" y="-75" type="curve" smooth="yes"/>
			<point x="237" y="-75"/>
			<point x="212" y="-55"/>
			<point x="212" y="-5" type="curve" smooth="yes"/>
			<point x="212" y="6"/>
			<point x="213" y="16"/>
			<point x="217" y="34" type="curve"/>
			<point x="254" y="219" type="line"/>
			<point x="312" y="322"/>
			<point x="384" y="386"/>
			<point x="450" y="386" type="curve" smooth="yes"/>
			<point x="479" y="386"/>
			<point x="503" y="381"/>
			<point x="525" y="369" type="curve"/>
			<point x="575" y="487" type="line"/>
			<point x="556" y="499"/>
			<point x="520" y="508"/>
			<point x="477" y="508" type="curve" smooth="yes"/>
			<point x="401" y="508"/>
			<point x="324" y="452"/>
			<point x="272" y="364" type="curve"/>
			<point x="268" y="364" type="line"/>
			<point x="282" y="496" type="line"/>
			<point x="171" y="497" type="line"/>
			<point x="78" y="28" type="line"/>
			<point x="73" y="2"/>
			<point x="70" y="-16"/>
			<point x="70" y="-37" type="curve" smooth="yes"/>
			<point x="70" y="-128"/>
			<point x="120" y="-187"/>
		</contour>
	</outline>
	<anchor name="aboveLC" x="388" y="516"/>
	<anchor name="belowLC" x="230" y="-196"/>
</glyph>
<glyph name="rfishhook" format="2">
	<unicode hex="027E"/>
	<advance width="600"/>
	<outline>
		<contour>
			<point x="73" y="0" type="line"/>
			<point x="214" y="0" type="line"/>
			<point x="266" y="266" type="line" smooth="yes"/>
			<point x="282" y="348"/>
			<point x="351" y="383"/>
			<point x="412" y="383" type="curve" smooth="yes"/>
			<point x="458" y="383"/>
			<point x="484" y="379"/>
			<point x="527" y="364" type="curve"/>
			<point x="575" y="487" type="line"/>
			<point x="541" y="500"/>
			<point x="483" y="508"/>
			<point x="416" y="508" type="curve" smooth="yes"/>
			<point x="247" y="508"/>
			<point x="158" y="420"/>
			<point x="133" y="298" type="curve" smooth="yes"/>
		</contour>
	</outline>
	<anchor name="aboveLC" x="379" y="516"/>
	<anchor name="belowLC" x="146" y="-20"/>
</glyph>
<glyph name="rsmall" format="2">
	<unicode hex="0280"/>
	<advance width="600"/>
	<outline>
		<contour>
			<point x="44" y="0" type="line"/>
			<point x="181" y="0" type="line"/>
			<point x="213" y="162" type="line"/>
			<point x="296" y="162" type="line"/>
			<point x="427" y="162"/>
			<point x="533" y="244"/>
			<point x="533" y="362" type="curve" smooth="yes"/>
			<point x="533" y="456"/>
			<point x="461" y="496"/>
			<point x="365" y="496" type="curve" smooth="yes"/>
			<point x="142" y="496" type="line"/>
		</contour>
		<contour>
			<point x="233" y="260" type="line"/>
			<point x="258" y="391" type="line"/>
			<point x="326" y="391" type="line" smooth="yes"/>
			<point x="369" y="392"/>
			<point x="391" y="374"/>
			<point x="391" y="334" type="curve" smooth="yes"/>
			<point x="391" y="296"/>
			<point x="357" y="260"/>
			<point x="301" y="260" type="curve" smooth="yes"/>
		</contour>
		<contour>
			<point x="349" y="0" type="line"/>
			<point x="488" y="0" type="line"/>
			<point x="387" y="240" type="line"/>
			<point x="279" y="200" type="line"/>
		</contour>
	</outline>
	<anchor name="aboveLC" x="352" y="516"/>
	<anchor name="belowLC" x="272" y="-20"/>
</glyph>
<glyph name="rsmallinverted" format="2">
	<unicode hex="0281"/>
	<advance width="600"/>
	<outline>
		<contour>
			<point x="44" y="0" type="line"/>
			<point x="266" y="0" type="line" smooth="yes"/>
			<point x="396" y="0"/>
			<point x="502" y="82"/>
			<point x="502" y="200" type="curve" smooth="yes"/>
			<point x="502" y="295"/>
			<point x="430" y="335"/>
			<point x="334" y="335" type="curve" smooth="yes"/>
			<point x="248" y="335" type="line"/>
			<point x="279" y="496" type="line"/>
			<point x="142" y="496" type="line"/>
		</contour>
		<contour>
			<point x="202" y="105" type="line"/>
			<point x="227" y="236" type="line"/>
			<point x="295" y="236" type="line" smooth="yes"/>
			<point x="339" y="237"/>
			<point x="361" y="219"/>
			<point x="361" y="179" type="curve" smooth="yes"/>
			<point x="361" y="141"/>
			<point x="327" y="105"/>
			<point x="270" y="105" type="curve" smooth="yes"/>
		</contour>
		<contour>
			<point x="391" y="256" type="line"/>
			<point x="586" y="496" type="line"/>
			<point x="447" y="496" type="line"/>
			<point x="298" y="296" type="line"/>
		</contour>
	</outline>
	<anchor name="aboveLC" x="364" y="516"/>
	<anchor name="belowLC" x="252" y="-20"/>
</glyph>
<glyph name="esh" format="1">
	<unicode hex="0283"/>
	<advance width="600"/>
	<outline>
		<contour>
			<point x="101" y="-196" type="curve" smooth="yes"/>
			<point x="232" y="-196"/>
			<point x="291" y="-106"/>
			<point x="312" y="3" type="curve" smooth="yes"/>
			<point x="412" y="518" type="line" smooth="yes"/>
			<point x="425" y="580"/>
			<point x="451" y="604"/>
			<point x="499" y="604" type="curve" smooth="yes"/>
			<point x="525" y="604"/>
			<point x="550" y="594"/>
			<point x="579" y="575" type="curve"/>
			<point x="640" y="661" type="line"/>
			<point x="604" y="689"/>
			<point x="550" y="713"/>
			<point x="490" y="713" type="curve" smooth="yes"/>
			<point x="359" y="713"/>
			<point x="298" y="622"/>
			<point x="276" y="513" type="curve" smooth="yes"/>
			<point x="173" y="-1" type="line"/>
			<point x="161" y="-64"/>
			<point x="141" y="-88"/>
			<point x="102" y="-88" type="curve" smooth="yes"/>
			<point x="78" y="-88"/>
			<point x="56" y="-80"/>
			<point x="32" y="-60" type="curve"/>
			<point x="-24" y="-149" type="line"/>
			<point x="4" y="-176"/>
			<point x="45" y="-196"/>
		</contour>
		<contour>
			<point name="aboveUC" x="474" y="730" type="move"/>
		</contour>
		<contour>
			<point name="belowLC" x="136" y="-205" type="move"/>
		</contour>
	</outline>
</glyph>
<glyph name="dotlessjstrokehook" format="1">
	<unicode hex="0284"/>
	<advance width="600"/>
	<outline>
		<contour>
			<point x="76" y="225" type="line"/>
			<point x="509" y="225" type="line"/>
			<point x="524" y="296" type="line"/>
			<point x="234" y="296" type="line"/>
			<point x="89" y="290" type="line"/>
		</contour>
		<component base="esh"/>
		<contour>
			<point name="aboveUC" x="474" y="730" type="move"/>
		</contour>
		<contour>
			<point name="belowLC" x="136" y="-205" type="move"/>
		</contour>
	</outline>
</glyph>
<glyph name="tretroflex" format="2">
	<unicode hex="0288"/>
	<advance width="600"/>
	<outline>
		<contour>
			<point x="274" y="-187" type="curve" smooth="yes"/>
			<point x="350" y="-187"/>
			<point x="423" y="-164"/>
			<point x="467" y="-135" type="curve"/>
			<point x="425" y="-39" type="line"/>
			<point x="395" y="-58"/>
			<point x="356" y="-75"/>
			<point x="315" y="-75" type="curve" smooth="yes"/>
			<point x="273" y="-75"/>
			<point x="244" y="-55"/>
			<point x="244" y="-5" type="curve" smooth="yes"/>
			<point x="244" y="6"/>
			<point x="244" y="16"/>
			<point x="248" y="34" type="curve" smooth="yes"/>
			<point x="322" y="389" type="line"/>
			<point x="535" y="389" type="line"/>
			<point x="555" y="496" type="line"/>
			<point x="345" y="496" type="line"/>
			<point x="377" y="648" type="line"/>
			<point x="265" y="648" type="line"/>
			<point x="214" y="496" type="line"/>
			<point x="77" y="490" type="line"/>
			<point x="57" y="389" type="line"/>
			<point x="187" y="389" type="line"/>
			<point x="113" y="28" type="line" smooth="yes"/>
			<point x="108" y="2"/>
			<point x="105" y="-16"/>
			<point x="105" y="-37" type="curve" smooth="yes"/>
			<point x="105" y="-128"/>
			<point x="156" y="-187"/>
		</contour>
	</outline>
	<anchor name="aboveLC" x="318" y="642"/>
	<anchor name="belowLC" x="268" y="-196"/>
</glyph>
<glyph name="ubar" format="2">
	<unicode hex="0289"/>
	<advance width="600"/>
	<outline>
		<contour>
			<point x="173" y="-12" type="curve" smooth="yes"/>
			<point x="233" y="-12"/>
			<point x="290" y="25"/>
			<point x="335" y="67" type="curve"/>
			<point x="339" y="67" type="line"/>
			<point x="337" y="0" type="line"/>
			<point x="449" y="0" type="line"/>
			<point x="546" y="496" type="line"/>
			<point x="409" y="496" type="line"/>
			<point x="346" y="169" type="line"/>
			<point x="306" y="125"/>
			<point x="275" y="105"/>
			<point x="246" y="105" type="curve" smooth="yes"/>
			<point x="214" y="105"/>
			<point x="196" y="122"/>
			<point x="196" y="156" type="curve" smooth="yes"/>
			<point x="196" y="169"/>
			<point x="200" y="183"/>
			<point x="204" y="203" type="curve" smooth="yes"/>
			<point x="263" y="496" type="line"/>
			<point x="126" y="496" type="line"/>
			<point x="64" y="186" type="line" smooth="yes"/>
			<point x="59" y="162"/>
			<point x="56" y="138"/>
			<point x="56" y="115" type="curve" smooth="yes"/>
			<point x="56" y="33"/>
			<point x="91" y="-12"/>
		</contour>
		<contour>
			<point x="6" y="266" type="line"/>
			<point x="572" y="266" type="line"/>
			<point x="586" y="337" type="line"/>
			<point x="98" y="337" type="line"/>
			<point x="19" y="331" type="line"/>
		</contour>
	</outline>
</glyph>
<glyph name="vhook" format="2">
	<unicode hex="028B"/>
	<advance width="600"/>
	<outline>
		<contour>
			<point x="252" y="-12" type="curve" smooth="yes"/>
			<point x="429" y="-12"/>
			<point x="543" y="165"/>
			<point x="543" y="355" type="curve" smooth="yes"/>
			<point x="543" y="461"/>
			<point x="486" y="508"/>
			<point x="405" y="508" type="curve" smooth="yes"/>
			<point x="376" y="508"/>
			<point x="357" y="506"/>
			<point x="337" y="500" type="curve"/>
			<point x="331" y="392" type="line"/>
			<point x="341" y="394"/>
			<point x="345" y="395"/>
			<point x="352" y="395" type="curve" smooth="yes"/>
			<point x="388" y="395"/>
			<point x="404" y="374"/>
			<point x="404" y="330" type="curve" smooth="yes"/>
			<point x="404" y="229"/>
			<point x="347" y="100"/>
			<point x="263" y="100" type="curve" smooth="yes"/>
			<point x="214" y="100"/>
			<point x="186" y="122"/>
			<point x="186" y="181" type="curve" smooth="yes"/>
			<point x="186" y="193"/>
			<point x="187" y="207"/>
			<point x="191" y="228" type="curve" smooth="yes"/>
			<point x="245" y="496" type="line"/>
			<point x="108" y="496" type="line"/>
			<point x="54" y="225" type="line" smooth="yes"/>
			<point x="49" y="202"/>
			<point x="44" y="172"/>
			<point x="44" y="153" type="curve" smooth="yes"/>
			<point x="44" y="38"/>
			<point x="125" y="-12"/>
		</contour>
	</outline>
	<anchor name="aboveLC" x="340" y="516"/>
	<anchor name="belowLC" x="238" y="-20"/>
</glyph>
<glyph name="zcurl" format="1">
	<unicode hex="0291"/>
	<advance width="600"/>
	<outline>
		<contour>
			<point x="283" y="-114" type="line"/>
			<point x="361" y="97"/>
			<point x="426" y="167"/>
			<point x="465" y="167" type="curve" smooth="yes"/>
			<point x="482" y="167"/>
			<point x="491" y="159"/>
			<point x="491" y="145" type="curve" smooth="yes"/>
			<point x="491" y="123"/>
			<point x="468" y="97"/>
			<point x="418" y="97" type="curve" smooth="yes"/>
			<point x="349" y="97"/>
			<point x="282" y="98"/>
			<point x="212" y="105" type="curve"/>
			<point x="517" y="415" type="line"/>
			<point x="532" y="496" type="line"/>
			<point x="122" y="496" type="line"/>
			<point x="99" y="391" type="line"/>
			<point x="339" y="391" type="line"/>
			<point x="38" y="81" type="line"/>
			<point x="22" y="0" type="line"/>
			<point x="361" y="0" type="line" smooth="yes"/>
			<point x="506" y="0"/>
			<point x="568" y="84"/>
			<point x="568" y="168" type="curve" smooth="yes"/>
			<point x="568" y="218"/>
			<point x="540" y="246"/>
			<point x="484" y="246" type="curve" smooth="yes"/>
			<point x="389" y="246"/>
			<point x="297" y="116"/>
			<point x="216" y="-99" type="curve"/>
		</contour>
		<contour>
			<point name="aboveLC" x="328" y="516" type="move"/>
		</contour>
	</outline>
</glyph>
<glyph name="ezh" format="1">
	<unicode hex="0292"/>
	<advance width="600"/>
	<outline>
		<contour>
			<point x="193" y="-196" type="curve" smooth="yes"/>
			<point x="357" y="-196"/>
			<point x="480" y="-76"/>
			<point x="480" y="62" type="curve" smooth="yes"/>
			<point x="480" y="149"/>
			<point x="420" y="216"/>
			<point x="317" y="223" type="curve"/>
			<point x="529" y="417" type="line"/>
			<point x="544" y="496" type="line"/>
			<point x="136" y="496" type="line"/>
			<point x="115" y="389" type="line"/>
			<point x="353" y="389" type="line"/>
			<point x="131" y="188" type="line"/>
			<point x="163" y="119" type="line"/>
			<point x="192" y="130"/>
			<point x="205" y="132"/>
			<point x="236" y="132" type="curve" smooth="yes"/>
			<point x="296" y="132"/>
			<point x="341" y="103"/>
			<point x="341" y="39" type="curve" smooth="yes"/>
			<point x="341" y="-33"/>
			<point x="279" y="-88"/>
			<point x="199" y="-88" type="curve" smooth="yes"/>
			<point x="134" y="-88"/>
			<point x="88" y="-61"/>
			<point x="55" y="-25" type="curve"/>
			<point x="-16" y="-104" type="line"/>
			<point x="23" y="-154"/>
			<point x="93" y="-196"/>
		</contour>
		<contour>
			<point name="aboveLC" x="331" y="522" type="move"/>
		</contour>
		<contour>
			<point name="belowLC" x="198" y="-210" type="move"/>
		</contour>
	</outline>
</glyph>
<glyph name="glottalstop" format="2">
	<unicode hex="0294"/>
	<advance width="600"/>
	<outline>
		<contour>
			<point x="148" y="0" type="line"/>
			<point x="285" y="0" type="line"/>
			<point x="336" y="263" type="line"/>
			<point x="478" y="340"/>
			<point x="562" y="424"/>
			<point x="562" y="540" type="curve" smooth="yes"/>
			<point x="562" y="653"/>
			<point x="467" y="713"/>
			<point x="355" y="713" type="curve" smooth="yes"/>
			<point x="254" y="713"/>
			<point x="193" y="682"/>
			<point x="124" y="632" type="curve"/>
			<point x="178" y="540" type="line"/>
			<point x="234" y="580"/>
			<point x="277" y="604"/>
			<point x="332" y="604" type="curve" smooth="yes"/>
			<point x="386" y="604"/>
			<point x="420" y="576"/>
			<point x="420" y="524" type="curve" smooth="yes"/>
			<point x="420" y="457"/>
			<point x="378" y="393"/>
			<point x="212" y="314" type="curve"/>
		</contour>
	</outline>
	<anchor name="aboveUC" x="378" y="732"/>
	<anchor name="belowLC" x="218" y="-20"/>
</glyph>
<glyph name="glottalstopreversed" format="1">
	<unicode hex="0295"/>
	<advance width="600"/>
	<outline>
		<contour>
			<point x="190" y="0" type="line"/>
			<point x="327" y="0" type="line"/>
			<point x="389" y="314" type="line"/>
			<point x="288" y="384"/>
			<point x="259" y="428"/>
			<point x="259" y="496" type="curve" smooth="yes"/>
			<point x="259" y="556"/>
			<point x="301" y="604"/>
			<point x="370" y="604" type="curve" smooth="yes"/>
			<point x="433" y="604"/>
			<point x="474" y="579"/>
			<point x="516" y="532" type="curve"/>
			<point x="593" y="609" type="line"/>
			<point x="548" y="668"/>
			<point x="478" y="713"/>
			<point x="368" y="713" type="curve" smooth="yes"/>
			<point x="229" y="713"/>
			<point x="117" y="620"/>
			<point x="117" y="480" type="curve" smooth="yes"/>
			<point x="117" y="393"/>
			<point x="168" y="329"/>
			<point x="242" y="260" type="curve"/>
		</contour>
		<contour>
			<point name="aboveUC" x="384" y="732" type="move"/>
		</contour>
		<contour>
			<point name="belowLC" x="260" y="-20" type="move"/>
		</contour>
	</outline>
</glyph>
<glyph name="clickbilabial" format="1">
	<unicode hex="0298"/>
	<advance width="600"/>
	<outline>
		<contour>
			<point x="253" y="-12" type="curve" smooth="yes"/>
			<point x="448" y="-12"/>
			<point x="565" y="209"/>
			<point x="565" y="468" type="curve" smooth="yes"/>
			<point x="565" y="614"/>
			<point x="490" y="713"/>
			<point x="362" y="713" type="curve" smooth="yes"/>
			<point x="167" y="713"/>
			<point x="50" y="492"/>
			<point x="50" y="233" type="curve" smooth="yes"/>
			<point x="50" y="87"/>
			<point x="125" y="-12"/>
		</contour>
		<contour>
			<point x="261" y="100" type="curve" smooth="yes"/>
			<point x="206" y="100"/>
			<point x="177" y="144"/>
			<point x="177" y="230" type="curve" smooth="yes"/>
			<point x="177" y="431"/>
			<point x="261" y="601"/>
			<point x="354" y="601" type="curve" smooth="yes"/>
			<point x="409" y="601"/>
			<point x="438" y="557"/>
			<point x="438" y="470" type="curve" smooth="yes"/>
			<point x="438" y="270"/>
			<point x="354" y="100"/>
		</contour>
		<contour>
			<point x="306" y="281" type="curve" smooth="yes"/>
			<point x="348" y="281"/>
			<point x="379" y="319"/>
			<point x="379" y="362" type="curve" smooth="yes"/>
			<point x="379" y="403"/>
			<point x="354" y="424"/>
			<point x="317" y="424" type="curve" smooth="yes"/>
			<point x="275" y="424"/>
			<point x="244" y="387"/>
			<point x="244" y="343" type="curve" smooth="yes"/>
			<point x="244" y="302"/>
			<point x="269" y="281"/>
		</contour>
	</outline>
</glyph>
<glyph name="hsmall" format="2">
	<unicode hex="029C"/>
	<advance width="600"/>
	<outline>
		<contour>
			<point x="17" y="1" type="line"/>
			<point x="154" y="1" type="line"/>
			<point x="192" y="194" type="line"/>
			<point x="363" y="194" type="line"/>
			<point x="325" y="1" type="line"/>
			<point x="461" y="1" type="line"/>
			<point x="559" y="497" type="line"/>
			<point x="422" y="497" type="line"/>
			<point x="387" y="313" type="line"/>
			<point x="216" y="313" type="line"/>
			<point x="251" y="497" type="line"/>
			<point x="115" y="497" type="line"/>
		</contour>
	</outline>
	<anchor name="aboveLC" x="332" y="516"/>
	<anchor name="belowLC" x="234" y="-20"/>
</glyph>
<glyph name="jcrossedtail" format="1">
	<unicode hex="029D"/>
	<advance width="600"/>
	<outline>
		<component base="jcrossedtail.d"/>
		<component base="dotaccentcmb" xOffset="57"/>
		<contour>
			<point name="belowLC" x="163" y="-205" type="move"/>
		</contour>
	</outline>
</glyph>
<glyph name="kturned" format="1">
	<unicode hex="029E"/>
	<advance width="600"/>
	<outline>
		<contour>
			<point x="286" y="-184" type="line"/>
			<point x="422" y="-184" type="line"/>
			<point x="559" y="496" type="line"/>
			<point x="422" y="496" type="line"/>
			<point x="399" y="378" type="line"/>
			<point x="238" y="243" type="line"/>
			<point x="-29" y="0" type="line"/>
			<point x="130" y="0" type="line"/>
			<point x="361" y="205" type="line"/>
			<point x="365" y="205" type="line"/>
		</contour>
		<contour>
			<point x="210" y="174" type="line"/>
			<point x="299" y="267" type="line"/>
			<point x="195" y="496" type="line"/>
			<point x="56" y="496" type="line"/>
		</contour>
		<contour>
			<point name="aboveLC" x="318" y="516" type="move"/>
		</contour>
		<contour>
			<point name="belowLC" x="350" y="-205" type="move"/>
		</contour>
	</outline>
</glyph>
<glyph name="lsmall" format="2">
	<unicode hex="029F"/>
	<advance width="600"/>
	<outline>
		<contour>
			<point x="77" y="0" type="line"/>
			<point x="482" y="0" type="line"/>
			<point x="504" y="107" type="line"/>
			<point x="235" y="107" type="line"/>
			<point x="311" y="496" type="line"/>
			<point x="175" y="496" type="line"/>
		</contour>
	</outline>
	<anchor name="aboveLC" x="240" y="516"/>
	<anchor name="belowLC" x="294" y="-20"/>
</glyph>
<glyph name="glottalstopstroke" format="1">
	<unicode hex="02A1"/>
	<advance width="600"/>
	<outline>
		<contour>
			<point x="148" y="0" type="line"/>
			<point x="285" y="0" type="line"/>
			<point x="332" y="238" type="line"/>
			<point x="502" y="238" type="line"/>
			<point x="518" y="311" type="line"/>
			<point x="390" y="311" type="line"/>
			<point x="495" y="374"/>
			<point x="562" y="446"/>
			<point x="562" y="539" type="curve" smooth="yes"/>
			<point x="562" y="653"/>
			<point x="467" y="712"/>
			<point x="355" y="712" type="curve" smooth="yes"/>
			<point x="254" y="712"/>
			<point x="193" y="683"/>
			<point x="124" y="632" type="curve"/>
			<point x="178" y="540" type="line"/>
			<point x="234" y="580"/>
			<point x="277" y="604"/>
			<point x="332" y="604" type="curve" smooth="yes"/>
			<point x="386" y="604"/>
			<point x="420" y="576"/>
			<point x="420" y="524" type="curve" smooth="yes"/>
			<point x="420" y="457"/>
			<point x="377" y="391"/>
			<point x="211" y="311" type="curve"/>
			<point x="82" y="305" type="line"/>
			<point x="68" y="238" type="line"/>
			<point x="196" y="238" type="line"/>
		</contour>
		<contour>
			<point name="aboveUC" x="378" y="732" type="move"/>
		</contour>
		<contour>
			<point name="belowLC" x="218" y="-20" type="move"/>
		</contour>
	</outline>
</glyph>
<glyph name="glottalstopstrokereversed" format="2">
	<unicode hex="02A2"/>
	<advance width="600"/>
	<outline>
		<contour>
			<point x="190" y="0" type="line"/>
			<point x="327" y="0" type="line"/>
			<point x="375" y="238" type="line"/>
			<point x="505" y="238" type="line"/>
			<point x="521" y="311" type="line"/>
			<point x="376" y="311" type="line"/>
			<point x="298" y="372"/>
			<point x="259" y="420"/>
			<point x="259" y="496" type="curve" smooth="yes"/>
			<point x="259" y="556"/>
			<point x="301" y="604"/>
			<point x="370" y="604" type="curve" smooth="yes"/>
			<point x="433" y="604"/>
			<point x="474" y="579"/>
			<point x="516" y="532" type="curve"/>
			<point x="593" y="608" type="line"/>
			<point x="548" y="668"/>
			<point x="478" y="712"/>
			<point x="368" y="712" type="curve" smooth="yes"/>
			<point x="229" y="712"/>
			<point x="117" y="620"/>
			<point x="117" y="480" type="curve" smooth="yes"/>
			<point x="117" y="417"/>
			<point x="148" y="361"/>
			<point x="209" y="311" type="curve"/>
			<point x="85" y="305" type="line"/>
			<point x="71" y="238" type="line"/>
			<point x="238" y="238" type="line"/>
		</contour>
	</outline>
</glyph>
<glyph name="ts" format="1">
	<unicode hex="02A6"/>
	<advance width="600"/>
	<outline>
		<contour>
			<point x="267" y="-12" type="curve" smooth="yes"/>
			<point x="471" y="-12"/>
			<point x="552" y="64"/>
			<point x="552" y="169" type="curve" smooth="yes"/>
			<point x="552" y="290"/>
			<point x="424" y="303"/>
			<point x="424" y="362" type="curve" smooth="yes"/>
			<point x="424" y="388"/>
			<point x="440" y="406"/>
			<point x="466" y="406" type="curve" smooth="yes"/>
			<point x="491" y="406"/>
			<point x="508" y="395"/>
			<point x="528" y="376" type="curve"/>
			<point x="594" y="450" type="line"/>
			<point x="561" y="484"/>
			<point x="521" y="508"/>
			<point x="468" y="508" type="curve" smooth="yes"/>
			<point x="373" y="508"/>
			<point x="296" y="441"/>
			<point x="296" y="349" type="curve" smooth="yes"/>
			<point x="296" y="229"/>
			<point x="423" y="231"/>
			<point x="423" y="153" type="curve" smooth="yes"/>
			<point x="423" y="119"/>
			<point x="395" y="91"/>
			<point x="302" y="91" type="curve" smooth="yes"/>
			<point x="224" y="91"/>
			<point x="187" y="115"/>
			<point x="187" y="165" type="curve" smooth="yes"/>
			<point x="187" y="183"/>
			<point x="191" y="197"/>
			<point x="195" y="216" type="curve" smooth="yes"/>
			<point x="230" y="389" type="line"/>
			<point x="394" y="389" type="line"/>
			<point x="415" y="496" type="line"/>
			<point x="253" y="496" type="line"/>
			<point x="285" y="648" type="line"/>
			<point x="173" y="648" type="line"/>
			<point x="122" y="496" type="line"/>
			<point x="49" y="490" type="line"/>
			<point x="29" y="389" type="line"/>
			<point x="95" y="389" type="line"/>
			<point x="60" y="222" type="line" smooth="yes"/>
			<point x="54" y="196"/>
			<point x="47" y="168"/>
			<point x="47" y="141" type="curve" smooth="yes"/>
			<point x="47" y="51"/>
			<point x="111" y="-12"/>
		</contour>
		<contour>
			<point name="aboveLC" x="386" y="642" type="move"/>
		</contour>
		<contour>
			<point name="belowLC" x="275" y="-20" type="move"/>
		</contour>
	</outline>
</glyph>
<glyph name="verticallinemod" format="1">
	<unicode hex="02C8"/>
	<advance width="600"/>
	<outline>
		<contour>
			<point x="274" y="381" type="line"/>
			<point x="358" y="381" type="line"/>
			<point x="459" y="736" type="line"/>
			<point x="316" y="736" type="line"/>
		</contour>
	</outline>
</glyph>
<glyph name="colontriangularhalfmod" format="2">
	<unicode hex="02D1"/>
	<advance width="600"/>
	<outline>
		<contour>
			<point x="292" y="310" type="line"/>
			<point x="305" y="310" type="line"/>
			<point x="454" y="496" type="line"/>
			<point x="216" y="496" type="line"/>
		</contour>
	</outline>
</glyph>
<glyph name="hookrhoticmod" format="1">
	<unicode hex="02DE"/>
	<advance width="600"/>
	<outline>
		<contour>
			<point x="395" y="226" type="curve" smooth="yes"/>
			<point x="428" y="226"/>
			<point x="454" y="238"/>
			<point x="477" y="251" type="curve"/>
			<point x="462" y="320" type="line"/>
			<point x="451" y="314"/>
			<point x="437" y="309"/>
			<point x="421" y="309" type="curve" smooth="yes"/>
			<point x="396" y="309"/>
			<point x="381" y="339"/>
			<point x="386" y="454" type="curve"/>
			<point x="190" y="373" type="line"/>
			<point x="169" y="268" type="line"/>
			<point x="302" y="323" type="line"/>
			<point x="311" y="248"/>
			<point x="350" y="226"/>
		</contour>
	</outline>
</glyph>
<glyph name="gravecmb" format="1">
	<unicode hex="0300"/>
	<advance width="600"/>
	<outline>
		<contour>
			<point x="387" y="569" type="line"/>
			<point x="471" y="634" type="line"/>
			<point x="350" y="827" type="line"/>
			<point x="233" y="740" type="line"/>
		</contour>
		<contour>
			<point name="_aboveLC" x="340" y="516" type="move"/>
		</contour>
		<contour>
			<point name="aboveLC" x="300" y="516" type="move"/>
		</contour>
	</outline>
</glyph>
<glyph name="brevecmb" format="2">
	<unicode hex="0306"/>
	<advance width="600"/>
	<outline>
		<contour>
			<point x="354" y="572" type="curve" smooth="yes"/>
			<point x="469" y="572"/>
			<point x="533" y="641"/>
			<point x="551" y="729" type="curve"/>
			<point x="471" y="743" type="line"/>
			<point x="456" y="700"/>
			<point x="424" y="664"/>
			<point x="372" y="664" type="curve" smooth="yes"/>
			<point x="319" y="664"/>
			<point x="298" y="700"/>
			<point x="300" y="743" type="curve"/>
			<point x="213" y="729" type="line"/>
			<point x="201" y="641"/>
			<point x="240" y="572"/>
		</contour>
	</outline>
	<anchor name="_aboveLC" x="340" y="516"/>
	<anchor name="aboveLC" x="300" y="516"/>
</glyph>
<glyph name="hoicmb" format="1">
	<unicode hex="0309"/>
	<advance width="600"/>
	<outline>
		<contour>
			<point x="305" y="568" type="line"/>
			<point x="381" y="574"/>
			<point x="453" y="604"/>
			<point x="466" y="672" type="curve" smooth="yes"/>
			<point x="479" y="742"/>
			<point x="441" y="790"/>
			<point x="310" y="793" type="curve"/>
			<point x="285" y="703" type="line"/>
			<point x="341" y="699"/>
			<point x="361" y="685"/>
			<point x="356" y="661" type="curve" smooth="yes"/>
			<point x="352" y="640"/>
			<point x="330" y="631"/>
			<point x="305" y="626" type="curve"/>
		</contour>
		<contour>
			<point name="_aboveLC" x="340" y="516" type="move"/>
		</contour>
		<contour>
			<point name="aboveLC" x="382" y="764" type="move"/>
		</contour>
	</outline>
</glyph>
<glyph name="ringcmb" format="1">
	<unicode hex="030A"/>
	<advance width="600"/>
	<outline>
		<contour>
			<point x="356" y="566" type="curve" smooth="yes"/>
			<point x="440" y="566"/>
			<point x="500" y="616"/>
			<point x="500" y="681" type="curve" smooth="yes"/>
			<point x="500" y="737"/>
			<point x="453" y="770"/>
			<point x="386" y="770" type="curve" smooth="yes"/>
			<point x="302" y="770"/>
			<point x="242" y="720"/>
			<point x="242" y="655" type="curve" smooth="yes"/>
			<point x="242" y="599"/>
			<point x="290" y="566"/>
		</contour>
		<contour>
			<point x="365" y="619" type="curve" smooth="yes"/>
			<point x="340" y="619"/>
			<point x="328" y="636"/>
			<point x="328" y="659" type="curve" smooth="yes"/>
			<point x="328" y="690"/>
			<point x="351" y="717"/>
			<point x="377" y="717" type="curve" smooth="yes"/>
			<point x="402" y="717"/>
			<point x="414" y="698"/>
			<point x="414" y="677" type="curve" smooth="yes"/>
			<point x="414" y="646"/>
			<point x="392" y="619"/>
		</contour>
		<contour>
			<point name="_aboveLC" x="340" y="516" type="move"/>
		</contour>
		<contour>
			<point name="aboveLC" x="300" y="516" type="move"/>
		</contour>
	</outline>
</glyph>
<glyph name="hungarumlautcmb" format="1">
	<unicode hex="030B"/>
	<advance width="600"/>
	<outline>
		<contour>
			<point x="307" y="567" type="line"/>
			<point x="445" y="727" type="line"/>
			<point x="356" y="780" type="line"/>
			<point x="236" y="609" type="line"/>
		</contour>
		<contour>
			<point x="486" y="567" type="line"/>
			<point x="624" y="727" type="line"/>
			<point x="535" y="780" type="line"/>
			<point x="415" y="609" type="line"/>
		</contour>
		<contour>
			<point name="_aboveLC" x="340" y="516" type="move"/>
		</contour>
	</outline>
</glyph>
<glyph name="candrabinducmb" format="2">
	<unicode hex="0310"/>
	<advance width="600"/>
	<outline>
		<contour>
			<point x="352" y="572" type="curve" smooth="yes"/>
			<point x="477" y="572"/>
			<point x="548" y="641"/>
			<point x="568" y="729" type="curve"/>
			<point x="495" y="743" type="line"/>
			<point x="479" y="695"/>
			<point x="434" y="655"/>
			<point x="368" y="655" type="curve" smooth="yes"/>
			<point x="304" y="655"/>
			<point x="281" y="695"/>
			<point x="283" y="743" type="curve"/>
			<point x="206" y="729" type="line"/>
			<point x="193" y="641"/>
			<point x="233" y="572"/>
		</contour>
		<contour>
			<point x="383" y="702" type="curve" smooth="yes"/>
			<point x="428" y="702"/>
			<point x="470" y="742"/>
			<point x="470" y="789" type="curve" smooth="yes"/>
			<point x="470" y="831"/>
			<point x="440" y="850"/>
			<point x="405" y="850" type="curve" smooth="yes"/>
			<point x="360" y="850"/>
			<point x="318" y="809"/>
			<point x="318" y="762" type="curve" smooth="yes"/>
			<point x="318" y="721"/>
			<point x="348" y="702"/>
		</contour>
	</outline>
	<anchor name="_aboveLC" x="340" y="516"/>
</glyph>
<glyph name="righttackbelowcmb" format="2">
	<unicode hex="0319"/>
	<advance width="600"/>
	<outline>
		<contour>
			<point x="91" y="-257" type="line"/>
			<point x="166" y="-257" type="line"/>
			<point x="179" y="-191" type="line"/>
			<point x="284" y="-191" type="line"/>
			<point x="298" y="-120" type="line"/>
			<point x="193" y="-120" type="line"/>
			<point x="206" y="-54" type="line"/>
			<point x="132" y="-54" type="line"/>
		</contour>
	</outline>
	<anchor name="_belowLC" x="234" y="-20"/>
</glyph>
<glyph name="leftangleabovecmb" format="2">
	<unicode hex="031A"/>
	<advance width="600"/>
	<outline>
		<contour>
			<point x="394" y="574" type="line"/>
			<point x="469" y="574" type="line"/>
			<point x="498" y="724" type="line"/>
			<point x="318" y="724" type="line"/>
			<point x="304" y="653" type="line"/>
			<point x="410" y="653" type="line"/>
		</contour>
	</outline>
	<anchor name="_aboverightLC" x="362" y="516"/>
</glyph>
<glyph name="horncmb" format="2">
	<unicode hex="031B"/>
	<advance width="600"/>
	<outline>
		<contour>
			<point x="328" y="427" type="line"/>
			<point x="478" y="442"/>
			<point x="531" y="502"/>
			<point x="531" y="606" type="curve" smooth="yes"/>
			<point x="531" y="635"/>
			<point x="527" y="654"/>
			<point x="516" y="684" type="curve"/>
			<point x="414" y="652" type="line"/>
			<point x="420" y="634"/>
			<point x="424" y="617"/>
			<point x="424" y="599" type="curve" smooth="yes"/>
			<point x="424" y="532"/>
			<point x="389" y="494"/>
			<point x="328" y="486" type="curve"/>
		</contour>
	</outline>
	<anchor name="_hornLC" x="240" y="496"/>
</glyph>
<glyph name="ringhalfleftbelowcmb" format="2">
	<unicode hex="031C"/>
	<advance width="600"/>
	<outline>
		<contour>
			<point x="249" y="-259" type="curve"/>
			<point x="260" y="-206" type="line"/>
			<point x="227" y="-206"/>
			<point x="210" y="-188"/>
			<point x="210" y="-163" type="curve" smooth="yes"/>
			<point x="210" y="-134"/>
			<point x="234" y="-111"/>
			<point x="278" y="-109" type="curve"/>
			<point x="288" y="-56" type="line"/>
			<point x="183" y="-56"/>
			<point x="124" y="-104"/>
			<point x="124" y="-170" type="curve" smooth="yes"/>
			<point x="124" y="-227"/>
			<point x="172" y="-263"/>
		</contour>
	</outline>
	<anchor name="_belowLC" x="234" y="-20"/>
</glyph>
<glyph name="uptackbelowcmb" format="2">
	<unicode hex="031D"/>
	<advance width="600"/>
	<outline>
		<contour>
			<point x="88" y="-229" type="line"/>
			<point x="296" y="-229" type="line"/>
			<point x="310" y="-158" type="line"/>
			<point x="244" y="-158" type="line"/>
			<point x="265" y="-54" type="line"/>
			<point x="190" y="-54" type="line"/>
			<point x="170" y="-158" type="line"/>
			<point x="103" y="-158" type="line"/>
		</contour>
	</outline>
	<anchor name="_belowLC" x="234" y="-20"/>
</glyph>
<glyph name="downtackbelowcmb" format="2">
	<unicode hex="031E"/>
	<advance width="600"/>
	<outline>
		<contour>
			<point x="150" y="-257" type="line"/>
			<point x="224" y="-257" type="line"/>
			<point x="245" y="-152" type="line"/>
			<point x="311" y="-152" type="line"/>
			<point x="325" y="-82" type="line"/>
			<point x="118" y="-82" type="line"/>
			<point x="104" y="-152" type="line"/>
			<point x="171" y="-152" type="line"/>
		</contour>
	</outline>
	<anchor name="_belowLC" x="234" y="-20"/>
</glyph>
<glyph name="minusbelowcmb" format="1">
	<unicode hex="0320"/>
	<advance width="600"/>
	<outline>
		<contour>
			<point x="96" y="-191" type="line"/>
			<point x="304" y="-191" type="line"/>
			<point x="318" y="-120" type="line"/>
			<point x="110" y="-120" type="line"/>
		</contour>
		<contour>
			<point name="_belowLC" x="234" y="-20" type="move"/>
		</contour>
	</outline>
</glyph>
<glyph name="commabelowcmb" format="1">
	<unicode hex="0326"/>
	<advance width="600"/>
	<outline>
		<contour>
			<point x="94" y="-239" type="line"/>
			<point x="220" y="-235"/>
			<point x="313" y="-202"/>
			<point x="313" y="-124" type="curve" smooth="yes"/>
			<point x="313" y="-86"/>
			<point x="290" y="-57"/>
			<point x="186" y="-52" type="curve"/>
			<point x="148" y="-106" type="line"/>
			<point x="191" y="-106"/>
			<point x="205" y="-122"/>
			<point x="205" y="-137" type="curve" smooth="yes"/>
			<point x="205" y="-161"/>
			<point x="174" y="-177"/>
			<point x="96" y="-180" type="curve"/>
		</contour>
		<contour>
			<point name="_belowLC" x="234" y="-20" type="move"/>
		</contour>
	</outline>
</glyph>
<glyph name="verticallinebelowcmb" format="2">
	<unicode hex="0329"/>
	<advance width="600"/>
	<outline>
		<contour>
			<point x="131" y="-269" type="line"/>
			<point x="242" y="-269" type="line"/>
			<point x="272" y="-64" type="line"/>
			<point x="179" y="-64" type="line"/>
		</contour>
	</outline>
	<anchor name="_belowLC" x="234" y="-20"/>
</glyph>
<glyph name="bridgebelowcmb" format="1">
	<unicode hex="032A"/>
	<advance width="600"/>
	<outline>
		<contour>
			<point x="73" y="-220" type="line"/>
			<point x="142" y="-220" type="line"/>
			<point x="156" y="-149" type="line"/>
			<point x="264" y="-149" type="line"/>
			<point x="250" y="-220" type="line"/>
			<point x="319" y="-220" type="line"/>
			<point x="348" y="-78" type="line"/>
			<point x="101" y="-78" type="line"/>
		</contour>
		<contour>
			<point name="_belowLC" x="234" y="-20" type="move"/>
		</contour>
	</outline>
</glyph>
<glyph name="tildebelowcmb" format="1">
	<unicode hex="0330"/>
	<advance width="600"/>
	<outline>
		<component base="tildecmb" xOffset="-159" yOffset="-800"/>
		<contour>
			<point name="_belowLC" x="234" y="-20" type="move"/>
		</contour>
	</outline>
</glyph>
<glyph name="bridgeinvertedbelowcmb" format="2">
	<unicode hex="033A"/>
	<advance width="600"/>
	<outline>
		<contour>
			<point x="74" y="-214" type="line"/>
			<point x="321" y="-214" type="line"/>
			<point x="349" y="-72" type="line"/>
			<point x="279" y="-72" type="line"/>
			<point x="265" y="-143" type="line"/>
			<point x="157" y="-143" type="line"/>
			<point x="171" y="-72" type="line"/>
			<point x="103" y="-72" type="line"/>
		</contour>
	</outline>
	<anchor name="_belowLC" x="234" y="-20"/>
</glyph>
<glyph name="squarebelowcmb" format="1">
	<unicode hex="033B"/>
	<advance width="600"/>
	<outline>
		<contour>
			<point x="67" y="-247" type="line"/>
			<point x="314" y="-247" type="line"/>
			<point x="349" y="-66" type="line"/>
			<point x="103" y="-66" type="line"/>
		</contour>
		<contour>
			<point x="148" y="-193" type="line"/>
			<point x="162" y="-119" type="line"/>
			<point x="270" y="-119" type="line"/>
			<point x="255" y="-193" type="line"/>
		</contour>
		<contour>
			<point name="_belowLC" x="234" y="-20" type="move"/>
		</contour>
	</outline>
</glyph>
<glyph name="xabovecmb" format="2">
	<unicode hex="033D"/>
	<advance width="600"/>
	<outline>
		<contour>
			<point x="298" y="541" type="line"/>
			<point x="358" y="592" type="line"/>
			<point x="397" y="541" type="line"/>
			<point x="455" y="590" type="line"/>
			<point x="415" y="641" type="line"/>
			<point x="475" y="692" type="line"/>
			<point x="437" y="742" type="line"/>
			<point x="377" y="691" type="line"/>
			<point x="339" y="742" type="line"/>
			<point x="281" y="692" type="line"/>
			<point x="320" y="641" type="line"/>
			<point x="260" y="590" type="line"/>
		</contour>
	</outline>
	<anchor name="_aboveLC" x="340" y="516"/>
</glyph>
<glyph name="dieresistonoscmb" format="2">
	<unicode hex="0344"/>
	<advance width="600"/>
	<outline>
		<contour>
			<point x="241" y="586" type="curve" smooth="yes"/>
			<point x="279" y="586"/>
			<point x="305" y="615"/>
			<point x="305" y="648" type="curve" smooth="yes"/>
			<point x="305" y="675"/>
			<point x="283" y="692"/>
			<point x="261" y="692" type="curve" smooth="yes"/>
			<point x="224" y="692"/>
			<point x="198" y="663"/>
			<point x="198" y="630" type="curve" smooth="yes"/>
			<point x="198" y="602"/>
			<point x="220" y="586"/>
		</contour>
		<contour>
			<point x="302" y="564" type="line"/>
			<point x="357" y="564" type="line"/>
			<point x="465" y="749" type="line"/>
			<point x="370" y="749" type="line"/>
		</contour>
		<contour>
			<point x="474" y="586" type="curve" smooth="yes"/>
			<point x="511" y="586"/>
			<point x="537" y="615"/>
			<point x="537" y="648" type="curve" smooth="yes"/>
			<point x="537" y="675"/>
			<point x="516" y="692"/>
			<point x="494" y="692" type="curve" smooth="yes"/>
			<point x="456" y="692"/>
			<point x="431" y="663"/>
			<point x="431" y="630" type="curve" smooth="yes"/>
			<point x="431" y="602"/>
			<point x="452" y="586"/>
		</contour>
	</outline>
	<anchor name="_aboveLC" x="340" y="516"/>
</glyph>
<glyph name="breveinverteddoublecmb" format="1">
	<unicode hex="0361"/>
	<advance width="600"/>
	<outline>
		<contour>
			<point x="-50" y="586" type="line"/>
			<point x="90" y="659"/>
			<point x="253" y="683"/>
			<point x="374" y="683" type="curve" smooth="yes"/>
			<point x="496" y="683"/>
			<point x="650" y="659"/>
			<point x="760" y="586" type="curve"/>
			<point x="810" y="653" type="line"/>
			<point x="694" y="737"/>
			<point x="548" y="777"/>
			<point x="393" y="777" type="curve" smooth="yes"/>
			<point x="239" y="777"/>
			<point x="76" y="737"/>
			<point x="-73" y="653" type="curve"/>
		</contour>
	</outline>
</glyph>
<glyph name="a.sups" format="2">
	<unicode hex="1D43"/>
	<advance width="600"/>
	<outline>
		<contour>
			<point x="269" y="367" type="curve" smooth="yes"/>
			<point x="315" y="367"/>
			<point x="352" y="388"/>
			<point x="381" y="411" type="curve"/>
			<point x="383" y="411" type="line"/>
			<point x="384" y="375" type="line"/>
			<point x="463" y="375" type="line"/>
			<point x="527" y="703" type="line"/>
			<point x="453" y="703" type="line"/>
			<point x="438" y="670" type="line"/>
			<point x="435" y="670" type="line"/>
			<point x="414" y="698"/>
			<point x="387" y="711"/>
			<point x="354" y="711" type="curve" smooth="yes"/>
			<point x="257" y="711"/>
			<point x="169" y="628"/>
			<point x="169" y="496" type="curve" smooth="yes"/>
			<point x="169" y="409"/>
			<point x="209" y="367"/>
		</contour>
		<contour>
			<point x="319" y="445" type="curve" smooth="yes"/>
			<point x="288" y="445"/>
			<point x="269" y="465"/>
			<point x="269" y="508" type="curve" smooth="yes"/>
			<point x="269" y="586"/>
			<point x="315" y="632"/>
			<point x="358" y="632" type="curve" smooth="yes"/>
			<point x="382" y="632"/>
			<point x="398" y="624"/>
			<point x="412" y="610" type="curve"/>
			<point x="387" y="476" type="line"/>
			<point x="365" y="456"/>
			<point x="341" y="445"/>
		</contour>
	</outline>
</glyph>
<glyph name="e.sups" format="2">
	<unicode hex="1D49"/>
	<advance width="600"/>
	<outline>
		<contour>
			<point x="319" y="367" type="curve" smooth="yes"/>
			<point x="374" y="367"/>
			<point x="434" y="385"/>
			<point x="473" y="412" type="curve"/>
			<point x="439" y="478" type="line"/>
			<point x="411" y="460"/>
			<point x="378" y="444"/>
			<point x="341" y="444" type="curve" smooth="yes"/>
			<point x="303" y="444"/>
			<point x="271" y="460"/>
			<point x="271" y="511" type="curve" smooth="yes"/>
			<point x="271" y="600"/>
			<point x="317" y="640"/>
			<point x="364" y="640" type="curve" smooth="yes"/>
			<point x="404" y="640"/>
			<point x="419" y="604"/>
			<point x="411" y="563" type="curve"/>
			<point x="445" y="571" type="line"/>
			<point x="252" y="571" type="line"/>
			<point x="251" y="513" type="line"/>
			<point x="483" y="513" type="line"/>
			<point x="488" y="527"/>
			<point x="497" y="557"/>
			<point x="497" y="594" type="curve" smooth="yes"/>
			<point x="497" y="660"/>
			<point x="457" y="711"/>
			<point x="371" y="711" type="curve" smooth="yes"/>
			<point x="272" y="711"/>
			<point x="173" y="640"/>
			<point x="173" y="508" type="curve" smooth="yes"/>
			<point x="173" y="419"/>
			<point x="233" y="367"/>
		</contour>
	</outline>
</glyph>
<glyph name="m.sups" format="2">
	<unicode hex="1D50"/>
	<advance width="600"/>
	<outline>
		<contour>
			<point x="76" y="375" type="line"/>
			<point x="172" y="375" type="line"/>
			<point x="214" y="589" type="line"/>
			<point x="239" y="616"/>
			<point x="264" y="631"/>
			<point x="278" y="631" type="curve" smooth="yes"/>
			<point x="300" y="631"/>
			<point x="308" y="618"/>
			<point x="308" y="597" type="curve" smooth="yes"/>
			<point x="308" y="588"/>
			<point x="306" y="579"/>
			<point x="303" y="567" type="curve" smooth="yes"/>
			<point x="266" y="375" type="line"/>
			<point x="360" y="375" type="line"/>
			<point x="402" y="589" type="line"/>
			<point x="427" y="617"/>
			<point x="452" y="631"/>
			<point x="467" y="631" type="curve" smooth="yes"/>
			<point x="488" y="631"/>
			<point x="494" y="619"/>
			<point x="494" y="600" type="curve" smooth="yes"/>
			<point x="494" y="589"/>
			<point x="493" y="579"/>
			<point x="491" y="567" type="curve" smooth="yes"/>
			<point x="453" y="375" type="line"/>
			<point x="548" y="375" type="line"/>
			<point x="589" y="579" type="line" smooth="yes"/>
			<point x="592" y="594"/>
			<point x="594" y="612"/>
			<point x="594" y="625" type="curve" smooth="yes"/>
			<point x="594" y="682"/>
			<point x="573" y="713"/>
			<point x="518" y="713" type="curve" smooth="yes"/>
			<point x="475" y="713"/>
			<point x="438" y="684"/>
			<point x="405" y="655" type="curve"/>
			<point x="395" y="689"/>
			<point x="375" y="713"/>
			<point x="331" y="713" type="curve" smooth="yes"/>
			<point x="288" y="713"/>
			<point x="252" y="689"/>
			<point x="222" y="660" type="curve"/>
			<point x="218" y="660" type="line"/>
			<point x="219" y="705" type="line"/>
			<point x="141" y="705" type="line"/>
		</contour>
	</outline>
</glyph>
<glyph name="endash" format="2">
	<unicode hex="2013"/>
	<advance width="600"/>
	<outline>
		<contour>
			<point x="59" y="202" type="line"/>
			<point x="499" y="202" type="line"/>
			<point x="520" y="305" type="line"/>
			<point x="80" y="305" type="line"/>
		</contour>
	</outline>
</glyph>
<glyph name="emdash" format="1">
	<unicode hex="2014"/>
	<advance width="600"/>
	<outline>
		<contour>
			<point x="-21" y="202" type="line"/>
			<point x="579" y="202" type="line"/>
			<point x="600" y="305" type="line"/>
			<point x="0" y="305" type="line"/>
		</contour>
	</outline>
</glyph>
<glyph name="quotereversed" format="1">
	<unicode hex="201B"/>
	<advance width="600"/>
	<outline>
		<contour>
			<point x="381" y="321" type="curve"/>
			<point x="425" y="382" type="line"/>
			<point x="342" y="421"/>
			<point x="306" y="458"/>
			<point x="306" y="506" type="curve" smooth="yes"/>
			<point x="306" y="508"/>
			<point x="312" y="541"/>
			<point x="313" y="544" type="curve"/>
			<point x="332" y="626" type="line"/>
			<point x="261" y="539" type="line"/>
			<point x="272" y="522"/>
			<point x="296" y="504"/>
			<point x="330" y="504" type="curve" smooth="yes"/>
			<point x="388" y="504"/>
			<point x="432" y="556"/>
			<point x="432" y="610" type="curve" smooth="yes"/>
			<point x="432" y="662"/>
			<point x="392" y="697"/>
			<point x="342" y="697" type="curve" smooth="yes"/>
			<point x="271" y="697"/>
			<point x="206" y="632"/>
			<point x="206" y="531" type="curve" smooth="yes"/>
			<point x="206" y="442"/>
			<point x="276" y="362"/>
		</contour>
	</outline>
</glyph>
<glyph name="daggerdbl" format="1">
	<unicode hex="2021"/>
	<advance width="600"/>
	<outline>
		<contour>
			<point x="170" y="-80" type="line"/>
			<point x="281" y="-80" type="line"/>
			<point x="306" y="90" type="line"/>
			<point x="457" y="81" type="line"/>
			<point x="480" y="192" type="line"/>
			<point x="325" y="182" type="line"/>
			<point x="359" y="316" type="line"/>
			<point x="378" y="450" type="line"/>
			<point x="530" y="438" type="line"/>
			<point x="550" y="549" type="line"/>
			<point x="395" y="541" type="line"/>
			<point x="437" y="712" type="line"/>
			<point x="328" y="712" type="line"/>
			<point x="302" y="541" type="line"/>
			<point x="150" y="549" type="line"/>
			<point x="129" y="438" type="line"/>
			<point x="284" y="450" type="line"/>
			<point x="248" y="316" type="line"/>
			<point x="231" y="182" type="line"/>
			<point x="79" y="192" type="line"/>
			<point x="58" y="81" type="line"/>
			<point x="212" y="90" type="line"/>
		</contour>
	</outline>
</glyph>
<glyph name="bullet" format="1">
	<unicode hex="2022"/>
	<advance width="600"/>
	<outline>
		<contour>
			<point x="267" y="104" type="curve" smooth="yes"/>
			<point x="369" y="104"/>
			<point x="454" y="177"/>
			<point x="454" y="289" type="curve" smooth="yes"/>
			<point x="454" y="366"/>
			<point x="398" y="420"/>
			<point x="319" y="420" type="curve" smooth="yes"/>
			<point x="215" y="420"/>
			<point x="128" y="347"/>
			<point x="128" y="235" type="curve" smooth="yes"/>
			<point x="128" y="158"/>
			<point x="186" y="104"/>
		</contour>
	</outline>
</glyph>
<glyph name="ellipsis" format="1">
	<unicode hex="2026"/>
	<advance width="600"/>
	<outline>
		<contour>
			<point x="32" y="-12" type="curve" smooth="yes"/>
			<point x="98" y="-12"/>
			<point x="138" y="39"/>
			<point x="138" y="98" type="curve" smooth="yes"/>
			<point x="138" y="142"/>
			<point x="114" y="172"/>
			<point x="69" y="172" type="curve" smooth="yes"/>
			<point x="8" y="172"/>
			<point x="-38" y="120"/>
			<point x="-38" y="62" type="curve" smooth="yes"/>
			<point x="-38" y="20"/>
			<point x="-14" y="-12"/>
		</contour>
		<contour>
			<point x="238" y="-12" type="curve" smooth="yes"/>
			<point x="305" y="-12"/>
			<point x="345" y="39"/>
			<point x="345" y="98" type="curve" smooth="yes"/>
			<point x="345" y="142"/>
			<point x="321" y="172"/>
			<point x="276" y="172" type="curve" smooth="yes"/>
			<point x="216" y="172"/>
			<point x="169" y="120"/>
			<point x="169" y="62" type="curve" smooth="yes"/>
			<point x="169" y="20"/>
			<point x="193" y="-12"/>
		</contour>
		<contour>
			<point x="445" y="-12" type="curve" smooth="yes"/>
			<point x="511" y="-12"/>
			<point x="552" y="39"/>
			<point x="552" y="98" type="curve" smooth="yes"/>
			<point x="552" y="142"/>
			<point x="528" y="172"/>
			<point x="483" y="172" type="curve" smooth="yes"/>
			<point x="423" y="172"/>
			<point x="375" y="122"/>
			<point x="375" y="62" type="curve" smooth="yes"/>
			<point x="375" y="20"/>
			<point x="400" y="-12"/>
		</contour>
	</outline>
</glyph>
<glyph name="primereversed" format="2">
	<unicode hex="2035"/>
	<advance width="600"/>
	<outline>
		<contour>
			<point x="379" y="368" type="line"/>
			<point x="468" y="368" type="line"/>
			<point x="382" y="687" type="line"/>
			<point x="248" y="687" type="line"/>
			<point x="299" y="550" type="line"/>
		</contour>
	</outline>
</glyph>
<glyph name="guilsinglleft" format="1">
	<unicode hex="2039"/>
	<advance width="600"/>
	<outline>
		<contour>
			<point x="307" y="29" type="line"/>
			<point x="376" y="80" type="line"/>
			<point x="298" y="245" type="line"/>
			<point x="444" y="419" type="line"/>
			<point x="395" y="474" type="line"/>
			<point x="194" y="311" type="line"/>
			<point x="174" y="201" type="line"/>
		</contour>
	</outline>
</glyph>
<glyph name="guilsinglright" format="1">
	<unicode hex="203A"/>
	<advance width="600"/>
	<outline>
		<contour>
			<point x="184" y="29" type="line"/>
			<point x="386" y="192" type="line"/>
			<point x="405" y="302" type="line"/>
			<point x="273" y="474" type="line"/>
			<point x="204" y="424" type="line"/>
			<point x="282" y="259" type="line"/>
			<point x="136" y="84" type="line"/>
		</contour>
	</outline>
</glyph>
<glyph name="undertie" format="1">
	<unicode hex="203F"/>
	<advance width="600"/>
	<outline>
		<contour>
			<point x="190" y="-231" type="curve" smooth="yes"/>
			<point x="344" y="-231"/>
			<point x="505" y="-190"/>
			<point x="653" y="-107" type="curve"/>
			<point x="622" y="-44" type="line"/>
			<point x="486" y="-118"/>
			<point x="327" y="-144"/>
			<point x="208" y="-144" type="curve" smooth="yes"/>
			<point x="85" y="-144"/>
			<point x="-67" y="-118"/>
			<point x="-176" y="-44" type="curve"/>
			<point x="-224" y="-107" type="line"/>
			<point x="-109" y="-190"/>
			<point x="36" y="-231"/>
		</contour>
	</outline>
</glyph>
<glyph name="fraction" format="1">
	<unicode hex="2044"/>
	<advance width="600"/>
	<outline>
		<contour>
			<point x="5" y="22" type="line"/>
			<point x="209" y="222" type="line"/>
			<point x="170" y="266" type="line"/>
			<point x="-51" y="90" type="line"/>
		</contour>
		<contour>
			<point x="382" y="373" type="line"/>
			<point x="602" y="549" type="line"/>
			<point x="546" y="617" type="line"/>
			<point x="344" y="417" type="line"/>
		</contour>
	</outline>
</glyph>
<glyph name="n.sups" format="2">
	<unicode hex="207F"/>
	<advance width="600"/>
	<outline>
		<contour>
			<point x="164" y="375" type="line"/>
			<point x="260" y="375" type="line"/>
			<point x="305" y="596" type="line"/>
			<point x="328" y="615"/>
			<point x="353" y="630"/>
			<point x="382" y="630" type="curve" smooth="yes"/>
			<point x="413" y="630"/>
			<point x="422" y="610"/>
			<point x="414" y="568" type="curve" smooth="yes"/>
			<point x="376" y="375" type="line"/>
			<point x="472" y="375" type="line"/>
			<point x="513" y="581" type="line" smooth="yes"/>
			<point x="529" y="664"/>
			<point x="502" y="711"/>
			<point x="436" y="711" type="curve" smooth="yes"/>
			<point x="383" y="711"/>
			<point x="343" y="686"/>
			<point x="309" y="659" type="curve"/>
			<point x="306" y="659" type="line"/>
			<point x="308" y="703" type="line"/>
			<point x="230" y="703" type="line"/>
		</contour>
	</outline>
</glyph>
<glyph name="two.subs" format="2">
	<unicode hex="2082"/>
	<advance width="600"/>
	<outline>
		<contour>
			<point x="99" y="-186" type="line"/>
			<point x="376" y="-186" type="line"/>
			<point x="393" y="-102" type="line"/>
			<point x="275" y="-102" type="line"/>
			<point x="363" y="-30"/>
			<point x="419" y="30"/>
			<point x="419" y="103" type="curve" smooth="yes"/>
			<point x="419" y="173"/>
			<point x="369" y="216"/>
			<point x="289" y="216" type="curve" smooth="yes"/>
			<point x="234" y="216"/>
			<point x="198" y="192"/>
			<point x="153" y="152" type="curve"/>
			<point x="209" y="93" type="line"/>
			<point x="230" y="113"/>
			<point x="249" y="129"/>
			<point x="270" y="129" type="curve" smooth="yes"/>
			<point x="303" y="129"/>
			<point x="318" y="111"/>
			<point x="318" y="84" type="curve" smooth="yes"/>
			<point x="318" y="27"/>
			<point x="249" y="-40"/>
			<point x="110" y="-131" type="curve"/>
		</contour>
	</outline>
</glyph>
<glyph name="colonmonetary" format="1">
	<unicode hex="20A1"/>
	<advance width="600"/>
	<outline>
		<contour>
			<point x="289" y="-12" type="curve" smooth="yes"/>
			<point x="382" y="-12"/>
			<point x="453" y="19"/>
			<point x="517" y="79" type="curve"/>
			<point x="452" y="167" type="line"/>
			<point x="413" y="126"/>
			<point x="370" y="100"/>
			<point x="315" y="100" type="curve" smooth="yes"/>
			<point x="252" y="100"/>
			<point x="208" y="148"/>
			<point x="208" y="244" type="curve" smooth="yes"/>
			<point x="208" y="394"/>
			<point x="288" y="541"/>
			<point x="414" y="541" type="curve" smooth="yes"/>
			<point x="462" y="541"/>
			<point x="494" y="514"/>
			<point x="518" y="480" type="curve"/>
			<point x="600" y="547" type="line"/>
			<point x="566" y="600"/>
			<point x="510" y="648"/>
			<point x="420" y="648" type="curve" smooth="yes"/>
			<point x="224" y="648"/>
			<point x="72" y="488"/>
			<point x="72" y="238" type="curve" smooth="yes"/>
			<point x="72" y="79"/>
			<point x="159" y="-12"/>
		</contour>
		<contour>
			<point x="142" y="-110" type="line"/>
			<point x="190" y="-110" type="line"/>
			<point x="462" y="746" type="line"/>
			<point x="416" y="746" type="line"/>
		</contour>
		<contour>
			<point x="233" y="-110" type="line"/>
			<point x="281" y="-110" type="line"/>
			<point x="553" y="746" type="line"/>
			<point x="506" y="746" type="line"/>
		</contour>
	</outline>
</glyph>
<glyph name="franc" format="1">
	<unicode hex="20A3"/>
	<advance width="600"/>
	<outline>
		<contour>
			<point x="63" y="0" type="line"/>
			<point x="201" y="0" type="line"/>
			<point x="255" y="272" type="line"/>
			<point x="480" y="272" type="line"/>
			<point x="503" y="387" type="line"/>
			<point x="277" y="387" type="line"/>
			<point x="303" y="520" type="line"/>
			<point x="572" y="520" type="line"/>
			<point x="595" y="635" type="line"/>
			<point x="190" y="635" type="line"/>
		</contour>
		<contour>
			<point x="6" y="101" type="line"/>
			<point x="365" y="101" type="line"/>
			<point x="382" y="186" type="line"/>
			<point x="103" y="186" type="line"/>
			<point x="22" y="180" type="line"/>
		</contour>
	</outline>
</glyph>
<glyph name="lira" format="1">
	<unicode hex="20A4"/>
	<advance width="600"/>
	<outline>
		<contour>
			<point x="17" y="0" type="line"/>
			<point x="459" y="0" type="line"/>
			<point x="480" y="115" type="line"/>
			<point x="222" y="115" type="line"/>
			<point x="224" y="119" type="line"/>
			<point x="280" y="169"/>
			<point x="305" y="218"/>
			<point x="305" y="297" type="curve" smooth="yes"/>
			<point x="304" y="330"/>
			<point x="297" y="373"/>
			<point x="297" y="405" type="curve" smooth="yes"/>
			<point x="297" y="504"/>
			<point x="339" y="537"/>
			<point x="396" y="537" type="curve" smooth="yes"/>
			<point x="432" y="537"/>
			<point x="462" y="518"/>
			<point x="485" y="487" type="curve"/>
			<point x="573" y="559" type="line"/>
			<point x="535" y="612"/>
			<point x="469" y="647"/>
			<point x="396" y="647" type="curve" smooth="yes"/>
			<point x="264" y="647"/>
			<point x="170" y="564"/>
			<point x="170" y="424" type="curve" smooth="yes"/>
			<point x="170" y="382"/>
			<point x="181" y="323"/>
			<point x="181" y="281" type="curve" smooth="yes"/>
			<point x="181" y="192"/>
			<point x="124" y="122"/>
			<point x="34" y="84" type="curve"/>
		</contour>
		<contour>
			<point x="83" y="340" type="line"/>
			<point x="465" y="340" type="line"/>
			<point x="479" y="409" type="line"/>
			<point x="177" y="409" type="line"/>
			<point x="95" y="403" type="line"/>
		</contour>
		<contour>
			<point x="58" y="219" type="line"/>
			<point x="440" y="219" type="line"/>
			<point x="454" y="288" type="line"/>
			<point x="153" y="288" type="line"/>
			<point x="70" y="282" type="line"/>
		</contour>
	</outline>
</glyph>
<glyph name="Euro" format="2">
	<unicode hex="20AC"/>
	<advance width="600"/>
	<outline>
		<contour>
			<point x="309" y="-12" type="curve" smooth="yes"/>
			<point x="397" y="-12"/>
			<point x="474" y="19"/>
			<point x="538" y="78" type="curve"/>
			<point x="476" y="165" type="line"/>
			<point x="435" y="130"/>
			<point x="390" y="102"/>
			<point x="336" y="102" type="curve" smooth="yes"/>
			<point x="271" y="102"/>
			<point x="234" y="150"/>
			<point x="234" y="247" type="curve" smooth="yes"/>
			<point x="234" y="404"/>
			<point x="317" y="539"/>
			<point x="425" y="539" type="curve" smooth="yes"/>
			<point x="474" y="539"/>
			<point x="502" y="517"/>
			<point x="527" y="482" type="curve"/>
			<point x="612" y="553" type="line"/>
			<point x="576" y="605"/>
			<point x="524" y="647"/>
			<point x="439" y="647" type="curve" smooth="yes"/>
			<point x="248" y="647"/>
			<point x="95" y="495"/>
			<point x="95" y="236" type="curve" smooth="yes"/>
			<point x="95" y="77"/>
			<point x="182" y="-12"/>
		</contour>
		<contour>
			<point x="46" y="342" type="line"/>
			<point x="480" y="342" type="line"/>
			<point x="494" y="411" type="line"/>
			<point x="136" y="411" type="line"/>
			<point x="59" y="406" type="line"/>
		</contour>
		<contour>
			<point x="22" y="219" type="line"/>
			<point x="415" y="219" type="line"/>
			<point x="429" y="289" type="line"/>
			<point x="110" y="289" type="line"/>
			<point x="35" y="283" type="line"/>
		</contour>
	</outline>
</glyph>
<glyph name="careof" format="1">
	<unicode hex="2105"/>
	<advance width="600"/>
	<outline>
		<contour>
			<point x="124" y="313" type="curve" smooth="yes"/>
			<point x="157" y="313"/>
			<point x="195" y="326"/>
			<point x="227" y="346" type="curve"/>
			<point x="200" y="405" type="line"/>
			<point x="181" y="394"/>
			<point x="163" y="385"/>
			<point x="143" y="385" type="curve" smooth="yes"/>
			<point x="116" y="385"/>
			<point x="88" y="405"/>
			<point x="88" y="453" type="curve" smooth="yes"/>
			<point x="88" y="516"/>
			<point x="125" y="571"/>
			<point x="169" y="571" type="curve" smooth="yes"/>
			<point x="188" y="571"/>
			<point x="204" y="564"/>
			<point x="219" y="544" type="curve"/>
			<point x="272" y="593" type="line"/>
			<point x="250" y="623"/>
			<point x="214" y="645"/>
			<point x="168" y="645" type="curve" smooth="yes"/>
			<point x="74" y="645"/>
			<point x="-8" y="555"/>
			<point x="-8" y="448" type="curve" smooth="yes"/>
			<point x="-8" y="351"/>
			<point x="63" y="313"/>
		</contour>
		<component base="fraction" xOffset="1"/>
		<component base="zero.dnom" xOffset="128"/>
	</outline>
</glyph>
<glyph name="litre" format="1">
	<unicode hex="2113"/>
	<advance width="600"/>
	<outline>
		<contour>
			<point x="295" y="-12" type="curve" smooth="yes"/>
			<point x="375" y="-12"/>
			<point x="436" y="21"/>
			<point x="488" y="62" type="curve"/>
			<point x="442" y="146" type="line"/>
			<point x="415" y="125"/>
			<point x="386" y="101"/>
			<point x="346" y="101" type="curve" smooth="yes"/>
			<point x="305" y="101"/>
			<point x="277" y="129"/>
			<point x="292" y="204" type="curve" smooth="yes"/>
			<point x="352" y="492" type="line" smooth="yes"/>
			<point x="369" y="580"/>
			<point x="398" y="612"/>
			<point x="424" y="612" type="curve" smooth="yes"/>
			<point x="442" y="612"/>
			<point x="451" y="596"/>
			<point x="451" y="568" type="curve" smooth="yes"/>
			<point x="451" y="461"/>
			<point x="336" y="327"/>
			<point x="63" y="193" type="curve"/>
			<point x="97" y="109" type="line"/>
			<point x="457" y="291"/>
			<point x="563" y="442"/>
			<point x="563" y="582" type="curve" smooth="yes"/>
			<point x="563" y="663"/>
			<point x="516" y="713"/>
			<point x="438" y="713" type="curve" smooth="yes"/>
			<point x="336" y="713"/>
			<point x="246" y="638"/>
			<point x="213" y="473" type="curve" smooth="yes"/>
			<point x="155" y="191" type="line" smooth="yes"/>
			<point x="128" y="55"/>
			<point x="201" y="-12"/>
		</contour>
	</outline>
</glyph>
<glyph name="soundcopyright" format="2">
	<unicode hex="2117"/>
	<advance width="600"/>
	<outline>
		<contour>
			<point x="241" y="-9" type="curve" smooth="yes"/>
			<point x="433" y="-9"/>
			<point x="596" y="155"/>
			<point x="596" y="397" type="curve" smooth="yes"/>
			<point x="596" y="557"/>
			<point x="503" y="655"/>
			<point x="373" y="655" type="curve" smooth="yes"/>
			<point x="184" y="655"/>
			<point x="19" y="495"/>
			<point x="19" y="252" type="curve" smooth="yes"/>
			<point x="19" y="91"/>
			<point x="111" y="-9"/>
		</contour>
		<contour>
			<point x="248" y="48" type="curve" smooth="yes"/>
			<point x="141" y="48"/>
			<point x="81" y="132"/>
			<point x="81" y="258" type="curve" smooth="yes"/>
			<point x="81" y="455"/>
			<point x="205" y="598"/>
			<point x="362" y="598" type="curve" smooth="yes"/>
			<point x="470" y="598"/>
			<point x="534" y="516"/>
			<point x="534" y="391" type="curve" smooth="yes"/>
			<point x="534" y="196"/>
			<point x="406" y="48"/>
		</contour>
		<contour>
			<point x="158" y="141" type="line"/>
			<point x="249" y="141" type="line"/>
			<point x="307" y="439" type="line"/>
			<point x="297" y="431" type="line"/>
			<point x="332" y="431" type="line" smooth="yes"/>
			<point x="368" y="431"/>
			<point x="384" y="419"/>
			<point x="384" y="387" type="curve" smooth="yes"/>
			<point x="384" y="337"/>
			<point x="356" y="306"/>
			<point x="304" y="306" type="curve" smooth="yes"/>
			<point x="256" y="306" type="line"/>
			<point x="244" y="236" type="line"/>
			<point x="296" y="236" type="line" smooth="yes"/>
			<point x="380" y="236"/>
			<point x="481" y="274"/>
			<point x="481" y="402" type="curve" smooth="yes"/>
			<point x="481" y="477"/>
			<point x="422" y="505"/>
			<point x="357" y="505" type="curve" smooth="yes"/>
			<point x="230" y="505" type="line"/>
		</contour>
	</outline>
</glyph>
<glyph name="servicemark" format="1">
	<unicode hex="2120"/>
	<advance width="600"/>
	<outline>
		<contour>
			<point x="147" y="357" type="curve" smooth="yes"/>
			<point x="219" y="357"/>
			<point x="270" y="394"/>
			<point x="270" y="454" type="curve" smooth="yes"/>
			<point x="270" y="504"/>
			<point x="240" y="529"/>
			<point x="201" y="553" type="curve" smooth="yes"/>
			<point x="166" y="575"/>
			<point x="154" y="584"/>
			<point x="154" y="602" type="curve" smooth="yes"/>
			<point x="154" y="616"/>
			<point x="165" y="625"/>
			<point x="183" y="625" type="curve" smooth="yes"/>
			<point x="208" y="625"/>
			<point x="234" y="611"/>
			<point x="252" y="590" type="curve"/>
			<point x="297" y="636" type="line"/>
			<point x="277" y="663"/>
			<point x="242" y="688"/>
			<point x="188" y="688" type="curve" smooth="yes"/>
			<point x="121" y="688"/>
			<point x="75" y="652"/>
			<point x="75" y="597" type="curve" smooth="yes"/>
			<point x="75" y="552"/>
			<point x="99" y="524"/>
			<point x="142" y="497" type="curve" smooth="yes"/>
			<point x="180" y="472"/>
			<point x="193" y="463"/>
			<point x="193" y="447" type="curve" smooth="yes"/>
			<point x="193" y="431"/>
			<point x="177" y="422"/>
			<point x="153" y="422" type="curve" smooth="yes"/>
			<point x="122" y="422"/>
			<point x="96" y="440"/>
			<point x="77" y="465" type="curve"/>
			<point x="32" y="414" type="line"/>
			<point x="60" y="380"/>
			<point x="99" y="357"/>
		</contour>
		<contour>
			<point x="286" y="363" type="line"/>
			<point x="364" y="363" type="line"/>
			<point x="384" y="466" type="line"/>
			<point x="389" y="493"/>
			<point x="397" y="559"/>
			<point x="398" y="580" type="curve"/>
			<point x="402" y="580" type="line"/>
			<point x="422" y="424" type="line"/>
			<point x="477" y="424" type="line"/>
			<point x="558" y="581" type="line"/>
			<point x="562" y="581" type="line"/>
			<point x="552" y="551"/>
			<point x="535" y="493"/>
			<point x="530" y="466" type="curve"/>
			<point x="510" y="363" type="line"/>
			<point x="589" y="363" type="line"/>
			<point x="651" y="676" type="line"/>
			<point x="550" y="676" type="line"/>
			<point x="503" y="579" type="line"/>
			<point x="468" y="504" type="line"/>
			<point x="464" y="504" type="line"/>
			<point x="456" y="579" type="line"/>
			<point x="445" y="676" type="line"/>
			<point x="348" y="676" type="line"/>
		</contour>
	</outline>
</glyph>
<glyph name="trademark" format="1">
	<unicode hex="2122"/>
	<advance width="600"/>
	<outline>
		<contour>
			<point x="93" y="363" type="line"/>
			<point x="179" y="363" type="line"/>
			<point x="229" y="611" type="line"/>
			<point x="144" y="611" type="line"/>
		</contour>
		<contour>
			<point x="283" y="363" type="line"/>
			<point x="362" y="363" type="line"/>
			<point x="382" y="466" type="line"/>
			<point x="396" y="580" type="line"/>
			<point x="400" y="580" type="line"/>
			<point x="422" y="424" type="line"/>
			<point x="478" y="424" type="line"/>
			<point x="562" y="580" type="line"/>
			<point x="566" y="580" type="line"/>
			<point x="533" y="466" type="line"/>
			<point x="514" y="363" type="line"/>
			<point x="592" y="363" type="line"/>
			<point x="654" y="676" type="line"/>
			<point x="557" y="676" type="line"/>
			<point x="504" y="579" type="line"/>
			<point x="468" y="506" type="line"/>
			<point x="464" y="506" type="line"/>
			<point x="457" y="579" type="line"/>
			<point x="443" y="676" type="line"/>
			<point x="346" y="676" type="line"/>
		</contour>
		<contour>
			<point x="65" y="603" type="line"/>
			<point x="302" y="603" type="line"/>
			<point x="316" y="676" type="line"/>
			<point x="81" y="676" type="line"/>
		</contour>
	</outline>
</glyph>
<glyph name="onetenth" format="2">
	<unicode hex="2152"/>
	<advance width="600"/>
	<outline>
		<contour>
			<point x="157" y="400" type="line"/>
			<point x="257" y="400" type="line"/>
			<point x="304" y="635" type="line"/>
			<point x="226" y="635" type="line"/>
			<point x="191" y="616"/>
			<point x="168" y="606"/>
			<point x="118" y="600" type="curve"/>
			<point x="105" y="540" type="line"/>
			<point x="185" y="540" type="line"/>
		</contour>
		<contour>
			<point x="106" y="267" type="line"/>
			<point x="606" y="415" type="line"/>
			<point x="582" y="503" type="line"/>
			<point x="91" y="309" type="line"/>
		</contour>
		<contour>
			<point x="78" y="0" type="line"/>
			<point x="178" y="0" type="line"/>
			<point x="224" y="235" type="line"/>
			<point x="146" y="235" type="line"/>
			<point x="111" y="215"/>
			<point x="88" y="206"/>
			<point x="38" y="200" type="curve"/>
			<point x="25" y="140" type="line"/>
			<point x="106" y="140" type="line"/>
		</contour>
		<contour>
			<point x="376" y="-13" type="curve" smooth="yes"/>
			<point x="467" y="-13"/>
			<point x="532" y="53"/>
			<point x="532" y="145" type="curve" smooth="yes"/>
			<point x="532" y="208"/>
			<point x="493" y="247"/>
			<point x="430" y="247" type="curve" smooth="yes"/>
			<point x="347" y="247"/>
			<point x="274" y="186"/>
			<point x="274" y="92" type="curve" smooth="yes"/>
			<point x="274" y="30"/>
			<point x="314" y="-13"/>
		</contour>
		<contour>
			<point x="353" y="96" type="curve" smooth="yes"/>
			<point x="353" y="153"/>
			<point x="386" y="188"/>
			<point x="421" y="188" type="curve" smooth="yes"/>
			<point x="442" y="188"/>
			<point x="454" y="175"/>
			<point x="454" y="142" type="curve" smooth="yes"/>
			<point x="454" y="79"/>
			<point x="421" y="47"/>
			<point x="387" y="47" type="curve" smooth="yes"/>
			<point x="364" y="47"/>
			<point x="353" y="62"/>
		</contour>
	</outline>
</glyph>
<glyph name="arrowleft" format="1">
	<unicode hex="2190"/>
	<advance width="600"/>
	<outline>
		<contour>
			<point x="291" y="-17" type="line"/>
			<point x="356" y="58" type="line"/>
			<point x="199" y="197" type="line"/>
			<point x="568" y="197" type="line"/>
			<point x="568" y="307" type="line"/>
			<point x="199" y="307" type="line"/>
			<point x="356" y="446" type="line"/>
			<point x="291" y="521" type="line"/>
			<point x="14" y="254" type="line"/>
			<point x="14" y="250" type="line"/>
		</contour>
	</outline>
</glyph>
<glyph name="arrowright" format="1">
	<unicode hex="2192"/>
	<advance width="600"/>
	<outline>
		<contour>
			<point x="308" y="-17" type="line"/>
			<point x="585" y="250" type="line"/>
			<point x="585" y="254" type="line"/>
			<point x="308" y="521" type="line"/>
			<point x="243" y="446" type="line"/>
			<point x="401" y="307" type="line"/>
			<point x="31" y="307" type="line"/>
			<point x="31" y="197" type="line"/>
			<point x="401" y="197" type="line"/>
			<point x="243" y="58" type="line"/>
		</contour>
	</outline>
</glyph>
<glyph name="arrowdownright" format="1">
	<unicode hex="2198"/>
	<advance width="600"/>
	<outline>
		<contour>
			<point x="503" y="54" type="line"/>
			<point x="506" y="57" type="line"/>
			<point x="499" y="442" type="line"/>
			<point x="400" y="436" type="line"/>
			<point x="413" y="226" type="line"/>
			<point x="151" y="487" type="line"/>
			<point x="74" y="409" type="line"/>
			<point x="335" y="148" type="line"/>
			<point x="125" y="160" type="line"/>
			<point x="118" y="61" type="line"/>
		</contour>
	</outline>
</glyph>
<glyph name="arrowdownleft" format="1">
	<unicode hex="2199"/>
	<advance width="600"/>
	<outline>
		<contour>
			<point x="105" y="54" type="line"/>
			<point x="490" y="61" type="line"/>
			<point x="484" y="160" type="line"/>
			<point x="274" y="148" type="line"/>
			<point x="535" y="409" type="line"/>
			<point x="457" y="487" type="line"/>
			<point x="196" y="226" type="line"/>
			<point x="208" y="436" type="line"/>
			<point x="109" y="441" type="line"/>
			<point x="102" y="57" type="line"/>
		</contour>
	</outline>
</glyph>
<glyph name="arrowupdnbse" format="1">
	<unicode hex="21A8"/>
	<advance width="600"/>
	<outline>
		<contour>
			<point x="60" y="-168" type="line"/>
			<point x="540" y="-168" type="line"/>
			<point x="540" y="-66" type="line"/>
			<point x="60" y="-66" type="line"/>
		</contour>
		<component base="arrowupdn"/>
	</outline>
</glyph>
<glyph name="arrowdblleft" format="2">
	<unicode hex="21D0"/>
	<advance width="600"/>
	<outline>
		<contour>
			<point x="291" y="-17" type="line"/>
			<point x="356" y="58" type="line"/>
			<point x="137" y="250" type="line"/>
			<point x="137" y="254" type="line"/>
			<point x="356" y="446" type="line"/>
			<point x="291" y="521" type="line"/>
			<point x="14" y="254" type="line"/>
			<point x="14" y="250" type="line"/>
		</contour>
		<contour>
			<point x="156" y="293" type="line"/>
			<point x="568" y="293" type="line"/>
			<point x="568" y="373" type="line"/>
			<point x="156" y="373" type="line"/>
		</contour>
		<contour>
			<point x="156" y="131" type="line"/>
			<point x="568" y="131" type="line"/>
			<point x="568" y="211" type="line"/>
			<point x="156" y="211" type="line"/>
		</contour>
	</outline>
</glyph>
<glyph name="arrowdblup" format="2">
	<unicode hex="21D1"/>
	<advance width="600"/>
	<outline>
		<contour>
			<point x="106" y="186" type="line"/>
			<point x="298" y="406" type="line"/>
			<point x="302" y="406" type="line"/>
			<point x="494" y="186" type="line"/>
			<point x="569" y="252" type="line"/>
			<point x="302" y="529" type="line"/>
			<point x="298" y="529" type="line"/>
			<point x="31" y="252" type="line"/>
		</contour>
		<contour>
			<point x="341" y="-26" type="line"/>
			<point x="421" y="-26" type="line"/>
			<point x="421" y="387" type="line"/>
			<point x="341" y="387" type="line"/>
		</contour>
		<contour>
			<point x="179" y="-26" type="line"/>
			<point x="259" y="-26" type="line"/>
			<point x="259" y="387" type="line"/>
			<point x="179" y="387" type="line"/>
		</contour>
	</outline>
</glyph>
<glyph name="arrowdblright" format="1">
	<unicode hex="21D2"/>
	<advance width="600"/>
	<outline>
		<contour>
			<point x="308" y="-17" type="line"/>
			<point x="585" y="250" type="line"/>
			<point x="585" y="254" type="line"/>
			<point x="308" y="521" type="line"/>
			<point x="243" y="446" type="line"/>
			<point x="463" y="254" type="line"/>
			<point x="463" y="250" type="line"/>
			<point x="243" y="58" type="line"/>
		</contour>
		<contour>
			<point x="31" y="131" type="line"/>
			<point x="444" y="131" type="line"/>
			<point x="444" y="211" type="line"/>
			<point x="31" y="211" type="line"/>
		</contour>
		<contour>
			<point x="31" y="293" type="line"/>
			<point x="444" y="293" type="line"/>
			<point x="444" y="373" type="line"/>
			<point x="31" y="373" type="line"/>
		</contour>
	</outline>
</glyph>
<glyph name="arrowdbldown" format="1">
	<unicode hex="21D3"/>
	<advance width="600"/>
	<outline>
		<contour>
			<point x="298" y="-26" type="line"/>
			<point x="302" y="-26" type="line"/>
			<point x="569" y="251" type="line"/>
			<point x="494" y="317" type="line"/>
			<point x="302" y="98" type="line"/>
			<point x="298" y="98" type="line"/>
			<point x="106" y="317" type="line"/>
			<point x="31" y="251" type="line"/>
		</contour>
		<contour>
			<point x="179" y="116" type="line"/>
			<point x="259" y="116" type="line"/>
			<point x="259" y="529" type="line"/>
			<point x="179" y="529" type="line"/>
		</contour>
		<contour>
			<point x="341" y="116" type="line"/>
			<point x="421" y="116" type="line"/>
			<point x="421" y="529" type="line"/>
			<point x="341" y="529" type="line"/>
		</contour>
	</outline>
</glyph>
<glyph name="existential" format="1">
	<unicode hex="2203"/>
	<advance width="600"/>
	<outline>
		<contour>
			<point x="-4" y="0" type="line"/>
			<point x="431" y="0" type="line"/>
			<point x="562" y="652" type="line"/>
			<point x="136" y="652" type="line"/>
			<point x="114" y="537" type="line"/>
			<point x="402" y="537" type="line"/>
			<point x="373" y="395" type="line"/>
			<point x="131" y="395" type="line"/>
			<point x="109" y="280" type="line"/>
			<point x="351" y="280" type="line"/>
			<point x="318" y="115" type="line"/>
			<point x="18" y="115" type="line"/>
		</contour>
	</outline>
</glyph>
<glyph name="Delta.math" format="1">
	<unicode hex="2206"/>
	<advance width="600"/>
	<outline>
		<contour>
			<point x="-41" y="0" type="line"/>
			<point x="522" y="0" type="line"/>
			<point x="539" y="81" type="line"/>
			<point x="451" y="653" type="line"/>
			<point x="290" y="653" type="line"/>
			<point x="-25" y="81" type="line"/>
		</contour>
		<contour>
			<point x="127" y="113" type="line"/>
			<point x="248" y="349" type="line"/>
			<point x="345" y="546" type="line"/>
			<point x="349" y="546" type="line"/>
			<point x="368" y="349" type="line"/>
			<point x="396" y="113" type="line"/>
		</contour>
	</outline>
</glyph>
<glyph name="summation" format="1">
	<unicode hex="2211"/>
	<advance width="600"/>
	<outline>
		<contour>
			<point x="52" y="-120" type="line"/>
			<point x="547" y="-120" type="line"/>
			<point x="547" y="-5" type="line"/>
			<point x="220" y="-5" type="line"/>
			<point x="220" y="-1" type="line"/>
			<point x="403" y="259" type="line"/>
			<point x="227" y="516" type="line"/>
			<point x="227" y="520" type="line"/>
			<point x="523" y="520" type="line"/>
			<point x="523" y="635" type="line"/>
			<point x="62" y="635" type="line"/>
			<point x="62" y="553" type="line"/>
			<point x="265" y="257" type="line"/>
			<point x="52" y="-40" type="line"/>
		</contour>
	</outline>
</glyph>
<glyph name="minus" format="1">
	<unicode hex="2212"/>
	<advance width="600"/>
	<outline>
		<contour>
			<point x="73" y="282" type="line"/>
			<point x="527" y="282" type="line"/>
			<point x="527" y="378" type="line"/>
			<point x="73" y="378" type="line"/>
		</contour>
	</outline>
</glyph>
<glyph name="orthogonal" format="1">
	<unicode hex="221F"/>
	<advance width="600"/>
	<outline>
		<contour>
			<point x="73" y="96" type="line"/>
			<point x="527" y="96" type="line"/>
			<point x="527" y="193" type="line"/>
			<point x="173" y="193" type="line"/>
			<point x="173" y="564" type="line"/>
			<point x="73" y="564" type="line"/>
		</contour>
	</outline>
</glyph>
<glyph name="integral" format="1">
	<unicode hex="222B"/>
	<advance width="600"/>
	<outline>
		<contour>
			<point x="209" y="-158" type="curve" smooth="yes"/>
			<point x="359" y="-158"/>
			<point x="389" y="-53"/>
			<point x="389" y="86" type="curve" smooth="yes"/>
			<point x="389" y="249"/>
			<point x="351" y="398"/>
			<point x="351" y="550" type="curve" smooth="yes"/>
			<point x="351" y="645"/>
			<point x="363" y="688"/>
			<point x="414" y="688" type="curve" smooth="yes"/>
			<point x="428" y="688"/>
			<point x="440" y="686"/>
			<point x="450" y="684" type="curve"/>
			<point x="463" y="784" type="line"/>
			<point x="453" y="787"/>
			<point x="431" y="791"/>
			<point x="408" y="791" type="curve" smooth="yes"/>
			<point x="257" y="791"/>
			<point x="228" y="686"/>
			<point x="228" y="547" type="curve" smooth="yes"/>
			<point x="228" y="384"/>
			<point x="265" y="235"/>
			<point x="265" y="82" type="curve" smooth="yes"/>
			<point x="265" y="-15"/>
			<point x="255" y="-54"/>
			<point x="202" y="-54" type="curve" smooth="yes"/>
			<point x="188" y="-54"/>
			<point x="176" y="-53"/>
			<point x="166" y="-50" type="curve"/>
			<point x="153" y="-150" type="line"/>
			<point x="163" y="-154"/>
			<point x="186" y="-158"/>
		</contour>
	</outline>
</glyph>
<glyph name="greaterequal" format="2">
	<unicode hex="2265"/>
	<advance width="600"/>
	<outline>
		<contour>
			<point x="73" y="0" type="line"/>
			<point x="527" y="0" type="line"/>
			<point x="527" y="98" type="line"/>
			<point x="73" y="98" type="line"/>
		</contour>
		<contour>
			<point x="73" y="154" type="line"/>
			<point x="527" y="298" type="line"/>
			<point x="527" y="412" type="line"/>
			<point x="73" y="555" type="line"/>
			<point x="73" y="442" type="line"/>
			<point x="250" y="392" type="line"/>
			<point x="389" y="357" type="line"/>
			<point x="389" y="353" type="line"/>
			<point x="250" y="317" type="line"/>
			<point x="73" y="267" type="line"/>
		</contour>
	</outline>
</glyph>
<glyph name="house" format="2">
	<unicode hex="2302"/>
	<advance width="600"/>
	<outline>
		<contour>
			<point x="37" y="0" type="line"/>
			<point x="563" y="0" type="line"/>
			<point x="563" y="360" type="line"/>
			<point x="356" y="664" type="line"/>
			<point x="244" y="664" type="line"/>
			<point x="37" y="360" type="line"/>
		</contour>
		<contour>
			<point x="151" y="93" type="line"/>
			<point x="151" y="328" type="line"/>
			<point x="228" y="451" type="line"/>
			<point x="298" y="565" type="line"/>
			<point x="302" y="565" type="line"/>
			<point x="372" y="451" type="line"/>
			<point x="449" y="328" type="line"/>
			<point x="449" y="93" type="line"/>
		</contour>
	</outline>
</glyph>
<glyph name="ceilingleft" format="2">
	<unicode hex="231C"/>
	<advance width="600"/>
	<outline>
		<contour>
			<point x="139" y="0" type="line"/>
			<point x="242" y="0" type="line"/>
			<point x="370" y="635" type="line"/>
			<point x="559" y="635" type="line"/>
			<point x="573" y="708" type="line"/>
			<point x="283" y="708" type="line"/>
		</contour>
	</outline>
</glyph>
<glyph name="floorleft" format="1">
	<unicode hex="231E"/>
	<advance width="600"/>
	<outline>
		<contour>
			<point x="127" y="-56" type="line"/>
			<point x="418" y="-56" type="line"/>
			<point x="432" y="17" type="line"/>
			<point x="245" y="17" type="line"/>
			<point x="370" y="635" type="line"/>
			<point x="267" y="635" type="line"/>
		</contour>
	</outline>
</glyph>
<glyph name="floorright" format="2">
	<unicode hex="231F"/>
	<advance width="600"/>
	<outline>
		<contour>
			<point x="34" y="-56" type="line"/>
			<point x="325" y="-56" type="line"/>
			<point x="465" y="635" type="line"/>
			<point x="361" y="635" type="line"/>
			<point x="237" y="17" type="line"/>
			<point x="48" y="17" type="line"/>
		</contour>
	</outline>
</glyph>
<glyph name="integraltp" format="2">
	<unicode hex="2320"/>
	<advance width="600"/>
	<outline>
		<contour>
			<point x="366" y="-400" type="line"/>
			<point x="366" y="550" type="line"/>
			<point x="366" y="645"/>
			<point x="378" y="688"/>
			<point x="429" y="688" type="curve" smooth="yes"/>
			<point x="443" y="688"/>
			<point x="455" y="686"/>
			<point x="465" y="684" type="curve"/>
			<point x="478" y="784" type="line"/>
			<point x="468" y="787"/>
			<point x="445" y="791"/>
			<point x="423" y="791" type="curve" smooth="yes"/>
			<point x="272" y="791"/>
			<point x="243" y="686"/>
			<point x="243" y="547" type="curve"/>
			<point x="243" y="-400" type="line"/>
		</contour>
	</outline>
</glyph>
<glyph name="lighthorzbxd" format="2">
	<unicode hex="2500"/>
	<advance width="600"/>
	<outline>
		<contour>
			<point x="-69" y="231" type="line"/>
			<point x="669" y="231" type="line"/>
			<point x="669" y="369" type="line"/>
			<point x="-69" y="369" type="line"/>
		</contour>
	</outline>
</glyph>
<glyph name="heavydnleftbxd" format="1">
	<unicode hex="2513"/>
	<advance width="600"/>
	<outline>
		<contour>
			<point x="437" y="-400" type="line"/>
			<point x="437" y="437" type="line"/>
			<point x="-69" y="437" type="line"/>
			<point x="-69" y="163" type="line"/>
			<point x="163" y="163" type="line"/>
			<point x="163" y="-400" type="line"/>
		</contour>
	</outline>
</glyph>
<glyph name="upheavyrightlightbxd" format="2">
	<unicode hex="2516"/>
	<advance width="600"/>
	<outline>
		<contour>
			<point x="163" y="231" type="line"/>
			<point x="669" y="231" type="line"/>
			<point x="669" y="369" type="line"/>
			<point x="437" y="369" type="line"/>
			<point x="437" y="1000" type="line"/>
			<point x="163" y="1000" type="line"/>
		</contour>
	</outline>
</glyph>
<glyph name="upheavyleftlightbxd" format="2">
	<unicode hex="251A"/>
	<advance width="600"/>
	<outline>
		<contour>
			<point x="-69" y="231" type="line"/>
			<point x="437" y="231" type="line"/>
			<point x="437" y="1000" type="line"/>
			<point x="163" y="1000" type="line"/>
			<point x="163" y="369" type="line"/>
			<point x="-69" y="369" type="line"/>
		</contour>
	</outline>
</glyph>
<glyph name="dnheavyrightuplightbxd" format="1">
	<unicode hex="251F"/>
	<advance width="600"/>
	<outline>
		<contour>
			<point x="669" y="231" type="line"/>
			<point x="669" y="369" type="line"/>
			<point x="369" y="369" type="line"/>
			<point x="369" y="1000" type="line"/>
			<point x="231" y="1000" type="line"/>
			<point x="231" y="369" type="line"/>
			<point x="163" y="369" type="line"/>
			<point x="163" y="-400" type="line"/>
			<point x="437" y="-400" type="line"/>
			<point x="437" y="231" type="line"/>
		</contour>
	</outline>
</glyph>
<glyph name="dnlighthorzheavybxd" format="1">
	<unicode hex="252F"/>
	<advance width="600"/>
	<outline>
		<contour>
			<point x="669" y="163" type="line"/>
			<point x="669" y="437" type="line"/>
			<point x="-69" y="437" type="line"/>
			<point x="-69" y="163" type="line"/>
			<point x="231" y="163" type="line"/>
			<point x="231" y="-400" type="line"/>
			<point x="369" y="-400" type="line"/>
			<point x="369" y="163" type="line"/>
		</contour>
	</outline>
</glyph>
<glyph name="upheavyhorzlightbxd" format="1">
	<unicode hex="2538"/>
	<advance width="600"/>
	<outline>
		<contour>
			<point x="669" y="231" type="line"/>
			<point x="669" y="369" type="line"/>
			<point x="437" y="369" type="line"/>
			<point x="437" y="1000" type="line"/>
			<point x="163" y="1000" type="line"/>
			<point x="163" y="369" type="line"/>
			<point x="-69" y="369" type="line"/>
			<point x="-69" y="231" type="line"/>
		</contour>
	</outline>
</glyph>
<glyph name="leftlightrightupheavybxd" format="1">
	<unicode hex="253A"/>
	<advance width="600"/>
	<outline>
		<contour>
			<point x="163" y="163" type="line"/>
			<point x="669" y="163" type="line"/>
			<point x="669" y="437" type="line"/>
			<point x="437" y="437" type="line"/>
			<point x="437" y="1000" type="line"/>
			<point x="163" y="1000" type="line"/>
			<point x="163" y="369" type="line"/>
			<point x="-69" y="369" type="line"/>
			<point x="-69" y="231" type="line"/>
			<point x="163" y="231" type="line"/>
		</contour>
	</outline>
</glyph>
<glyph name="lightdbldashvertbxd" format="1">
	<unicode hex="254E"/>
	<advance width="600"/>
	<outline>
		<contour>
			<point x="231" y="450" type="line"/>
			<point x="369" y="450" type="line"/>
			<point x="369" y="750" type="line"/>
			<point x="231" y="750" type="line"/>
		</contour>
		<contour>
			<point x="231" y="-150" type="line"/>
			<point x="369" y="-150" type="line"/>
			<point x="369" y="150" type="line"/>
			<point x="231" y="150" type="line"/>
		</contour>
	</outline>
</glyph>
<glyph name="dnsngrightdblbxd" format="2">
	<unicode hex="2552"/>
	<advance width="600"/>
	<outline>
		<contour>
			<point x="669" y="94" type="line"/>
			<point x="669" y="231" type="line"/>
			<point x="369" y="231" type="line"/>
			<point x="369" y="369" type="line"/>
			<point x="669" y="369" type="line"/>
			<point x="669" y="506" type="line"/>
			<point x="231" y="506" type="line"/>
			<point x="231" y="-400" type="line"/>
			<point x="369" y="-400" type="line"/>
			<point x="369" y="94" type="line"/>
		</contour>
	</outline>
</glyph>
<glyph name="updblleftsngbxd" format="1">
	<unicode hex="255C"/>
	<advance width="600"/>
	<outline>
		<contour>
			<point x="506" y="231" type="line"/>
			<point x="506" y="1000" type="line"/>
			<point x="369" y="1000" type="line"/>
			<point x="369" y="369" type="line"/>
			<point x="231" y="369" type="line"/>
			<point x="231" y="1000" type="line"/>
			<point x="94" y="1000" type="line"/>
			<point x="94" y="369" type="line"/>
			<point x="-69" y="369" type="line"/>
			<point x="-69" y="231" type="line"/>
		</contour>
	</outline>
</glyph>
<glyph name="dbluphorzbxd" format="1">
	<unicode hex="2569"/>
	<advance width="600"/>
	<outline>
		<contour>
			<point x="369" y="369" type="line"/>
			<point x="669" y="369" type="line"/>
			<point x="669" y="506" type="line"/>
			<point x="506" y="506" type="line"/>
			<point x="506" y="1000" type="line"/>
			<point x="369" y="1000" type="line"/>
		</contour>
		<contour>
			<point x="231" y="369" type="line"/>
			<point x="231" y="1000" type="line"/>
			<point x="94" y="1000" type="line"/>
			<point x="94" y="506" type="line"/>
			<point x="-69" y="506" type="line"/>
			<point x="-69" y="369" type="line"/>
		</contour>
		<contour>
			<point x="-69" y="94" type="line"/>
			<point x="669" y="94" type="line"/>
			<point x="669" y="231" type="line"/>
			<point x="-69" y="231" type="line"/>
		</contour>
	</outline>
</glyph>
<glyph name="lightdiagcrossbxd" format="1">
	<unicode hex="2573"/>
	<advance width="600"/>
	<outline>
		<contour>
			<point x="524" y="-300" type="line"/>
			<point x="600" y="-300" type="line"/>
			<point x="600" y="-147" type="line"/>
			<point x="376" y="300" type="line"/>
			<point x="600" y="747" type="line"/>
			<point x="600" y="900" type="line"/>
			<point x="524" y="900" type="line"/>
			<point x="300" y="453" type="line"/>
			<point x="76" y="900" type="line"/>
			<point x="0" y="900" type="line"/>
			<point x="0" y="747" type="line"/>
			<point x="224" y="300" type="line"/>
			<point x="0" y="-147" type="line"/>
			<point x="0" y="-300" type="line"/>
			<point x="76" y="-300" type="line"/>
			<point x="300" y="147" type="line"/>
		</contour>
	</outline>
</glyph>
<glyph name="lightdnbxd" format="1">
	<unicode hex="2577"/>
	<advance width="600"/>
	<outline>
		<contour>
			<point x="231" y="-400" type="line"/>
			<point x="369" y="-400" type="line"/>
			<point x="369" y="369" type="line"/>
			<point x="231" y="369" type="line"/>
		</contour>
	</outline>
</glyph>
<glyph name="lightupheavydnbxd" format="1">
	<unicode hex="257D"/>
	<advance width="600"/>
	<outline>
		<contour>
			<point x="437" y="-400" type="line"/>
			<point x="437" y="369" type="line"/>
			<point x="369" y="369" type="line"/>
			<point x="369" y="1000" type="line"/>
			<point x="231" y="1000" type="line"/>
			<point x="231" y="369" type="line"/>
			<point x="163" y="369" type="line"/>
			<point x="163" y="-400" type="line"/>
		</contour>
	</outline>
</glyph>
